<?xml version="1.0" encoding="utf-8"?>
<!-- Generator: Adobe Illustrator 26.5.0, SVG Export Plug-In . SVG Version: 6.00 Build 0)  -->
<svg version="1.1" id="Layer_1" xmlns="http://www.w3.org/2000/svg" xmlns:xlink="http://www.w3.org/1999/xlink" x="0px" y="0px"
	 viewBox="0 0 385.3 566.1" style="enable-background:new 0 0 385.3 566.1;" xml:space="preserve">
<style type="text/css">
	.st0{fill:none;}
	.st1{fill:none;stroke:#000000;stroke-width:1.42;stroke-miterlimit:10;}
	.st2{stroke:#000000;stroke-width:1.42;stroke-miterlimit:10;}
	.st3{font-family:'Futura-Bold';}
	.st4{font-size:20.23px;}
	.st5{letter-spacing:-1;}
	.st6{fill:none;stroke:#000000;stroke-miterlimit:10;}
	.st7{fill:none;stroke:#000000;stroke-width:1.42;stroke-miterlimit:10;stroke-dasharray:0,0,2.84,2.84;}
	.st8{fill:none;stroke:#000000;stroke-width:1.42;stroke-miterlimit:10;stroke-dasharray:0,0,2.76,2.76;}
	.st9{fill:none;stroke:#000000;stroke-width:1.42;stroke-miterlimit:10;stroke-dasharray:0,0,2.81,2.81;}
	.st10{fill:none;stroke:#000000;stroke-width:1.42;stroke-linecap:square;stroke-miterlimit:10;}
	.st11{fill:none;stroke:#000000;stroke-width:1.42;stroke-miterlimit:10;stroke-dasharray:0,0,2.99,2.99;}
	.st12{fill:none;stroke:#000000;stroke-width:1.42;stroke-miterlimit:10;stroke-dasharray:0,0,2.89,2.89;}
	.st13{fill:none;stroke:#000000;stroke-width:1.42;stroke-miterlimit:10;stroke-dasharray:0,0,2.83,2.83;}
</style>
<g>
	<path class="st0" d="M312.3,84.3v396.9H82.7V84.3h15.6c0-25.1,20.3-45.4,45.4-45.4h107.5c25.1,0,45.4,20.3,45.4,45.4H312.3z"/>
	<path d="M313.5,482.4H81.4V83.1h15.7c0.7-25.1,21.3-45.4,46.6-45.4h107.5c25.3,0,46,20.2,46.6,45.4h15.7V482.4z M83.9,479.9H311
		V85.6h-15.6v-1.2c0-24.3-19.8-44.1-44.1-44.1H143.7c-24.3,0-44.1,19.8-44.1,44.1v1.2H83.9V479.9z"/>
</g>
<rect x="82.7" y="424.4" class="st1" width="28.7" height="56.7"/>
<rect x="111.4" y="424.4" class="st1" width="28.7" height="56.7"/>
<rect x="140.1" y="424.4" class="st2" width="28.7" height="56.7"/>
<rect x="168.8" y="424.4" class="st1" width="28.7" height="56.7"/>
<rect x="197.5" y="424.4" class="st1" width="28.7" height="56.7"/>
<rect x="226.2" y="424.4" class="st1" width="28.7" height="56.7"/>
<rect x="254.9" y="424.4" class="st1" width="28.7" height="56.7"/>
<rect x="283.6" y="424.4" class="st1" width="28.7" height="56.7"/>
<rect x="82.7" y="367.7" class="st1" width="28.7" height="56.7"/>
<rect x="111.4" y="367.7" class="st1" width="28.7" height="56.7"/>
<rect x="140.1" y="367.7" class="st1" width="28.7" height="56.7"/>
<rect x="168.8" y="367.7" class="st1" width="28.7" height="56.7"/>
<rect x="197.5" y="367.7" class="st1" width="28.7" height="56.7"/>
<rect x="226.2" y="367.7" class="st1" width="28.7" height="56.7"/>
<rect x="254.9" y="367.7" class="st1" width="28.7" height="56.7"/>
<rect x="283.6" y="367.7" class="st1" width="28.7" height="56.7"/>
<rect x="82.7" y="311" class="st1" width="28.7" height="56.7"/>
<rect x="111.4" y="311" class="st1" width="28.7" height="56.7"/>
<rect x="140.1" y="311" class="st1" width="28.7" height="56.7"/>
<rect x="168.8" y="311" class="st1" width="28.7" height="56.7"/>
<rect x="197.5" y="311" class="st1" width="28.7" height="56.7"/>
<rect x="226.2" y="311" class="st1" width="28.7" height="56.7"/>
<rect x="254.9" y="311" class="st1" width="28.7" height="56.7"/>
<rect x="283.6" y="311" class="st1" width="28.7" height="56.7"/>
<line class="st1" x1="111.4" y1="367.7" x2="140.1" y2="311"/>
<line class="st1" x1="140.1" y1="367.7" x2="111.4" y2="311"/>
<path d="M254.2,214.6v-58.2l0,0c0-31.3-25.4-56.7-56.7-56.7s-56.7,25.4-56.7,56.7l0,0v58.2l0,0c0,31.3,25.4,56.7,56.7,56.7
	S254.2,245.9,254.2,214.6L254.2,214.6L254.2,214.6z M197.5,242.9c-15.6,0-28.3-12.7-28.3-28.3l0,0v-58.2l0,0
	c0-15.6,12.7-28.3,28.3-28.3s28.3,12.7,28.3,28.3l0,0v58.2l0,0C225.8,230.2,213.1,242.9,197.5,242.9z"/>
<text transform="matrix(1 0 0 1 109.67 299)" class="st3 st4">N</text>
<text transform="matrix(1 0 0 1 127.35 299)" class="st3 st4 st5">OL</text>
<text transform="matrix(1 0 0 1 154.96 299)" class="st3 st4">L</text>
<text transform="matrix(1 0 0 1 165.42 299)" class="st3 st4 st5">ANS </text>
<text transform="matrix(1 0 0 1 216.29 299)" class="st3 st4">N</text>
<text transform="matrix(1 0 0 1 233.83 299)" class="st3 st4 st5">AMN</text>
<circle class="st6" cx="145" cy="85.6" r="2.6"/>
<circle class="st6" cx="250" cy="85.6" r="2.6"/>
<g>
	<line class="st1" x1="304.4" y1="214.6" x2="255.7" y2="214.6"/>
	<polygon points="260.4,208.8 261.4,209.8 256.2,214.6 261.4,219.4 260.4,220.4 254.2,214.6 	"/>
</g>
<g>
	<line class="st1" x1="327.8" y1="18.8" x2="313.8" y2="18.8"/>
	<polygon points="318.5,13 319.5,14.1 314.4,18.8 319.5,23.6 318.5,24.6 312.3,18.8 	"/>
</g>
<g>
	<line class="st1" x1="143.2" y1="83.3" x2="113.8" y2="54"/>
	<polygon points="121.2,53.2 121.2,54.6 114.2,54.4 114.5,61.4 113.1,61.4 112.8,52.9 	"/>
</g>
<g>
	<line class="st1" x1="211.8" y1="214.6" x2="224.3" y2="214.6"/>
	<polygon points="219.6,220.4 218.6,219.4 223.8,214.6 218.6,209.8 219.6,208.8 225.8,214.6 	"/>
</g>
<g>
	<line class="st1" x1="211.9" y1="18.8" x2="295.2" y2="18.8"/>
	<polygon points="290.5,24.6 289.5,23.6 294.6,18.8 289.5,14.1 290.5,13.1 296.7,18.8 	"/>
</g>
<g>
	<path d="M268.1,191.8c0-0.3,0-0.6,0-0.9c0-0.3,0-0.5,0-0.7h1c0,0.2,0,0.4,0,0.5c0,0.2,0,0.4,0,0.6h0c0.1-0.2,0.2-0.3,0.3-0.5
		s0.3-0.3,0.5-0.4c0.2-0.1,0.4-0.2,0.6-0.3c0.2-0.1,0.5-0.1,0.8-0.1c0.4,0,0.8,0.1,1.1,0.2c0.3,0.1,0.6,0.3,0.8,0.6s0.4,0.5,0.5,0.9
		s0.1,0.7,0.1,1.1v4.1h-1.1v-4c0-0.6-0.1-1-0.4-1.3s-0.6-0.5-1.1-0.5c-0.4,0-0.7,0.1-0.9,0.2c-0.3,0.1-0.5,0.3-0.6,0.5
		c-0.2,0.2-0.3,0.5-0.4,0.8s-0.1,0.7-0.1,1v3.2h-1.1L268.1,191.8L268.1,191.8z"/>
	<path d="M275.6,193.5c0-0.5,0.1-1,0.3-1.4s0.4-0.8,0.7-1.1c0.3-0.3,0.7-0.6,1.1-0.7s0.9-0.2,1.4-0.2s1,0.1,1.4,0.2s0.8,0.4,1.1,0.7
		s0.6,0.7,0.7,1.1c0.2,0.4,0.3,0.9,0.3,1.4s-0.1,1-0.3,1.4s-0.4,0.8-0.7,1.1c-0.3,0.3-0.7,0.6-1.1,0.7s-0.9,0.2-1.4,0.2
		s-1-0.1-1.4-0.2s-0.8-0.4-1.1-0.7s-0.6-0.7-0.7-1.1C275.7,194.5,275.6,194,275.6,193.5z M276.8,193.5c0,0.4,0,0.7,0.2,1
		c0.1,0.3,0.3,0.6,0.5,0.8c0.2,0.2,0.5,0.4,0.7,0.5c0.3,0.1,0.6,0.2,1,0.2s0.7-0.1,1-0.2s0.5-0.3,0.7-0.5c0.2-0.2,0.4-0.5,0.5-0.8
		c0.1-0.3,0.2-0.6,0.2-1s0-0.7-0.2-1c-0.1-0.3-0.3-0.6-0.5-0.8c-0.2-0.2-0.5-0.4-0.7-0.5c-0.3-0.1-0.6-0.2-1-0.2s-0.7,0.1-1,0.2
		s-0.5,0.3-0.7,0.5c-0.2,0.2-0.4,0.5-0.5,0.8S276.8,193.2,276.8,193.5z"/>
	<path d="M284.5,186.1h1.1v10.7h-1.1V186.1z"/>
	<path d="M287.9,186.1h1.1v10.7h-1.1V186.1z"/>
	<path d="M291.2,191.1c0.3-0.4,0.7-0.6,1.2-0.8s0.9-0.2,1.4-0.2c1,0,1.7,0.2,2.1,0.7s0.6,1.2,0.6,2.1v2.9c0,0.2,0,0.4,0,0.6
		s0,0.4,0.1,0.6h-1.1c0-0.1-0.1-0.3-0.1-0.5s0-0.4,0-0.5h0c-0.2,0.3-0.5,0.6-0.9,0.8s-0.8,0.3-1.3,0.3c-0.3,0-0.7,0-1-0.1
		s-0.6-0.2-0.8-0.4s-0.4-0.4-0.5-0.6s-0.2-0.5-0.2-0.9c0-0.6,0.1-1,0.4-1.3c0.3-0.3,0.6-0.5,1.1-0.7c0.4-0.1,0.9-0.2,1.4-0.3
		s0.9-0.1,1.3-0.1h0.4v-0.2c0-0.5-0.1-0.9-0.4-1.1c-0.3-0.2-0.7-0.4-1.2-0.4c-0.4,0-0.7,0.1-1.1,0.2s-0.6,0.3-0.9,0.6L291.2,191.1
		L291.2,191.1z M294.4,193.6c-0.7,0-1.3,0.1-1.7,0.3s-0.6,0.5-0.6,1c0,0.4,0.1,0.7,0.4,0.9c0.3,0.2,0.6,0.3,1,0.3
		c0.3,0,0.6-0.1,0.8-0.2s0.4-0.2,0.6-0.4s0.3-0.4,0.4-0.6s0.1-0.5,0.1-0.8v-0.4L294.4,193.6L294.4,193.6z"/>
	<path d="M298.6,191.8c0-0.3,0-0.6,0-0.9c0-0.3,0-0.5,0-0.7h1c0,0.2,0,0.4,0,0.5c0,0.2,0,0.4,0,0.6h0c0.1-0.2,0.2-0.3,0.3-0.5
		s0.3-0.3,0.5-0.4c0.2-0.1,0.4-0.2,0.6-0.3c0.2-0.1,0.5-0.1,0.8-0.1c0.4,0,0.8,0.1,1.1,0.2c0.3,0.1,0.6,0.3,0.8,0.6s0.4,0.5,0.5,0.9
		s0.1,0.7,0.1,1.1v4.1h-1.1v-4c0-0.6-0.1-1-0.4-1.3s-0.6-0.5-1.1-0.5c-0.4,0-0.7,0.1-0.9,0.2c-0.3,0.1-0.5,0.3-0.6,0.5
		c-0.2,0.2-0.3,0.5-0.4,0.8s-0.1,0.7-0.1,1v3.2h-1.1L298.6,191.8L298.6,191.8z"/>
	<path d="M278.1,208.2H277l-1.9-5.1h0l-1.7,5.1h-1.1l-2.1-6.6h1.2l1.5,5.1h0l1.7-5.1h1.2l1.7,5.1h0l1.5-5.1h1.2L278.1,208.2
		L278.1,208.2z"/>
	<path d="M281.4,198.9c0-0.2,0.1-0.4,0.2-0.6c0.2-0.2,0.4-0.2,0.6-0.2s0.4,0.1,0.6,0.2c0.2,0.2,0.2,0.4,0.2,0.6
		c0,0.2-0.1,0.4-0.2,0.6c-0.1,0.1-0.4,0.2-0.6,0.2s-0.4-0.1-0.6-0.2S281.3,199.2,281.4,198.9L281.4,198.9z M281.6,201.5h1.1v6.6
		h-1.1V201.5z"/>
	<path d="M290.4,207L290.4,207c-0.2,0.4-0.6,0.7-1,1c-0.5,0.3-1,0.4-1.6,0.4c-0.5,0-0.9-0.1-1.3-0.3s-0.8-0.4-1.1-0.7
		s-0.5-0.7-0.7-1.1c-0.2-0.4-0.2-0.9-0.2-1.4s0.1-1,0.2-1.4c0.2-0.4,0.4-0.8,0.7-1.1c0.3-0.3,0.7-0.6,1.1-0.7
		c0.4-0.2,0.9-0.3,1.4-0.3c0.5,0,0.9,0.1,1.3,0.3c0.4,0.2,0.8,0.5,1.1,0.8h0v-5h1.1v10.7h-1.1V207L290.4,207z M290.4,204.9
		c0-0.4,0-0.7-0.2-1c-0.1-0.3-0.3-0.6-0.5-0.8c-0.2-0.2-0.5-0.4-0.7-0.5c-0.3-0.1-0.6-0.2-1-0.2s-0.7,0.1-1,0.2s-0.5,0.3-0.7,0.5
		c-0.2,0.2-0.4,0.5-0.5,0.8c-0.1,0.3-0.2,0.6-0.2,1s0,0.7,0.2,1s0.3,0.6,0.5,0.8s0.5,0.4,0.7,0.5s0.6,0.2,1,0.2s0.7-0.1,1-0.2
		s0.5-0.3,0.7-0.5c0.2-0.2,0.4-0.5,0.5-0.8C290.4,205.5,290.4,205.2,290.4,204.9z"/>
	<path d="M297.2,202.5h-2v3.3c0,0.2,0,0.4,0,0.6c0,0.2,0,0.4,0.1,0.5s0.2,0.2,0.3,0.3c0.1,0.1,0.3,0.1,0.6,0.1c0.2,0,0.3,0,0.5-0.1
		s0.3-0.1,0.5-0.2l0,1c-0.2,0.1-0.4,0.1-0.6,0.2c-0.2,0-0.5,0.1-0.7,0.1c-0.4,0-0.7-0.1-1-0.2c-0.2-0.1-0.4-0.2-0.5-0.4
		c-0.1-0.2-0.2-0.4-0.3-0.7s-0.1-0.6-0.1-0.9v-3.6h-1.5v-0.9h1.5v-1.9h1.1v1.9h2L297.2,202.5L297.2,202.5z"/>
	<path d="M298.6,197.5h1.1v5h0c0.1-0.1,0.2-0.3,0.3-0.4s0.3-0.2,0.5-0.4c0.2-0.1,0.4-0.2,0.6-0.2s0.5-0.1,0.7-0.1
		c0.4,0,0.8,0.1,1.1,0.2c0.3,0.1,0.6,0.3,0.8,0.6c0.2,0.2,0.4,0.5,0.5,0.9c0.1,0.3,0.1,0.7,0.1,1.1v4.1h-1.1v-4c0-0.6-0.1-1-0.4-1.3
		s-0.6-0.5-1.1-0.5c-0.4,0-0.7,0.1-0.9,0.2s-0.5,0.3-0.6,0.5c-0.2,0.2-0.3,0.5-0.4,0.8s-0.1,0.7-0.1,1v3.2h-1.1L298.6,197.5
		L298.6,197.5z"/>
</g>
<g>
	<path d="M216.4,6.8h-2v3.3c0,0.2,0,0.4,0,0.6c0,0.2,0.1,0.4,0.1,0.5s0.2,0.2,0.3,0.3s0.3,0.1,0.6,0.1c0.2,0,0.3,0,0.5-0.1
		s0.3-0.1,0.5-0.2l0,1c-0.2,0.1-0.4,0.1-0.6,0.2c-0.2,0-0.4,0.1-0.7,0.1c-0.4,0-0.7-0.1-0.9-0.2c-0.2-0.1-0.4-0.2-0.6-0.4
		s-0.2-0.4-0.3-0.7s-0.1-0.6-0.1-0.9V6.8h-1.4V5.8h1.4V3.9h1.1v1.9h2L216.4,6.8L216.4,6.8z"/>
	<path d="M217.4,9.1c0-0.5,0.1-1,0.3-1.4c0.2-0.4,0.4-0.8,0.7-1.1c0.3-0.3,0.7-0.5,1.1-0.7c0.4-0.2,0.9-0.3,1.4-0.3s1,0.1,1.4,0.3
		c0.4,0.2,0.8,0.4,1.1,0.7c0.3,0.3,0.6,0.7,0.7,1.1c0.2,0.4,0.3,0.9,0.3,1.4s-0.1,1-0.3,1.4s-0.4,0.8-0.7,1.1
		c-0.3,0.3-0.7,0.6-1.1,0.7s-0.9,0.2-1.4,0.2s-1-0.1-1.4-0.2s-0.8-0.4-1.1-0.7s-0.6-0.7-0.7-1.1S217.4,9.7,217.4,9.1z M218.6,9.1
		c0,0.4,0.1,0.7,0.2,1s0.3,0.6,0.5,0.8s0.5,0.4,0.7,0.5s0.6,0.2,1,0.2s0.7-0.1,1-0.2c0.3-0.1,0.5-0.3,0.7-0.5
		c0.2-0.2,0.4-0.5,0.5-0.8c0.1-0.3,0.2-0.6,0.2-1s-0.1-0.7-0.2-1s-0.3-0.6-0.5-0.8c-0.2-0.2-0.5-0.4-0.7-0.5c-0.3-0.1-0.6-0.2-1-0.2
		s-0.7,0.1-1,0.2c-0.3,0.1-0.5,0.3-0.7,0.5c-0.2,0.2-0.4,0.5-0.5,0.8C218.6,8.5,218.6,8.8,218.6,9.1z"/>
	<path d="M226.1,5.8h1.1v1h0c0.3-0.4,0.6-0.6,1.1-0.8s0.8-0.3,1.3-0.3c0.5,0,1,0.1,1.4,0.3s0.8,0.4,1.1,0.7s0.5,0.7,0.7,1.1
		c0.2,0.4,0.3,0.9,0.3,1.4s-0.1,1-0.3,1.4s-0.4,0.8-0.7,1.1s-0.6,0.6-1.1,0.7s-0.8,0.3-1.3,0.3c-0.6,0-1.1-0.1-1.6-0.4
		c-0.4-0.3-0.8-0.6-1-1h0v4.4h-1.1V5.8z M227.2,9.1c0,0.4,0.1,0.7,0.2,1s0.3,0.6,0.5,0.8s0.5,0.4,0.7,0.5s0.6,0.2,1,0.2
		s0.7-0.1,1-0.2s0.5-0.3,0.7-0.5s0.4-0.5,0.5-0.8s0.2-0.6,0.2-1s-0.1-0.7-0.2-1s-0.3-0.6-0.5-0.8c-0.2-0.2-0.5-0.4-0.7-0.5
		c-0.3-0.1-0.6-0.2-1-0.2s-0.7,0.1-1,0.2c-0.3,0.1-0.5,0.3-0.7,0.5c-0.2,0.2-0.4,0.5-0.5,0.8C227.3,8.5,227.2,8.8,227.2,9.1z"/>
	<path d="M238.4,9.1c0-0.5,0.1-1,0.3-1.4c0.2-0.4,0.4-0.8,0.7-1.1c0.3-0.3,0.7-0.5,1.1-0.7c0.4-0.2,0.9-0.3,1.4-0.3s1,0.1,1.4,0.3
		c0.4,0.2,0.8,0.4,1.1,0.7c0.3,0.3,0.6,0.7,0.7,1.1c0.2,0.4,0.3,0.9,0.3,1.4s-0.1,1-0.3,1.4s-0.4,0.8-0.7,1.1
		c-0.3,0.3-0.7,0.6-1.1,0.7s-0.9,0.2-1.4,0.2s-1-0.1-1.4-0.2s-0.8-0.4-1.1-0.7s-0.6-0.7-0.7-1.1S238.4,9.7,238.4,9.1z M239.6,9.1
		c0,0.4,0.1,0.7,0.2,1s0.3,0.6,0.5,0.8s0.5,0.4,0.7,0.5s0.6,0.2,1,0.2s0.7-0.1,1-0.2c0.3-0.1,0.5-0.3,0.7-0.5
		c0.2-0.2,0.4-0.5,0.5-0.8c0.1-0.3,0.2-0.6,0.2-1s-0.1-0.7-0.2-1s-0.3-0.6-0.5-0.8c-0.2-0.2-0.5-0.4-0.7-0.5c-0.3-0.1-0.6-0.2-1-0.2
		s-0.7,0.1-1,0.2c-0.3,0.1-0.5,0.3-0.7,0.5c-0.2,0.2-0.4,0.5-0.5,0.8C239.7,8.5,239.6,8.8,239.6,9.1z"/>
	<path d="M247.8,6.8h-1.4V5.8h1.4V4.3c0-0.4,0-0.8,0.1-1.1c0.1-0.3,0.2-0.6,0.4-0.9c0.2-0.2,0.4-0.4,0.7-0.6s0.7-0.2,1.1-0.2
		c0.1,0,0.3,0,0.4,0s0.3,0.1,0.4,0.1l-0.2,1c-0.3-0.1-0.5-0.1-0.8-0.1c-0.3,0-0.5,0-0.7,0.2c-0.2,0.1-0.3,0.2-0.4,0.4
		s-0.1,0.4-0.1,0.6s0,0.5,0,0.8v1.2h1.6v0.9h-1.6v5.7h-1.1L247.8,6.8L247.8,6.8z"/>
	<path d="M252.1,6.8h-1.4V5.8h1.4V4.3c0-0.4,0-0.8,0.1-1.1c0.1-0.3,0.2-0.6,0.4-0.9c0.2-0.2,0.4-0.4,0.7-0.6s0.7-0.2,1.1-0.2
		c0.1,0,0.3,0,0.4,0s0.3,0.1,0.4,0.1l-0.2,1c-0.3-0.1-0.5-0.1-0.8-0.1c-0.3,0-0.5,0-0.7,0.2c-0.2,0.1-0.3,0.2-0.4,0.4
		s-0.1,0.4-0.1,0.6s0,0.5,0,0.8v1.2h1.6v0.9h-1.6v5.7H252L252.1,6.8L252.1,6.8z"/>
	<path d="M256.1,10.7c0.2,0.3,0.5,0.5,0.7,0.6s0.6,0.2,1,0.2c0.2,0,0.3,0,0.5-0.1s0.3-0.1,0.5-0.2s0.2-0.2,0.3-0.3
		c0.1-0.1,0.1-0.3,0.1-0.5s0-0.3-0.1-0.4s-0.2-0.2-0.3-0.3s-0.3-0.1-0.5-0.2c-0.2-0.1-0.3-0.1-0.5-0.1c-0.3-0.1-0.6-0.1-0.9-0.2
		s-0.5-0.2-0.7-0.3s-0.4-0.3-0.5-0.5c-0.1-0.2-0.2-0.5-0.2-0.8c0-0.3,0.1-0.6,0.2-0.8s0.3-0.4,0.6-0.6c0.2-0.2,0.5-0.3,0.8-0.4
		c0.3-0.1,0.6-0.1,0.9-0.1c0.5,0,0.9,0.1,1.3,0.3s0.7,0.5,0.9,0.9l-0.9,0.6c-0.1-0.2-0.3-0.4-0.6-0.6s-0.5-0.2-0.8-0.2
		c-0.1,0-0.3,0-0.5,0.1s-0.3,0.1-0.4,0.2c-0.1,0.1-0.2,0.2-0.3,0.3s-0.1,0.2-0.1,0.4c0,0.1,0,0.3,0.1,0.4s0.2,0.2,0.4,0.3
		c0.2,0.1,0.3,0.1,0.5,0.2s0.4,0.1,0.6,0.1c0.3,0.1,0.6,0.1,0.8,0.2s0.5,0.2,0.7,0.4s0.4,0.3,0.5,0.6c0.1,0.2,0.2,0.5,0.2,0.8
		c0,0.4-0.1,0.7-0.2,1c-0.1,0.3-0.4,0.5-0.6,0.6s-0.5,0.3-0.9,0.4c-0.3,0.1-0.6,0.1-1,0.1c-0.6,0-1.1-0.1-1.5-0.3s-0.8-0.5-1.1-1
		L256.1,10.7L256.1,10.7z"/>
	<path d="M267.9,11.2c-0.4,0.5-0.8,0.9-1.3,1.1s-1,0.3-1.6,0.3c-0.5,0-1-0.1-1.4-0.3s-0.8-0.4-1.1-0.7c-0.3-0.3-0.5-0.7-0.7-1.1
		c-0.2-0.4-0.2-0.9-0.2-1.4c0-0.5,0.1-1,0.2-1.4c0.2-0.4,0.4-0.8,0.7-1.1s0.7-0.5,1.1-0.7c0.4-0.2,0.9-0.3,1.4-0.3
		c0.5,0,0.9,0.1,1.3,0.2c0.4,0.2,0.7,0.4,1,0.7c0.3,0.3,0.5,0.7,0.6,1.1s0.2,0.9,0.2,1.5v0.4h-5.4c0,0.3,0.1,0.6,0.2,0.8
		s0.3,0.5,0.5,0.7c0.2,0.2,0.4,0.4,0.7,0.5c0.2,0.1,0.5,0.2,0.8,0.2c0.5,0,0.9-0.1,1.2-0.2s0.6-0.4,0.9-0.8L267.9,11.2L267.9,11.2z
		 M267,8.5c0-0.6-0.2-1-0.5-1.4c-0.4-0.3-0.8-0.5-1.5-0.5s-1.1,0.2-1.5,0.5s-0.6,0.8-0.7,1.4H267L267,8.5z"/>
	<path d="M273.5,6.8h-2v3.3c0,0.2,0,0.4,0,0.6c0,0.2,0,0.4,0.1,0.5s0.2,0.2,0.3,0.3c0.1,0.1,0.3,0.1,0.6,0.1c0.2,0,0.3,0,0.5-0.1
		s0.3-0.1,0.5-0.2l0,1c-0.2,0.1-0.4,0.1-0.6,0.2c-0.2,0-0.5,0.1-0.7,0.1c-0.4,0-0.7-0.1-1-0.2c-0.2-0.1-0.4-0.2-0.5-0.4
		c-0.1-0.2-0.2-0.4-0.3-0.7s-0.1-0.6-0.1-0.9V6.8H269V5.8h1.5V3.9h1.1v1.9h2L273.5,6.8L273.5,6.8z"/>
</g>
<g>
	<path d="M344.4,284.2c0-0.3,0-0.6,0-0.9c0-0.3,0-0.5,0-0.7h1c0,0.2,0,0.4,0,0.5c0,0.2,0,0.4,0,0.5h0c0.1-0.2,0.2-0.3,0.3-0.5
		s0.3-0.3,0.5-0.4c0.2-0.1,0.4-0.2,0.6-0.3c0.2-0.1,0.5-0.1,0.8-0.1c0.4,0,0.8,0.1,1.1,0.2s0.6,0.3,0.8,0.5s0.4,0.5,0.5,0.9
		s0.1,0.7,0.1,1.1v4.1h-1.1v-4c0-0.6-0.1-1-0.4-1.3s-0.6-0.5-1.1-0.5c-0.4,0-0.7,0.1-0.9,0.2c-0.3,0.1-0.5,0.3-0.6,0.5
		c-0.2,0.2-0.3,0.5-0.4,0.8s-0.1,0.7-0.1,1v3.2h-1.1L344.4,284.2L344.4,284.2z"/>
	<path d="M352.2,283.5c0.3-0.4,0.7-0.6,1.2-0.8s0.9-0.2,1.4-0.2c1,0,1.7,0.2,2.1,0.7s0.6,1.2,0.6,2.1v2.9c0,0.2,0,0.4,0,0.6
		s0,0.4,0.1,0.6h-1.1c0-0.1-0.1-0.3-0.1-0.5s0-0.4,0-0.5h0c-0.2,0.3-0.5,0.6-0.9,0.8s-0.8,0.3-1.3,0.3c-0.3,0-0.7,0-1-0.1
		s-0.6-0.2-0.8-0.4s-0.4-0.4-0.5-0.6s-0.2-0.5-0.2-0.9c0-0.5,0.1-1,0.4-1.3c0.3-0.3,0.6-0.5,1.1-0.7c0.4-0.1,0.9-0.2,1.4-0.3
		s0.9-0.1,1.3-0.1h0.4V285c0-0.5-0.1-0.9-0.4-1.1c-0.3-0.2-0.7-0.4-1.2-0.4c-0.4,0-0.7,0.1-1.1,0.2s-0.6,0.3-0.9,0.5L352.2,283.5
		L352.2,283.5z M355.4,286.1c-0.7,0-1.3,0.1-1.7,0.3c-0.4,0.2-0.6,0.5-0.6,1c0,0.4,0.1,0.7,0.4,0.9c0.3,0.2,0.6,0.3,1,0.3
		c0.3,0,0.6,0,0.8-0.2c0.2-0.1,0.4-0.2,0.6-0.4s0.3-0.4,0.4-0.6s0.1-0.5,0.1-0.8v-0.4L355.4,286.1L355.4,286.1z"/>
	<path d="M359.6,284.2c0-0.3,0-0.6,0-0.9c0-0.3,0-0.5,0-0.7h1c0,0.2,0,0.4,0,0.5c0,0.2,0,0.4,0,0.5h0c0.1-0.2,0.2-0.3,0.3-0.5
		s0.3-0.3,0.5-0.4c0.2-0.1,0.4-0.2,0.6-0.3c0.2-0.1,0.5-0.1,0.8-0.1c0.4,0,0.7,0,0.9,0.1s0.4,0.2,0.6,0.3c0.2,0.1,0.3,0.3,0.4,0.4
		s0.2,0.3,0.2,0.4c0.2-0.4,0.5-0.7,0.9-0.9s0.7-0.3,1.2-0.3c0.5,0,0.9,0.1,1.2,0.2s0.6,0.3,0.8,0.5s0.3,0.5,0.4,0.9s0.1,0.7,0.1,1.1
		v4h-1.1v-4c0-0.2,0-0.5-0.1-0.7c0-0.2-0.1-0.4-0.2-0.6c-0.1-0.2-0.3-0.3-0.5-0.4s-0.5-0.2-0.8-0.2c-0.2,0-0.5,0-0.7,0.1
		c-0.2,0.1-0.4,0.2-0.5,0.4s-0.3,0.4-0.4,0.6s-0.1,0.5-0.1,0.8v3.8h-1.1v-3.8c0-0.7-0.1-1.3-0.3-1.6c-0.2-0.3-0.5-0.5-1-0.5
		c-0.4,0-0.7,0.1-0.9,0.2c-0.3,0.1-0.5,0.3-0.6,0.5c-0.2,0.2-0.3,0.5-0.4,0.8s-0.1,0.7-0.1,1v3.2h-1.1L359.6,284.2L359.6,284.2z"/>
	<path d="M377.6,288.1c-0.4,0.5-0.8,0.9-1.3,1.1s-1,0.3-1.6,0.3c-0.5,0-1-0.1-1.4-0.3c-0.4-0.2-0.8-0.4-1.1-0.7s-0.5-0.7-0.7-1.1
		c-0.2-0.4-0.2-0.9-0.2-1.4c0-0.5,0.1-1,0.2-1.4s0.4-0.8,0.7-1.1s0.7-0.5,1.1-0.7s0.9-0.2,1.4-0.2c0.5,0,0.9,0.1,1.3,0.2
		c0.4,0.2,0.7,0.4,1,0.7s0.5,0.7,0.6,1.1c0.1,0.4,0.2,0.9,0.2,1.5v0.4h-5.4c0,0.3,0.1,0.6,0.2,0.8s0.3,0.5,0.5,0.7s0.4,0.4,0.7,0.5
		c0.2,0.1,0.5,0.2,0.8,0.2c0.5,0,0.9-0.1,1.2-0.2s0.6-0.4,0.9-0.8L377.6,288.1L377.6,288.1z M376.7,285.4c0-0.6-0.2-1-0.5-1.4
		c-0.4-0.3-0.8-0.5-1.5-0.5s-1.1,0.2-1.5,0.5s-0.6,0.8-0.7,1.4H376.7L376.7,285.4z"/>
	<path d="M344.5,298.9c0.2,0.3,0.5,0.5,0.7,0.6s0.6,0.2,1,0.2c0.2,0,0.3,0,0.5-0.1s0.3-0.1,0.5-0.2s0.2-0.2,0.3-0.3
		c0.1-0.1,0.1-0.3,0.1-0.5s0-0.3-0.1-0.4s-0.2-0.2-0.3-0.3c-0.1-0.1-0.3-0.1-0.5-0.2s-0.3-0.1-0.5-0.1c-0.3-0.1-0.6-0.1-0.9-0.2
		s-0.5-0.2-0.7-0.3s-0.4-0.3-0.5-0.5s-0.2-0.5-0.2-0.8c0-0.3,0.1-0.6,0.2-0.9c0.1-0.2,0.3-0.5,0.6-0.6c0.2-0.2,0.5-0.3,0.8-0.4
		c0.3-0.1,0.6-0.1,0.9-0.1c0.5,0,0.9,0.1,1.3,0.3s0.7,0.5,0.9,0.9l-0.9,0.6c-0.1-0.2-0.3-0.4-0.6-0.6s-0.5-0.2-0.8-0.2
		c-0.1,0-0.3,0-0.5,0.1s-0.3,0.1-0.4,0.2c-0.1,0.1-0.2,0.2-0.3,0.3s-0.1,0.2-0.1,0.4c0,0.1,0,0.3,0.1,0.4c0.1,0.1,0.2,0.2,0.4,0.3
		c0.2,0.1,0.3,0.1,0.5,0.2s0.4,0.1,0.6,0.1c0.3,0.1,0.6,0.1,0.8,0.2s0.5,0.2,0.7,0.4s0.4,0.3,0.5,0.6c0.1,0.2,0.2,0.5,0.2,0.8
		c0,0.4-0.1,0.7-0.2,1c-0.1,0.3-0.4,0.5-0.6,0.6c-0.2,0.2-0.5,0.3-0.9,0.4c-0.3,0.1-0.6,0.1-1,0.1c-0.6,0-1.1-0.1-1.5-0.3
		s-0.8-0.5-1.1-1L344.5,298.9L344.5,298.9z"/>
	<path d="M350.4,294h1.1v1h0c0.3-0.4,0.6-0.6,1.1-0.8s0.8-0.3,1.3-0.3c0.5,0,1,0.1,1.4,0.3c0.4,0.2,0.8,0.4,1.1,0.7
		c0.3,0.3,0.5,0.7,0.7,1.1c0.2,0.4,0.3,0.9,0.3,1.4s-0.1,1-0.3,1.4s-0.4,0.8-0.7,1.1s-0.6,0.5-1.1,0.7s-0.8,0.3-1.3,0.3
		c-0.6,0-1.1-0.1-1.6-0.4s-0.8-0.6-1-1h0v4.4h-1.1V294L350.4,294z M351.5,297.3c0,0.4,0,0.7,0.2,1s0.3,0.6,0.5,0.8s0.5,0.4,0.7,0.5
		s0.6,0.2,1,0.2s0.7-0.1,1-0.2s0.5-0.3,0.7-0.5s0.4-0.5,0.5-0.8c0.1-0.3,0.2-0.6,0.2-1s0-0.7-0.2-1c-0.1-0.3-0.3-0.6-0.5-0.8
		c-0.2-0.2-0.5-0.4-0.7-0.5c-0.3-0.1-0.6-0.2-1-0.2s-0.7,0.1-1,0.2s-0.5,0.3-0.7,0.5c-0.2,0.2-0.4,0.5-0.5,0.8
		C351.5,296.6,351.5,297,351.5,297.3z"/>
	<path d="M359,294.8c0.3-0.4,0.7-0.6,1.2-0.8c0.5-0.2,0.9-0.2,1.4-0.2c1,0,1.7,0.2,2.1,0.7c0.4,0.5,0.6,1.2,0.6,2.1v2.9
		c0,0.2,0,0.4,0,0.6c0,0.2,0,0.4,0.1,0.6h-1.1c0-0.1-0.1-0.3-0.1-0.5s0-0.4,0-0.5h0c-0.2,0.3-0.5,0.6-0.9,0.8s-0.8,0.3-1.3,0.3
		c-0.3,0-0.7,0-1-0.1s-0.6-0.2-0.8-0.4s-0.4-0.4-0.5-0.6s-0.2-0.5-0.2-0.9c0-0.5,0.1-1,0.4-1.3c0.3-0.3,0.6-0.5,1.1-0.7
		c0.4-0.1,0.9-0.2,1.4-0.3c0.5,0,0.9-0.1,1.3-0.1h0.4v-0.2c0-0.5-0.1-0.9-0.4-1.1c-0.3-0.2-0.7-0.4-1.2-0.4c-0.4,0-0.7,0.1-1.1,0.2
		s-0.6,0.3-0.9,0.5L359,294.8L359,294.8z M362.2,297.4c-0.7,0-1.3,0.1-1.7,0.3c-0.4,0.2-0.6,0.5-0.6,1c0,0.4,0.1,0.7,0.4,0.9
		c0.3,0.2,0.6,0.3,1,0.3c0.3,0,0.6,0,0.8-0.2c0.2-0.1,0.4-0.2,0.6-0.4s0.3-0.4,0.4-0.6c0.1-0.2,0.1-0.5,0.1-0.8v-0.4L362.2,297.4
		L362.2,297.4z"/>
	<path d="M371.2,295.6c-0.2-0.3-0.5-0.5-0.8-0.6c-0.3-0.1-0.6-0.2-0.9-0.2c-0.4,0-0.7,0.1-1,0.2c-0.3,0.1-0.5,0.3-0.7,0.5
		c-0.2,0.2-0.3,0.5-0.4,0.8c-0.1,0.3-0.1,0.6-0.1,1s0,0.7,0.2,1s0.3,0.6,0.5,0.8s0.4,0.4,0.7,0.5s0.6,0.2,0.9,0.2
		c0.7,0,1.3-0.3,1.7-0.8l0.8,0.8c-0.3,0.4-0.7,0.6-1.1,0.8s-0.9,0.2-1.4,0.2c-0.5,0-1-0.1-1.4-0.2c-0.4-0.2-0.8-0.4-1.1-0.7
		c-0.3-0.3-0.5-0.7-0.7-1.1c-0.2-0.4-0.2-0.9-0.2-1.4s0.1-1,0.2-1.4c0.2-0.4,0.4-0.8,0.7-1.1c0.3-0.3,0.7-0.5,1.1-0.7
		c0.4-0.2,0.9-0.3,1.4-0.3s1,0.1,1.4,0.3c0.4,0.2,0.8,0.4,1.2,0.8L371.2,295.6L371.2,295.6z"/>
	<path d="M379.2,299.4c-0.4,0.5-0.8,0.9-1.3,1.1s-1,0.3-1.6,0.3c-0.5,0-1-0.1-1.4-0.3s-0.8-0.4-1.1-0.7s-0.5-0.7-0.7-1.1
		c-0.2-0.4-0.2-0.9-0.2-1.4c0-0.5,0.1-1,0.2-1.4s0.4-0.8,0.7-1.1s0.7-0.5,1.1-0.7c0.4-0.2,0.9-0.3,1.4-0.3c0.5,0,0.9,0.1,1.3,0.2
		c0.4,0.2,0.7,0.4,1,0.7s0.5,0.7,0.6,1.1s0.2,0.9,0.2,1.5v0.4h-5.4c0,0.3,0.1,0.5,0.2,0.8s0.3,0.5,0.5,0.7s0.4,0.4,0.7,0.5
		c0.2,0.1,0.5,0.2,0.8,0.2c0.5,0,0.9-0.1,1.2-0.2s0.6-0.4,0.9-0.8L379.2,299.4L379.2,299.4z M378.3,296.7c0-0.6-0.2-1-0.5-1.4
		c-0.4-0.3-0.8-0.5-1.5-0.5s-1.1,0.2-1.5,0.5s-0.6,0.8-0.7,1.4H378.3L378.3,296.7z"/>
</g>
<g>
	<path d="M179.3,158c0-0.3,0-0.6,0-0.9c0-0.3,0-0.5,0-0.7h1.1c0,0.2,0,0.4,0,0.5c0,0.2,0,0.4,0,0.6h0c0.1-0.2,0.2-0.3,0.3-0.5
		c0.1-0.1,0.3-0.3,0.5-0.4c0.2-0.1,0.4-0.2,0.6-0.3c0.2-0.1,0.5-0.1,0.8-0.1c0.4,0,0.8,0.1,1.1,0.2c0.3,0.1,0.6,0.3,0.8,0.6
		s0.4,0.5,0.5,0.9s0.1,0.7,0.1,1.1v4.1H184v-4c0-0.6-0.1-1-0.4-1.3s-0.6-0.5-1.1-0.5c-0.4,0-0.7,0.1-0.9,0.2s-0.5,0.3-0.6,0.5
		c-0.2,0.2-0.3,0.5-0.4,0.8s-0.1,0.7-0.1,1v3.2h-1.1L179.3,158L179.3,158z"/>
	<path d="M186.8,159.8c0-0.5,0.1-1,0.3-1.4c0.2-0.4,0.4-0.8,0.7-1.1c0.3-0.3,0.7-0.6,1.1-0.7s0.9-0.2,1.4-0.2s1,0.1,1.4,0.2
		s0.8,0.4,1.1,0.7s0.6,0.7,0.7,1.1c0.2,0.4,0.3,0.9,0.3,1.4s-0.1,1-0.3,1.4c-0.2,0.4-0.4,0.8-0.7,1.1c-0.3,0.3-0.7,0.6-1.1,0.7
		s-0.9,0.2-1.4,0.2s-1-0.1-1.4-0.2s-0.8-0.4-1.1-0.7s-0.6-0.7-0.7-1.1C186.9,160.8,186.8,160.3,186.8,159.8z M188,159.8
		c0,0.4,0.1,0.7,0.2,1s0.3,0.6,0.5,0.8c0.2,0.2,0.5,0.4,0.7,0.5c0.3,0.1,0.6,0.2,1,0.2s0.7-0.1,1-0.2c0.3-0.1,0.5-0.3,0.7-0.5
		c0.2-0.2,0.4-0.5,0.5-0.8c0.1-0.3,0.2-0.6,0.2-1s-0.1-0.7-0.2-1s-0.3-0.6-0.5-0.8c-0.2-0.2-0.5-0.4-0.7-0.5c-0.3-0.1-0.6-0.2-1-0.2
		s-0.7,0.1-1,0.2c-0.3,0.1-0.5,0.3-0.7,0.5c-0.2,0.2-0.4,0.5-0.5,0.8S188,159.4,188,159.8z"/>
	<path d="M195.8,152.4h1.1v10.7h-1.1V152.4z"/>
	<path d="M199.2,152.4h1.1v10.7h-1.1V152.4z"/>
	<path d="M202.4,157.3c0.3-0.4,0.7-0.6,1.2-0.8s0.9-0.2,1.4-0.2c1,0,1.7,0.2,2.1,0.7s0.6,1.2,0.6,2.1v2.9c0,0.2,0,0.4,0,0.6
		s0,0.4,0.1,0.6h-1.1c0-0.1-0.1-0.3-0.1-0.5s0-0.4,0-0.5h0c-0.2,0.3-0.5,0.6-0.9,0.8s-0.8,0.3-1.3,0.3c-0.3,0-0.7,0-1-0.1
		s-0.6-0.2-0.8-0.4s-0.4-0.4-0.5-0.6s-0.2-0.5-0.2-0.9c0-0.6,0.1-1,0.4-1.3c0.3-0.3,0.6-0.5,1.1-0.7c0.4-0.1,0.9-0.2,1.4-0.3
		s0.9-0.1,1.3-0.1h0.4v-0.2c0-0.5-0.1-0.9-0.4-1.1c-0.3-0.2-0.7-0.4-1.2-0.4c-0.4,0-0.7,0.1-1.1,0.2s-0.6,0.3-0.9,0.6L202.4,157.3
		L202.4,157.3z M205.6,159.9c-0.7,0-1.3,0.1-1.7,0.3s-0.6,0.5-0.6,1c0,0.4,0.1,0.7,0.4,0.9c0.3,0.2,0.6,0.3,1,0.3
		c0.3,0,0.6-0.1,0.8-0.2c0.2-0.1,0.4-0.2,0.6-0.4s0.3-0.4,0.4-0.6s0.1-0.5,0.1-0.8v-0.4L205.6,159.9L205.6,159.9z"/>
	<path d="M209.9,158c0-0.3,0-0.6,0-0.9c0-0.3,0-0.5,0-0.7h1.1c0,0.2,0,0.4,0,0.5c0,0.2,0,0.4,0,0.6h0c0.1-0.2,0.2-0.3,0.3-0.5
		c0.1-0.1,0.3-0.3,0.5-0.4c0.2-0.1,0.4-0.2,0.6-0.3c0.2-0.1,0.5-0.1,0.8-0.1c0.4,0,0.8,0.1,1.1,0.2c0.3,0.1,0.6,0.3,0.8,0.6
		s0.4,0.5,0.5,0.9s0.1,0.7,0.1,1.1v4.1h-1.1v-4c0-0.6-0.1-1-0.4-1.3s-0.6-0.5-1.1-0.5c-0.4,0-0.7,0.1-0.9,0.2s-0.5,0.3-0.6,0.5
		c-0.2,0.2-0.3,0.5-0.4,0.8s-0.1,0.7-0.1,1v3.2h-1.1L209.9,158L209.9,158z"/>
	<path d="M179.7,165.2c0-0.2,0.1-0.4,0.2-0.6c0.2-0.2,0.4-0.2,0.6-0.2s0.4,0.1,0.6,0.2c0.2,0.2,0.2,0.4,0.2,0.6
		c0,0.2-0.1,0.4-0.2,0.6c-0.1,0.1-0.4,0.2-0.6,0.2s-0.4-0.1-0.6-0.2S179.7,165.5,179.7,165.2L179.7,165.2z M180,167.8h1.1v6.6H180
		V167.8z"/>
	<path d="M183.3,169.4c0-0.3,0-0.6,0-0.9c0-0.3,0-0.5,0-0.7h1.1c0,0.2,0,0.4,0,0.5c0,0.2,0,0.4,0,0.6h0c0.1-0.2,0.2-0.3,0.3-0.5
		c0.1-0.1,0.3-0.3,0.5-0.4c0.2-0.1,0.4-0.2,0.6-0.3c0.2-0.1,0.5-0.1,0.8-0.1c0.4,0,0.8,0.1,1.1,0.2c0.3,0.1,0.6,0.3,0.8,0.6
		c0.2,0.2,0.4,0.5,0.5,0.9c0.1,0.3,0.1,0.7,0.1,1.1v4.1H188v-4c0-0.6-0.1-1-0.4-1.3s-0.6-0.5-1.1-0.5c-0.4,0-0.7,0.1-0.9,0.2
		s-0.5,0.3-0.6,0.5c-0.2,0.2-0.3,0.5-0.4,0.8s-0.1,0.7-0.1,1v3.2h-1.1L183.3,169.4L183.3,169.4z"/>
	<path d="M191.3,172.7c0.2,0.3,0.5,0.5,0.7,0.6c0.3,0.2,0.6,0.2,1,0.2c0.2,0,0.3,0,0.5-0.1s0.3-0.1,0.5-0.2s0.2-0.2,0.3-0.3
		c0.1-0.1,0.1-0.3,0.1-0.5s0-0.3-0.1-0.4s-0.2-0.2-0.3-0.3c-0.1-0.1-0.3-0.1-0.4-0.2s-0.3-0.1-0.5-0.1c-0.3-0.1-0.6-0.1-0.9-0.2
		s-0.5-0.2-0.7-0.3s-0.4-0.3-0.5-0.5c-0.1-0.2-0.2-0.5-0.2-0.8c0-0.3,0.1-0.6,0.2-0.9s0.3-0.4,0.6-0.6s0.5-0.3,0.8-0.4
		c0.3-0.1,0.6-0.1,0.9-0.1c0.5,0,0.9,0.1,1.3,0.3s0.7,0.5,0.9,0.9l-0.9,0.6c-0.1-0.2-0.3-0.4-0.6-0.6s-0.5-0.2-0.8-0.2
		c-0.1,0-0.3,0-0.5,0.1s-0.3,0.1-0.4,0.2c-0.1,0.1-0.2,0.2-0.3,0.3s-0.1,0.2-0.1,0.4c0,0.1,0,0.3,0.1,0.4c0.1,0.1,0.2,0.2,0.4,0.3
		c0.2,0.1,0.3,0.1,0.5,0.2s0.4,0.1,0.6,0.1c0.3,0.1,0.6,0.1,0.8,0.2s0.5,0.2,0.7,0.4s0.4,0.3,0.5,0.6c0.1,0.2,0.2,0.5,0.2,0.8
		c0,0.4-0.1,0.7-0.2,1c-0.1,0.3-0.4,0.5-0.6,0.6s-0.5,0.3-0.9,0.4c-0.3,0.1-0.6,0.1-1,0.1c-0.6,0-1.1-0.1-1.5-0.3s-0.8-0.5-1.1-1
		L191.3,172.7L191.3,172.7z"/>
	<path d="M197.1,165.2c0-0.2,0.1-0.4,0.2-0.6c0.2-0.2,0.4-0.2,0.6-0.2s0.4,0.1,0.6,0.2c0.2,0.2,0.2,0.4,0.2,0.6
		c0,0.2-0.1,0.4-0.2,0.6c-0.1,0.1-0.4,0.2-0.6,0.2s-0.4-0.1-0.6-0.2S197.1,165.5,197.1,165.2L197.1,165.2z M197.3,167.8h1.1v6.6
		h-1.1V167.8z"/>
	<path d="M206.2,173.3L206.2,173.3c-0.2,0.4-0.6,0.7-1,1c-0.4,0.3-1,0.4-1.6,0.4c-0.5,0-0.9-0.1-1.3-0.3s-0.8-0.4-1.1-0.7
		s-0.5-0.7-0.7-1.1c-0.2-0.4-0.2-0.9-0.2-1.4s0.1-1,0.2-1.4c0.2-0.4,0.4-0.8,0.7-1.1c0.3-0.3,0.7-0.6,1.1-0.7
		c0.4-0.2,0.9-0.3,1.4-0.3c0.5,0,0.9,0.1,1.3,0.3c0.4,0.2,0.8,0.5,1.1,0.8h0v-5h1.1v10.7h-1.1V173.3L206.2,173.3z M206.2,171.1
		c0-0.4-0.1-0.7-0.2-1s-0.3-0.6-0.5-0.8c-0.2-0.2-0.5-0.4-0.7-0.5c-0.3-0.1-0.6-0.2-1-0.2s-0.7,0.1-1,0.2c-0.3,0.1-0.5,0.3-0.7,0.5
		c-0.2,0.2-0.4,0.5-0.5,0.8c-0.1,0.3-0.2,0.6-0.2,1s0.1,0.7,0.2,1s0.3,0.6,0.5,0.8s0.5,0.4,0.7,0.5s0.6,0.2,1,0.2s0.7-0.1,1-0.2
		c0.3-0.1,0.5-0.3,0.7-0.5c0.2-0.2,0.4-0.5,0.5-0.8C206.1,171.8,206.2,171.5,206.2,171.1z"/>
	<path d="M215.2,173.2c-0.4,0.5-0.8,0.9-1.3,1.1s-1,0.3-1.6,0.3c-0.5,0-1-0.1-1.4-0.3s-0.8-0.4-1.1-0.7c-0.3-0.3-0.5-0.7-0.7-1.1
		c-0.2-0.4-0.2-0.9-0.2-1.4c0-0.5,0.1-1,0.2-1.4c0.2-0.4,0.4-0.8,0.7-1.1s0.7-0.5,1.1-0.7c0.4-0.2,0.9-0.3,1.4-0.3
		c0.5,0,0.9,0.1,1.3,0.2c0.4,0.2,0.7,0.4,1,0.7c0.3,0.3,0.5,0.7,0.6,1.1s0.2,0.9,0.2,1.5v0.4h-5.4c0,0.3,0.1,0.6,0.2,0.8
		c0.1,0.3,0.3,0.5,0.5,0.7c0.2,0.2,0.4,0.4,0.7,0.5c0.2,0.1,0.5,0.2,0.8,0.2c0.5,0,0.9-0.1,1.2-0.2s0.6-0.4,0.9-0.8L215.2,173.2
		L215.2,173.2z M214.3,170.5c0-0.6-0.2-1-0.6-1.4s-0.8-0.5-1.4-0.5s-1.1,0.2-1.5,0.5s-0.6,0.8-0.7,1.4H214.3z"/>
</g>
<g>
	<path d="M211.2,55.5h-2v3.3c0,0.2,0,0.4,0,0.6c0,0.2,0.1,0.3,0.1,0.5c0.1,0.1,0.2,0.2,0.3,0.3s0.3,0.1,0.6,0.1c0.2,0,0.3,0,0.5-0.1
		s0.3-0.1,0.5-0.2l0,1c-0.2,0.1-0.4,0.2-0.6,0.2c-0.2,0-0.4,0.1-0.7,0.1c-0.4,0-0.7,0-0.9-0.2c-0.2-0.1-0.4-0.2-0.6-0.4
		s-0.2-0.4-0.3-0.7c0-0.3-0.1-0.6-0.1-0.9v-3.6h-1.4v-0.9h1.4v-1.9h1.1v1.9h2L211.2,55.5L211.2,55.5z"/>
	<path d="M212.1,57.8c0-0.5,0.1-1,0.3-1.4c0.2-0.4,0.4-0.8,0.7-1.1c0.3-0.3,0.7-0.5,1.1-0.7s0.9-0.2,1.4-0.2s1,0.1,1.4,0.2
		s0.8,0.4,1.1,0.7s0.6,0.7,0.7,1.1c0.2,0.4,0.3,0.9,0.3,1.4s-0.1,1-0.3,1.4c-0.2,0.4-0.4,0.8-0.7,1.1c-0.3,0.3-0.7,0.5-1.1,0.7
		s-0.9,0.2-1.4,0.2s-1-0.1-1.4-0.2s-0.8-0.4-1.1-0.7s-0.6-0.7-0.7-1.1C212.2,58.8,212.1,58.3,212.1,57.8z M213.3,57.8
		c0,0.3,0.1,0.7,0.2,1c0.1,0.3,0.3,0.6,0.5,0.8c0.2,0.2,0.5,0.4,0.7,0.5c0.3,0.1,0.6,0.2,1,0.2s0.7-0.1,1-0.2
		c0.3-0.1,0.5-0.3,0.7-0.5c0.2-0.2,0.4-0.5,0.5-0.8c0.1-0.3,0.2-0.6,0.2-1s-0.1-0.7-0.2-1c-0.1-0.3-0.3-0.6-0.5-0.8
		c-0.2-0.2-0.5-0.4-0.7-0.5c-0.3-0.1-0.6-0.2-1-0.2s-0.7,0.1-1,0.2c-0.3,0.1-0.5,0.3-0.7,0.5c-0.2,0.2-0.4,0.5-0.5,0.8
		S213.3,57.5,213.3,57.8z"/>
	<path d="M220.9,54.5h1.1v1h0c0.3-0.4,0.6-0.6,1.1-0.8c0.4-0.2,0.8-0.3,1.3-0.3c0.5,0,1,0.1,1.4,0.3s0.8,0.4,1.1,0.7
		s0.5,0.7,0.7,1.1c0.2,0.4,0.3,0.9,0.3,1.4s-0.1,1-0.3,1.4s-0.4,0.8-0.7,1.1c-0.3,0.3-0.6,0.6-1.1,0.7s-0.8,0.3-1.3,0.3
		c-0.6,0-1.1-0.1-1.6-0.4c-0.4-0.3-0.8-0.6-1-1h0v4.4h-1.1C220.9,64.4,220.9,54.5,220.9,54.5z M222,57.8c0,0.3,0.1,0.7,0.2,1
		c0.1,0.3,0.3,0.6,0.5,0.8c0.2,0.2,0.5,0.4,0.7,0.5c0.3,0.1,0.6,0.2,1,0.2s0.7-0.1,1-0.2c0.3-0.1,0.5-0.3,0.7-0.5
		c0.2-0.2,0.4-0.5,0.5-0.8s0.2-0.6,0.2-1s-0.1-0.7-0.2-1c-0.1-0.3-0.3-0.6-0.5-0.8c-0.2-0.2-0.5-0.4-0.7-0.5c-0.3-0.1-0.6-0.2-1-0.2
		s-0.7,0.1-1,0.2c-0.3,0.1-0.5,0.3-0.7,0.5c-0.2,0.2-0.4,0.5-0.5,0.8S222,57.5,222,57.8z"/>
	<path d="M207.5,67.4c0-0.3,0-0.6,0-0.8c0-0.3,0-0.5,0-0.7h1.1c0,0.2,0,0.4,0,0.5c0,0.2,0,0.4,0,0.6h0c0.1-0.2,0.2-0.3,0.3-0.5
		c0.1-0.2,0.3-0.3,0.5-0.4c0.2-0.1,0.4-0.2,0.6-0.3s0.5-0.1,0.8-0.1c0.4,0,0.7,0,0.9,0.1c0.2,0.1,0.4,0.2,0.6,0.3
		c0.2,0.1,0.3,0.3,0.4,0.4s0.2,0.3,0.2,0.4c0.2-0.4,0.5-0.7,0.9-0.9s0.7-0.3,1.2-0.3c0.5,0,0.9,0.1,1.2,0.2c0.3,0.1,0.6,0.3,0.8,0.6
		c0.2,0.2,0.3,0.5,0.4,0.9s0.1,0.7,0.1,1.2v4h-1.1v-4c0-0.2,0-0.4-0.1-0.7s-0.1-0.4-0.2-0.6s-0.3-0.3-0.5-0.4
		c-0.2-0.1-0.5-0.2-0.8-0.2c-0.2,0-0.5,0.1-0.7,0.1c-0.2,0.1-0.4,0.2-0.6,0.4s-0.3,0.4-0.4,0.6c-0.1,0.2-0.1,0.5-0.1,0.8v3.8H212
		v-3.8c0-0.7-0.1-1.3-0.3-1.6s-0.5-0.5-1-0.5c-0.4,0-0.7,0.1-0.9,0.2s-0.5,0.3-0.6,0.5c-0.2,0.2-0.3,0.5-0.4,0.8s-0.1,0.7-0.1,1v3.2
		h-1.1L207.5,67.4L207.5,67.4z"/>
	<path d="M219.5,66.7c0.3-0.3,0.7-0.6,1.2-0.8c0.5-0.2,0.9-0.2,1.4-0.2c1,0,1.7,0.2,2.1,0.7c0.4,0.5,0.6,1.2,0.6,2.1v2.8
		c0,0.2,0,0.4,0,0.6c0,0.2,0,0.4,0.1,0.6H224c0-0.2-0.1-0.3-0.1-0.5s0-0.3,0-0.5h0c-0.2,0.3-0.5,0.6-0.9,0.8
		c-0.4,0.2-0.8,0.3-1.3,0.3c-0.3,0-0.7,0-1-0.1s-0.6-0.2-0.8-0.4s-0.4-0.4-0.5-0.6s-0.2-0.5-0.2-0.8c0-0.6,0.1-1,0.4-1.3
		c0.3-0.3,0.6-0.5,1.1-0.7c0.4-0.2,0.9-0.2,1.4-0.3c0.5,0,0.9-0.1,1.3-0.1h0.4v-0.2c0-0.5-0.1-0.8-0.4-1.1c-0.3-0.2-0.7-0.4-1.2-0.4
		c-0.4,0-0.7,0.1-1.1,0.2s-0.6,0.3-0.9,0.5L219.5,66.7L219.5,66.7z M222.7,69.3c-0.7,0-1.3,0.1-1.7,0.3c-0.4,0.2-0.6,0.5-0.6,1
		c0,0.4,0.1,0.7,0.4,0.9c0.3,0.2,0.6,0.3,1,0.3c0.3,0,0.6-0.1,0.8-0.2c0.2-0.1,0.4-0.2,0.6-0.4s0.3-0.4,0.4-0.6
		c0.1-0.2,0.1-0.5,0.1-0.8v-0.4L222.7,69.3L222.7,69.3z"/>
	<path d="M227,67.4c0-0.3,0-0.6,0-0.8c0-0.3,0-0.5,0-0.7h1.1c0,0.2,0,0.4,0,0.5c0,0.2,0,0.4,0,0.6h0c0.1-0.2,0.2-0.3,0.3-0.5
		c0.1-0.2,0.3-0.3,0.5-0.4c0.2-0.1,0.4-0.2,0.6-0.3s0.5-0.1,0.8-0.1c0.1,0,0.1,0,0.2,0c0.1,0,0.1,0,0.2,0.1l-0.1,1.1
		c-0.2-0.1-0.4-0.1-0.6-0.1c-0.7,0-1.2,0.2-1.5,0.7s-0.5,1-0.5,1.8v3.2H227L227,67.4L227,67.4z"/>
	<path d="M238.4,72.2c0,1.2-0.3,2.1-0.9,2.8c-0.6,0.6-1.5,0.9-2.7,0.9c-0.6,0-1.2-0.1-1.8-0.3c-0.5-0.2-1-0.5-1.5-1l0.8-0.9
		c0.4,0.4,0.7,0.7,1.1,0.9c0.4,0.2,0.8,0.3,1.4,0.3s0.9-0.1,1.2-0.2s0.6-0.3,0.8-0.6c0.2-0.2,0.3-0.5,0.4-0.9c0.1-0.3,0.1-0.7,0.1-1
		v-0.8h0c-0.3,0.4-0.6,0.7-1,0.9c-0.4,0.2-0.9,0.3-1.3,0.3c-0.5,0-1-0.1-1.4-0.2s-0.8-0.4-1.1-0.7c-0.3-0.3-0.6-0.7-0.7-1.1
		s-0.2-0.9-0.2-1.4c0-0.5,0.1-1,0.2-1.5s0.4-0.8,0.7-1.1c0.3-0.3,0.7-0.5,1.1-0.7c0.4-0.2,0.9-0.2,1.4-0.2c0.2,0,0.4,0,0.7,0.1
		s0.4,0.1,0.7,0.2s0.4,0.2,0.6,0.4s0.3,0.4,0.4,0.6h0v-1.1h1.1L238.4,72.2L238.4,72.2z M232.6,69.2c0,0.3,0.1,0.7,0.2,0.9
		s0.3,0.5,0.5,0.8s0.5,0.4,0.7,0.5s0.6,0.2,0.9,0.2c0.4,0,0.7-0.1,1-0.2c0.3-0.1,0.5-0.3,0.7-0.5c0.2-0.2,0.4-0.5,0.5-0.8
		c0.1-0.3,0.2-0.6,0.2-0.9c0-0.4-0.1-0.7-0.2-1c-0.1-0.3-0.3-0.6-0.5-0.8s-0.5-0.4-0.8-0.5s-0.6-0.2-1-0.2s-0.7,0.1-1,0.2
		c-0.3,0.1-0.5,0.3-0.7,0.5c-0.2,0.2-0.4,0.5-0.5,0.8C232.6,68.5,232.5,68.8,232.6,69.2L232.6,69.2z"/>
	<path d="M240.3,63.3c0-0.2,0.1-0.4,0.2-0.6c0.2-0.2,0.4-0.2,0.6-0.2s0.4,0.1,0.6,0.2c0.2,0.2,0.2,0.3,0.2,0.6
		c0,0.2-0.1,0.4-0.2,0.6s-0.4,0.2-0.6,0.2s-0.4-0.1-0.6-0.2S240.2,63.5,240.3,63.3L240.3,63.3z M240.5,65.8h1.1v6.6h-1.1V65.8z"/>
	<path d="M243.8,67.4c0-0.3,0-0.6,0-0.8c0-0.3,0-0.5,0-0.7h1.1c0,0.2,0,0.4,0,0.5c0,0.2,0,0.4,0,0.6h0c0.1-0.2,0.2-0.3,0.3-0.5
		c0.1-0.2,0.3-0.3,0.5-0.4c0.2-0.1,0.4-0.2,0.6-0.3s0.5-0.1,0.8-0.1c0.4,0,0.8,0.1,1.1,0.2s0.6,0.3,0.8,0.6c0.2,0.2,0.4,0.5,0.5,0.9
		c0.1,0.3,0.1,0.7,0.1,1.1v4.1h-1.1v-4c0-0.6-0.1-1-0.4-1.3s-0.6-0.5-1.1-0.5c-0.4,0-0.7,0.1-0.9,0.2s-0.5,0.3-0.6,0.5
		c-0.2,0.2-0.3,0.5-0.4,0.8s-0.1,0.7-0.1,1v3.2h-1.1L243.8,67.4L243.8,67.4z"/>
</g>
<g>
	<path d="M142.8,56.2c-0.2-0.3-0.5-0.5-0.8-0.6c-0.3-0.1-0.6-0.2-0.9-0.2c-0.4,0-0.7,0.1-1,0.2c-0.3,0.1-0.5,0.3-0.7,0.5
		s-0.3,0.5-0.4,0.8c-0.1,0.3-0.1,0.6-0.1,1s0.1,0.7,0.2,1s0.3,0.6,0.4,0.8s0.4,0.4,0.7,0.5c0.3,0.1,0.6,0.2,0.9,0.2
		c0.7,0,1.3-0.3,1.7-0.8l0.8,0.8c-0.3,0.4-0.7,0.6-1.1,0.8s-0.9,0.2-1.4,0.2c-0.5,0-1-0.1-1.4-0.2c-0.4-0.2-0.8-0.4-1.1-0.7
		s-0.5-0.7-0.7-1.1s-0.2-0.9-0.2-1.4s0.1-1,0.2-1.4s0.4-0.8,0.7-1.1c0.3-0.3,0.7-0.6,1.1-0.7s0.9-0.3,1.4-0.3s1,0.1,1.4,0.2
		s0.8,0.4,1.2,0.8L142.8,56.2L142.8,56.2z"/>
	<path d="M144.6,57.8c0-0.5,0.1-1,0.3-1.4c0.2-0.4,0.4-0.8,0.7-1.1c0.3-0.3,0.7-0.5,1.1-0.7s0.9-0.2,1.4-0.2s1,0.1,1.4,0.2
		s0.8,0.4,1.1,0.7s0.6,0.7,0.7,1.1c0.2,0.4,0.3,0.9,0.3,1.4s-0.1,1-0.3,1.4c-0.2,0.4-0.4,0.8-0.7,1.1c-0.3,0.3-0.7,0.5-1.1,0.7
		s-0.9,0.2-1.4,0.2s-1-0.1-1.4-0.2s-0.8-0.4-1.1-0.7s-0.6-0.7-0.7-1.1C144.7,58.8,144.6,58.3,144.6,57.8z M145.8,57.8
		c0,0.3,0.1,0.7,0.2,1c0.1,0.3,0.3,0.6,0.5,0.8c0.2,0.2,0.5,0.4,0.7,0.5c0.3,0.1,0.6,0.2,1,0.2s0.7-0.1,1-0.2
		c0.3-0.1,0.5-0.3,0.7-0.5c0.2-0.2,0.4-0.5,0.5-0.8c0.1-0.3,0.2-0.6,0.2-1s-0.1-0.7-0.2-1c-0.1-0.3-0.3-0.6-0.5-0.8
		c-0.2-0.2-0.5-0.4-0.7-0.5c-0.3-0.1-0.6-0.2-1-0.2s-0.7,0.1-1,0.2c-0.3,0.1-0.5,0.3-0.7,0.5c-0.2,0.2-0.4,0.5-0.5,0.8
		S145.8,57.5,145.8,57.8z"/>
	<path d="M153.4,56.1c0-0.3,0-0.6,0-0.8c0-0.3,0-0.5,0-0.7h1.1c0,0.2,0,0.4,0,0.5c0,0.2,0,0.4,0,0.5h0c0.1-0.2,0.2-0.3,0.3-0.5
		c0.1-0.2,0.3-0.3,0.5-0.4c0.2-0.1,0.4-0.2,0.6-0.3s0.5-0.1,0.8-0.1c0.1,0,0.1,0,0.2,0c0.1,0,0.1,0,0.2,0.1l-0.1,1.1
		c-0.2-0.1-0.4-0.1-0.6-0.1c-0.7,0-1.2,0.2-1.5,0.7s-0.5,1-0.5,1.8v3.2h-1.1L153.4,56.1L153.4,56.1z"/>
	<path d="M158.4,56.1c0-0.3,0-0.6,0-0.8c0-0.3,0-0.5,0-0.7h1.1c0,0.2,0,0.4,0,0.5c0,0.2,0,0.4,0,0.5h0c0.1-0.2,0.2-0.3,0.3-0.5
		c0.1-0.2,0.3-0.3,0.5-0.4c0.2-0.1,0.4-0.2,0.6-0.3s0.5-0.1,0.8-0.1c0.4,0,0.8,0.1,1.1,0.2s0.6,0.3,0.8,0.5s0.4,0.5,0.5,0.9
		s0.1,0.7,0.1,1.1v4.1h-1.1v-4c0-0.6-0.1-1-0.4-1.3s-0.6-0.5-1.1-0.5c-0.4,0-0.7,0.1-0.9,0.2s-0.5,0.3-0.6,0.5
		c-0.2,0.2-0.3,0.5-0.4,0.8s-0.1,0.7-0.1,1v3.2h-1.1L158.4,56.1L158.4,56.1z"/>
	<path d="M172.2,60c-0.4,0.5-0.8,0.9-1.3,1.1s-1,0.3-1.6,0.3c-0.5,0-1-0.1-1.4-0.3c-0.4-0.2-0.8-0.4-1.1-0.7s-0.5-0.7-0.7-1.1
		c-0.2-0.4-0.2-0.9-0.2-1.4c0-0.5,0.1-1,0.2-1.4s0.4-0.8,0.7-1.1s0.7-0.5,1.1-0.7s0.9-0.2,1.4-0.2c0.5,0,0.9,0.1,1.3,0.2
		c0.4,0.2,0.7,0.4,1,0.7s0.5,0.7,0.6,1.1s0.2,0.9,0.2,1.5v0.3h-5.4c0,0.3,0.1,0.6,0.2,0.8s0.3,0.5,0.5,0.7s0.4,0.3,0.7,0.5
		c0.2,0.1,0.5,0.2,0.8,0.2c0.5,0,0.9-0.1,1.2-0.2s0.6-0.4,0.9-0.8L172.2,60L172.2,60z M171.2,57.2c0-0.6-0.2-1-0.6-1.4
		s-0.8-0.5-1.4-0.5s-1.1,0.2-1.5,0.5s-0.6,0.8-0.7,1.4H171.2z"/>
	<path d="M174.2,56.1c0-0.3,0-0.6,0-0.8c0-0.3,0-0.5,0-0.7h1.1c0,0.2,0,0.4,0,0.5c0,0.2,0,0.4,0,0.5h0c0.1-0.2,0.2-0.3,0.3-0.5
		c0.1-0.2,0.3-0.3,0.5-0.4c0.2-0.1,0.4-0.2,0.6-0.3s0.5-0.1,0.8-0.1c0.1,0,0.1,0,0.2,0c0.1,0,0.1,0,0.2,0.1l-0.1,1.1
		c-0.2-0.1-0.4-0.1-0.6-0.1c-0.7,0-1.2,0.2-1.5,0.7s-0.5,1-0.5,1.8v3.2h-1.1L174.2,56.1L174.2,56.1z"/>
	<path d="M138.1,67.4c0-0.3,0-0.6,0-0.8c0-0.3,0-0.5,0-0.7h1.1c0,0.2,0,0.4,0,0.5c0,0.2,0,0.4,0,0.6h0c0.1-0.2,0.2-0.3,0.3-0.5
		c0.1-0.2,0.3-0.3,0.5-0.4c0.2-0.1,0.4-0.2,0.6-0.3s0.5-0.1,0.8-0.1c0.1,0,0.1,0,0.2,0c0.1,0,0.1,0,0.2,0.1l-0.1,1.1
		c-0.2-0.1-0.4-0.1-0.6-0.1c-0.7,0-1.2,0.2-1.5,0.7s-0.5,1-0.5,1.8v3.2h-1.1L138.1,67.4L138.1,67.4z"/>
	<path d="M143,66.7c0.3-0.3,0.7-0.6,1.2-0.8c0.5-0.2,0.9-0.2,1.4-0.2c1,0,1.7,0.2,2.1,0.7c0.4,0.5,0.6,1.2,0.6,2.1v2.8
		c0,0.2,0,0.4,0,0.6c0,0.2,0,0.4,0.1,0.6h-1.1c0-0.2-0.1-0.3-0.1-0.5s0-0.3,0-0.5h0c-0.2,0.3-0.5,0.6-0.9,0.8
		c-0.4,0.2-0.8,0.3-1.3,0.3c-0.3,0-0.7,0-1-0.1s-0.6-0.2-0.8-0.4s-0.4-0.4-0.5-0.6s-0.2-0.5-0.2-0.8c0-0.6,0.1-1,0.4-1.3
		c0.3-0.3,0.6-0.5,1.1-0.7c0.4-0.2,0.9-0.2,1.4-0.3c0.5,0,0.9-0.1,1.3-0.1h0.4v-0.2c0-0.5-0.1-0.8-0.4-1.1c-0.3-0.2-0.7-0.4-1.2-0.4
		c-0.4,0-0.7,0.1-1.1,0.2s-0.6,0.3-0.9,0.5L143,66.7L143,66.7z M146.2,69.3c-0.7,0-1.3,0.1-1.7,0.3c-0.4,0.2-0.6,0.5-0.6,1
		c0,0.4,0.1,0.7,0.4,0.9c0.3,0.2,0.6,0.3,1,0.3c0.3,0,0.6-0.1,0.8-0.2c0.2-0.1,0.4-0.2,0.6-0.4s0.3-0.4,0.4-0.6
		c0.1-0.2,0.1-0.5,0.1-0.8v-0.4L146.2,69.3L146.2,69.3z"/>
	<path d="M156,71.3L156,71.3c-0.2,0.4-0.6,0.7-1,1c-0.4,0.3-1,0.4-1.6,0.4c-0.5,0-0.9-0.1-1.3-0.3s-0.8-0.4-1.1-0.7
		s-0.5-0.7-0.7-1.1c-0.2-0.4-0.2-0.9-0.2-1.4s0.1-1,0.2-1.4c0.2-0.4,0.4-0.8,0.7-1.1c0.3-0.3,0.7-0.6,1.1-0.7
		c0.4-0.2,0.9-0.3,1.4-0.3c0.5,0,0.9,0.1,1.3,0.3c0.4,0.2,0.8,0.5,1.1,0.8h0v-5h1.1v10.7H156V71.3L156,71.3z M156,69.2
		c0-0.3-0.1-0.7-0.2-1s-0.3-0.6-0.5-0.8c-0.2-0.2-0.5-0.4-0.7-0.5c-0.3-0.1-0.6-0.2-1-0.2s-0.7,0.1-1,0.2c-0.3,0.1-0.5,0.3-0.7,0.5
		c-0.2,0.2-0.4,0.5-0.5,0.8c-0.1,0.3-0.2,0.6-0.2,1s0.1,0.7,0.2,1s0.3,0.6,0.5,0.8s0.5,0.4,0.7,0.5s0.6,0.2,1,0.2s0.7-0.1,1-0.2
		c0.3-0.1,0.5-0.3,0.7-0.5c0.2-0.2,0.4-0.5,0.5-0.8C155.9,69.8,156,69.5,156,69.2z"/>
	<path d="M159,63.3c0-0.2,0.1-0.4,0.2-0.6c0.2-0.2,0.4-0.2,0.6-0.2s0.4,0.1,0.6,0.2c0.2,0.2,0.2,0.3,0.2,0.6c0,0.2-0.1,0.4-0.2,0.6
		s-0.4,0.2-0.6,0.2s-0.4-0.1-0.6-0.2S159,63.5,159,63.3L159,63.3z M159.3,65.8h1.1v6.6h-1.1V65.8z"/>
	<path d="M168.4,70.9c0,0.3,0,0.6,0,0.8c0,0.3,0,0.5,0,0.7h-1.1c0-0.2,0-0.4,0-0.5c0-0.2,0-0.4,0-0.6h0c-0.1,0.2-0.2,0.3-0.3,0.5
		c-0.1,0.2-0.3,0.3-0.5,0.4c-0.2,0.1-0.4,0.2-0.6,0.3s-0.5,0.1-0.8,0.1c-0.4,0-0.8-0.1-1.1-0.2s-0.6-0.3-0.8-0.6s-0.4-0.5-0.5-0.9
		c-0.1-0.3-0.1-0.7-0.1-1.1v-4.1h1.1v4c0,0.6,0.1,1,0.4,1.3s0.6,0.5,1.1,0.5c0.4,0,0.7-0.1,0.9-0.2s0.5-0.3,0.6-0.5
		c0.2-0.2,0.3-0.5,0.4-0.8s0.1-0.7,0.1-1v-3.2h1.1L168.4,70.9L168.4,70.9z"/>
	<path d="M170.6,70.8c0.2,0.3,0.5,0.5,0.7,0.7s0.6,0.2,1,0.2c0.2,0,0.3,0,0.5-0.1s0.3-0.1,0.5-0.2s0.2-0.2,0.3-0.3
		c0.1-0.1,0.1-0.3,0.1-0.5s0-0.3-0.1-0.4s-0.2-0.2-0.3-0.3s-0.3-0.1-0.4-0.2s-0.3-0.1-0.5-0.1c-0.3-0.1-0.6-0.1-0.9-0.2
		s-0.5-0.2-0.7-0.3s-0.4-0.3-0.5-0.5c-0.1-0.2-0.2-0.5-0.2-0.8c0-0.3,0.1-0.6,0.2-0.8s0.3-0.4,0.6-0.6s0.5-0.3,0.8-0.4
		c0.3-0.1,0.6-0.1,0.9-0.1c0.5,0,0.9,0.1,1.3,0.3s0.7,0.5,0.9,0.9l-0.9,0.6c-0.1-0.2-0.3-0.4-0.6-0.6s-0.5-0.2-0.8-0.2
		c-0.1,0-0.3,0-0.5,0.1s-0.3,0.1-0.4,0.2c-0.1,0.1-0.2,0.2-0.3,0.3s-0.1,0.2-0.1,0.4c0,0.1,0,0.3,0.1,0.4c0.1,0.1,0.2,0.2,0.4,0.3
		c0.2,0.1,0.3,0.1,0.5,0.2s0.4,0.1,0.6,0.1c0.3,0.1,0.6,0.1,0.8,0.2s0.5,0.2,0.7,0.4s0.4,0.3,0.5,0.6c0.1,0.2,0.2,0.5,0.2,0.8
		c0,0.4-0.1,0.7-0.2,1s-0.4,0.5-0.6,0.7s-0.5,0.3-0.9,0.4c-0.3,0.1-0.6,0.1-1,0.1c-0.6,0-1.1-0.1-1.5-0.3c-0.4-0.2-0.8-0.5-1.1-1
		L170.6,70.8L170.6,70.8z"/>
</g>
<g>
	<line class="st1" x1="170.7" y1="181.9" x2="224.3" y2="181.9"/>
	<polygon points="175.4,187.7 176.4,186.7 171.2,181.9 176.4,177.2 175.4,176.1 169.2,181.9 	"/>
	<polygon points="219.6,187.7 218.6,186.7 223.7,181.9 218.6,177.2 219.6,176.1 225.8,181.9 	"/>
</g>
<g>
	<line class="st1" x1="197.5" y1="98.2" x2="197.5" y2="41.7"/>
	<polygon points="203.3,93.5 202.2,92.5 197.5,97.7 192.7,92.5 191.7,93.5 197.5,99.7 	"/>
	<polygon points="203.3,46.4 202.2,47.4 197.5,42.3 192.7,47.4 191.7,46.4 197.5,40.2 	"/>
</g>
<g>
	<line class="st1" x1="334.5" y1="309.4" x2="334.5" y2="272.8"/>
	<polygon points="340.3,304.7 339.3,303.8 334.5,308.9 329.8,303.8 328.7,304.7 334.5,311 	"/>
	<polygon points="340.3,277.5 339.3,278.5 334.5,273.4 329.8,278.5 328.7,277.5 334.5,271.3 	"/>
</g>
<g>
	<path d="M344.2,394.3c0.2,0.3,0.5,0.5,0.7,0.6s0.6,0.2,1,0.2c0.2,0,0.3,0,0.5-0.1c0.2,0,0.3-0.1,0.5-0.2s0.2-0.2,0.3-0.3
		c0.1-0.1,0.1-0.3,0.1-0.5s0-0.3-0.1-0.4c-0.1-0.1-0.2-0.2-0.3-0.3c-0.1-0.1-0.3-0.1-0.5-0.2s-0.3-0.1-0.5-0.1
		c-0.3-0.1-0.6-0.1-0.9-0.2s-0.5-0.2-0.7-0.3c-0.2-0.1-0.4-0.3-0.5-0.5s-0.2-0.5-0.2-0.8c0-0.3,0.1-0.6,0.2-0.9s0.3-0.5,0.6-0.6
		c0.2-0.2,0.5-0.3,0.8-0.4c0.3-0.1,0.6-0.1,0.9-0.1c0.5,0,0.9,0.1,1.3,0.3s0.7,0.5,0.9,0.9l-0.9,0.6c-0.1-0.2-0.3-0.4-0.6-0.6
		s-0.5-0.2-0.8-0.2c-0.1,0-0.3,0-0.5,0.1s-0.3,0.1-0.4,0.2c-0.1,0.1-0.2,0.2-0.3,0.3s-0.1,0.2-0.1,0.4c0,0.1,0,0.3,0.1,0.4
		c0.1,0.1,0.2,0.2,0.4,0.3c0.2,0.1,0.3,0.1,0.5,0.2s0.4,0.1,0.6,0.1c0.3,0.1,0.6,0.1,0.8,0.2s0.5,0.2,0.7,0.4s0.4,0.3,0.5,0.6
		c0.1,0.2,0.2,0.5,0.2,0.8c0,0.4-0.1,0.7-0.2,1c-0.1,0.3-0.4,0.5-0.6,0.6c-0.2,0.2-0.5,0.3-0.9,0.4c-0.3,0.1-0.6,0.1-1,0.1
		c-0.6,0-1.1-0.1-1.5-0.3s-0.8-0.5-1.1-1L344.2,394.3L344.2,394.3z"/>
	<path d="M356.7,399.3h-1.1v-4.2h0c-0.3,0.4-0.6,0.6-1.1,0.8c-0.4,0.2-0.8,0.3-1.3,0.3c-0.5,0-1-0.1-1.4-0.3
		c-0.4-0.2-0.8-0.4-1.1-0.7c-0.3-0.3-0.5-0.7-0.7-1.1c-0.2-0.4-0.2-0.9-0.2-1.4s0.1-1,0.2-1.4c0.2-0.4,0.4-0.8,0.7-1.1
		c0.3-0.3,0.6-0.6,1.1-0.7s0.8-0.3,1.3-0.3c0.6,0,1.1,0.1,1.6,0.4s0.8,0.6,1,1h0v-1.2h1.1V399.3L356.7,399.3z M355.6,392.7
		c0-0.4,0-0.7-0.2-1c-0.1-0.3-0.3-0.6-0.5-0.8c-0.2-0.2-0.5-0.4-0.7-0.5c-0.3-0.1-0.6-0.2-1-0.2s-0.7,0.1-1,0.2s-0.5,0.3-0.7,0.5
		c-0.2,0.2-0.4,0.5-0.5,0.8s-0.2,0.6-0.2,1s0,0.7,0.2,1c0.1,0.3,0.3,0.6,0.5,0.8c0.2,0.2,0.5,0.4,0.7,0.5c0.3,0.1,0.6,0.2,1,0.2
		s0.7-0.1,1-0.2s0.5-0.3,0.7-0.5c0.2-0.2,0.4-0.5,0.5-0.8C355.6,393.4,355.6,393.1,355.6,392.7z"/>
	<path d="M364.6,394.5c0,0.3,0,0.6,0,0.9c0,0.3,0,0.5,0,0.7h-1c0-0.2,0-0.4,0-0.5s0-0.4,0-0.5h0c-0.1,0.2-0.2,0.3-0.3,0.5
		s-0.3,0.3-0.5,0.4c-0.2,0.1-0.4,0.2-0.6,0.3c-0.2,0.1-0.5,0.1-0.8,0.1c-0.4,0-0.8-0.1-1.1-0.2s-0.6-0.3-0.8-0.5s-0.4-0.5-0.5-0.9
		c-0.1-0.3-0.1-0.7-0.1-1.1v-4.1h1.1v4c0,0.6,0.1,1,0.4,1.3s0.6,0.5,1.1,0.5c0.4,0,0.7-0.1,0.9-0.2c0.3-0.1,0.5-0.3,0.6-0.5
		c0.2-0.2,0.3-0.5,0.4-0.8s0.1-0.7,0.1-1v-3.2h1.1L364.6,394.5L364.6,394.5z"/>
	<path d="M366.6,390.2c0.3-0.4,0.7-0.6,1.2-0.8s0.9-0.2,1.4-0.2c1,0,1.7,0.2,2.1,0.7s0.6,1.2,0.6,2.1v2.9c0,0.2,0,0.4,0,0.6
		s0,0.4,0.1,0.6h-1.1c0-0.1-0.1-0.3-0.1-0.5s0-0.4,0-0.5h0c-0.2,0.3-0.5,0.6-0.9,0.8s-0.8,0.3-1.3,0.3c-0.3,0-0.7,0-1-0.1
		s-0.6-0.2-0.8-0.4s-0.4-0.4-0.5-0.6s-0.2-0.5-0.2-0.9c0-0.5,0.1-1,0.4-1.3c0.3-0.3,0.6-0.5,1.1-0.7c0.4-0.1,0.9-0.2,1.4-0.3
		s0.9-0.1,1.3-0.1h0.4v-0.2c0-0.5-0.1-0.9-0.4-1.1c-0.3-0.2-0.7-0.4-1.2-0.4c-0.4,0-0.7,0.1-1.1,0.2s-0.6,0.3-0.9,0.5L366.6,390.2
		L366.6,390.2z M369.8,392.8c-0.7,0-1.3,0.1-1.7,0.3c-0.4,0.2-0.6,0.5-0.6,1c0,0.4,0.1,0.7,0.4,0.9c0.3,0.2,0.6,0.3,1,0.3
		c0.3,0,0.6,0,0.8-0.2c0.2-0.1,0.4-0.2,0.6-0.4s0.3-0.4,0.4-0.6s0.1-0.5,0.1-0.8v-0.4L369.8,392.8L369.8,392.8z"/>
	<path d="M374,391c0-0.3,0-0.6,0-0.9c0-0.3,0-0.5,0-0.7h1c0,0.2,0,0.4,0,0.5c0,0.2,0,0.4,0,0.5h0c0.1-0.2,0.2-0.3,0.3-0.5
		s0.3-0.3,0.5-0.4c0.2-0.1,0.4-0.2,0.6-0.3c0.2-0.1,0.5-0.1,0.8-0.1c0.1,0,0.1,0,0.2,0c0.1,0,0.1,0,0.2,0.1l-0.1,1.1
		c-0.2-0.1-0.4-0.1-0.6-0.1c-0.7,0-1.2,0.2-1.5,0.7s-0.5,1-0.5,1.8v3.2h-1.1L374,391L374,391z"/>
	<path d="M384.7,394.8c-0.4,0.5-0.8,0.9-1.3,1.1s-1,0.3-1.6,0.3c-0.5,0-1-0.1-1.4-0.3c-0.4-0.2-0.8-0.4-1.1-0.7s-0.5-0.7-0.7-1.1
		c-0.2-0.4-0.2-0.9-0.2-1.4c0-0.5,0.1-1,0.2-1.4s0.4-0.8,0.7-1.1s0.7-0.5,1.1-0.7s0.9-0.2,1.4-0.2c0.5,0,0.9,0.1,1.3,0.2
		c0.4,0.2,0.7,0.4,1,0.7s0.5,0.7,0.6,1.1c0.1,0.4,0.2,0.9,0.2,1.5v0.4h-5.4c0,0.3,0.1,0.6,0.2,0.8s0.3,0.5,0.5,0.7s0.4,0.4,0.7,0.5
		c0.2,0.1,0.5,0.2,0.8,0.2c0.5,0,0.9-0.1,1.2-0.2s0.6-0.4,0.9-0.8L384.7,394.8L384.7,394.8z M383.8,392.1c0-0.6-0.2-1-0.5-1.4
		c-0.4-0.3-0.8-0.5-1.5-0.5s-1.1,0.2-1.5,0.5s-0.6,0.8-0.7,1.4H383.8L383.8,392.1z"/>
	<path d="M344.1,396.7h1.1v5h0c0.1-0.1,0.2-0.3,0.3-0.4s0.3-0.2,0.5-0.4c0.2-0.1,0.4-0.2,0.6-0.2s0.5-0.1,0.7-0.1
		c0.4,0,0.8,0.1,1.1,0.2s0.6,0.3,0.8,0.5c0.2,0.2,0.4,0.5,0.5,0.9c0.1,0.3,0.1,0.7,0.1,1.1v4.1h-1.1v-4c0-0.6-0.1-1-0.4-1.3
		s-0.6-0.5-1.1-0.5c-0.4,0-0.7,0.1-0.9,0.2s-0.5,0.3-0.6,0.5c-0.2,0.2-0.3,0.5-0.4,0.8s-0.1,0.7-0.1,1v3.2h-1.1L344.1,396.7
		L344.1,396.7z"/>
	<path d="M357.9,406.2c-0.4,0.5-0.8,0.9-1.3,1.1s-1,0.3-1.6,0.3c-0.5,0-1-0.1-1.4-0.3s-0.8-0.4-1.1-0.7s-0.5-0.7-0.7-1.1
		c-0.2-0.4-0.2-0.9-0.2-1.4c0-0.5,0.1-1,0.2-1.4s0.4-0.8,0.7-1.1s0.7-0.5,1.1-0.7c0.4-0.2,0.9-0.3,1.4-0.3c0.5,0,0.9,0.1,1.3,0.2
		c0.4,0.2,0.7,0.4,1,0.7s0.5,0.7,0.6,1.1s0.2,0.9,0.2,1.5v0.4h-5.4c0,0.3,0.1,0.5,0.2,0.8s0.3,0.5,0.5,0.7s0.4,0.4,0.7,0.5
		c0.2,0.1,0.5,0.2,0.8,0.2c0.5,0,0.9-0.1,1.2-0.2s0.6-0.4,0.9-0.8L357.9,406.2L357.9,406.2z M356.9,403.5c0-0.6-0.2-1-0.5-1.4
		c-0.4-0.3-0.8-0.5-1.5-0.5s-1.1,0.2-1.5,0.5s-0.6,0.8-0.7,1.4H356.9L356.9,403.5z"/>
	<path d="M359.7,398.1c0-0.2,0.1-0.4,0.2-0.6c0.2-0.2,0.4-0.2,0.6-0.2s0.4,0.1,0.6,0.2c0.2,0.2,0.2,0.4,0.2,0.6
		c0,0.2-0.1,0.4-0.2,0.6c-0.1,0.1-0.4,0.2-0.6,0.2s-0.4-0.1-0.6-0.2S359.7,398.4,359.7,398.1L359.7,398.1z M360,400.7h1.1v6.6H360
		V400.7z"/>
	<path d="M369.9,407.1c0,1.2-0.3,2.1-0.9,2.8s-1.5,0.9-2.7,0.9c-0.6,0-1.2-0.1-1.8-0.3c-0.5-0.2-1-0.5-1.5-1l0.8-0.9
		c0.4,0.4,0.7,0.7,1.1,0.9c0.4,0.2,0.8,0.3,1.4,0.3s0.9-0.1,1.2-0.2s0.6-0.3,0.8-0.6c0.2-0.2,0.3-0.5,0.4-0.9c0.1-0.3,0.1-0.7,0.1-1
		v-0.9h0c-0.3,0.4-0.6,0.7-1,0.9c-0.4,0.2-0.9,0.3-1.3,0.3c-0.5,0-1-0.1-1.4-0.2s-0.8-0.4-1.1-0.7s-0.5-0.7-0.7-1.1
		c-0.2-0.4-0.2-0.9-0.2-1.4c0-0.5,0.1-1,0.2-1.5s0.4-0.8,0.7-1.1c0.3-0.3,0.7-0.5,1.1-0.7s0.9-0.2,1.5-0.2c0.2,0,0.5,0,0.7,0.1
		c0.2,0,0.5,0.1,0.7,0.2s0.4,0.2,0.6,0.4s0.3,0.4,0.4,0.6h0v-1.1h1.1L369.9,407.1L369.9,407.1z M364.1,404.1c0,0.3,0.1,0.6,0.2,0.9
		s0.3,0.5,0.5,0.8s0.5,0.4,0.7,0.5s0.6,0.2,0.9,0.2c0.4,0,0.7-0.1,1-0.2c0.3-0.1,0.5-0.3,0.7-0.5c0.2-0.2,0.4-0.5,0.5-0.8
		c0.1-0.3,0.2-0.6,0.2-0.9c0-0.4-0.1-0.7-0.2-1c-0.1-0.3-0.3-0.5-0.5-0.8s-0.5-0.4-0.8-0.5s-0.6-0.2-1-0.2s-0.7,0.1-1,0.2
		c-0.3,0.1-0.5,0.3-0.7,0.5c-0.2,0.2-0.4,0.5-0.5,0.8C364.1,403.4,364.1,403.7,364.1,404.1L364.1,404.1z"/>
	<path d="M371.9,396.7h1.1v5h0c0.1-0.1,0.2-0.3,0.3-0.4s0.3-0.2,0.5-0.4c0.2-0.1,0.4-0.2,0.6-0.2s0.5-0.1,0.7-0.1
		c0.4,0,0.8,0.1,1.1,0.2s0.6,0.3,0.8,0.5c0.2,0.2,0.4,0.5,0.5,0.9c0.1,0.3,0.1,0.7,0.1,1.1v4.1h-1.1v-4c0-0.6-0.1-1-0.4-1.3
		s-0.6-0.5-1.1-0.5c-0.4,0-0.7,0.1-0.9,0.2s-0.5,0.3-0.6,0.5c-0.2,0.2-0.3,0.5-0.4,0.8s-0.1,0.7-0.1,1v3.2h-1.1L371.9,396.7
		L371.9,396.7z"/>
	<path d="M383.5,401.7h-2v3.3c0,0.2,0,0.4,0,0.6c0,0.2,0,0.4,0.1,0.5s0.2,0.2,0.3,0.3c0.1,0.1,0.3,0.1,0.6,0.1c0.2,0,0.3,0,0.5-0.1
		s0.3-0.1,0.5-0.2l0,1c-0.2,0.1-0.4,0.1-0.6,0.2c-0.2,0-0.5,0.1-0.7,0.1c-0.4,0-0.7,0-1-0.2c-0.2-0.1-0.4-0.2-0.5-0.4
		c-0.1-0.2-0.2-0.4-0.3-0.7s-0.1-0.6-0.1-0.9v-3.6h-1.5v-0.9h1.5v-1.9h1.1v1.9h2L383.5,401.7L383.5,401.7z"/>
</g>
<g>
	<line class="st1" x1="334.5" y1="422.9" x2="334.5" y2="369.2"/>
	<polygon points="340.3,418.2 339.3,417.2 334.5,422.4 329.8,417.2 328.7,418.2 334.5,424.4 	"/>
	<polygon points="340.3,373.9 339.3,374.8 334.5,369.7 329.8,374.8 328.7,373.9 334.5,367.6 	"/>
</g>
<g>
	<line class="st1" x1="197.5" y1="271.3" x2="198.9" y2="271.3"/>
	<line class="st7" x1="201.8" y1="271.3" x2="359.2" y2="271.3"/>
	<line class="st1" x1="360.6" y1="271.3" x2="362" y2="271.3"/>
</g>
<g>
	<line class="st1" x1="312.3" y1="311" x2="313.7" y2="311"/>
	<line class="st8" x1="316.5" y1="311" x2="359.2" y2="311"/>
	<line class="st1" x1="360.6" y1="311" x2="362" y2="311"/>
</g>
<g>
	<line class="st1" x1="312.3" y1="84.3" x2="312.3" y2="82.9"/>
	<line class="st9" x1="312.3" y1="80.1" x2="312.3" y2="2.8"/>
	<line class="st1" x1="312.3" y1="1.4" x2="312.3" y2="0"/>
</g>
<g>
	<line class="st1" x1="296.7" y1="84.3" x2="296.7" y2="82.9"/>
	<line class="st9" x1="296.7" y1="80.1" x2="296.7" y2="2.8"/>
	<line class="st1" x1="296.7" y1="1.4" x2="296.7" y2="0"/>
</g>
<g>
	<line class="st1" x1="312.3" y1="367.6" x2="313.7" y2="367.6"/>
	<line class="st8" x1="316.5" y1="367.6" x2="359.2" y2="367.6"/>
	<line class="st1" x1="360.6" y1="367.6" x2="362" y2="367.6"/>
</g>
<g>
	<line class="st1" x1="312.3" y1="424.4" x2="313.7" y2="424.4"/>
	<line class="st8" x1="316.5" y1="424.4" x2="359.2" y2="424.4"/>
	<line class="st1" x1="360.6" y1="424.4" x2="362" y2="424.4"/>
</g>
<line class="st10" x1="295.2" y1="18.8" x2="313.8" y2="18.8"/>
<g>
	<line class="st1" x1="47.5" y1="479.6" x2="47.5" y2="85.8"/>
	<polygon points="53.3,474.9 52.3,474 47.5,479.1 42.8,474 41.7,474.9 47.5,481.2 	"/>
	<polygon points="53.3,90.6 52.3,91.5 47.5,86.4 42.8,91.5 41.7,90.6 47.5,84.3 	"/>
</g>
<g>
	<line class="st1" x1="29.1" y1="84.3" x2="30.5" y2="84.3"/>
	<line class="st11" x1="33.5" y1="84.3" x2="79.8" y2="84.3"/>
	<line class="st1" x1="81.3" y1="84.3" x2="82.7" y2="84.3"/>
</g>
<g>
	<line class="st1" x1="29.1" y1="481.2" x2="30.5" y2="481.2"/>
	<line class="st11" x1="33.5" y1="481.2" x2="79.8" y2="481.2"/>
	<line class="st1" x1="81.3" y1="481.2" x2="82.7" y2="481.2"/>
</g>
<g>
	<line class="st1" x1="226.2" y1="533.1" x2="226.2" y2="531.7"/>
	<line class="st12" x1="226.2" y1="528.8" x2="226.2" y2="484"/>
	<line class="st1" x1="226.2" y1="482.6" x2="226.2" y2="481.2"/>
</g>
<g>
	<line class="st1" x1="82.7" y1="566.1" x2="82.7" y2="564.7"/>
	<line class="st13" x1="82.7" y1="561.8" x2="82.7" y2="484"/>
	<line class="st1" x1="82.7" y1="482.6" x2="82.7" y2="481.2"/>
</g>
<g>
	<line class="st1" x1="312.3" y1="566.1" x2="312.3" y2="564.7"/>
	<line class="st13" x1="312.3" y1="561.8" x2="312.3" y2="484"/>
	<line class="st1" x1="312.3" y1="482.6" x2="312.3" y2="481.2"/>
</g>
<g>
	<line class="st1" x1="254.9" y1="533.1" x2="254.9" y2="531.7"/>
	<line class="st12" x1="254.9" y1="528.8" x2="254.9" y2="484"/>
	<line class="st1" x1="254.9" y1="482.6" x2="254.9" y2="481.2"/>
</g>
<g>
	<path d="M0.2,265h1.1v5h0c0.1-0.1,0.2-0.3,0.3-0.4s0.3-0.2,0.5-0.4c0.2-0.1,0.4-0.2,0.6-0.2c0.2-0.1,0.5-0.1,0.7-0.1
		c0.4,0,0.8,0.1,1.1,0.2c0.3,0.1,0.6,0.3,0.8,0.5s0.4,0.5,0.5,0.9s0.2,0.7,0.2,1.1v4.1H4.9v-4c0-0.6-0.1-1-0.4-1.3s-0.6-0.5-1.2-0.5
		c-0.4,0-0.7,0.1-0.9,0.2s-0.5,0.3-0.6,0.5c-0.2,0.2-0.3,0.5-0.4,0.8s-0.1,0.7-0.1,1v3.2H0.2V265L0.2,265z"/>
	<path d="M14.1,274.5c-0.4,0.5-0.8,0.9-1.3,1.1s-1,0.3-1.6,0.3c-0.5,0-1-0.1-1.4-0.3s-0.8-0.4-1.1-0.7c-0.3-0.3-0.5-0.7-0.7-1.1
		c-0.2-0.4-0.2-0.9-0.2-1.4c0-0.5,0.1-1,0.3-1.4c0.2-0.4,0.4-0.8,0.7-1.1s0.7-0.5,1.1-0.7s0.9-0.2,1.4-0.2c0.5,0,0.9,0.1,1.3,0.2
		c0.4,0.2,0.7,0.4,1,0.7s0.5,0.7,0.6,1.1c0.1,0.4,0.2,0.9,0.2,1.5v0.4H8.9c0,0.3,0.1,0.6,0.2,0.8s0.3,0.5,0.5,0.7s0.4,0.4,0.7,0.5
		c0.2,0.1,0.5,0.2,0.8,0.2c0.5,0,0.9-0.1,1.2-0.2s0.6-0.4,0.9-0.8L14.1,274.5L14.1,274.5z M13.1,271.8c0-0.6-0.2-1-0.6-1.4
		s-0.8-0.5-1.4-0.5s-1.1,0.2-1.5,0.5s-0.6,0.8-0.7,1.4H13.1z"/>
	<path d="M15.9,266.5c0-0.2,0.1-0.4,0.2-0.6c0.2-0.2,0.4-0.2,0.6-0.2s0.4,0.1,0.6,0.2c0.2,0.2,0.2,0.4,0.2,0.6
		c0,0.2-0.1,0.4-0.2,0.6s-0.4,0.2-0.6,0.2s-0.4-0.1-0.6-0.2C15.9,266.9,15.9,266.7,15.9,266.5L15.9,266.5z M16.1,269.1h1.1v6.6h-1.1
		V269.1z"/>
	<path d="M26.1,275.4c0,1.2-0.3,2.1-0.9,2.8s-1.5,0.9-2.7,0.9c-0.6,0-1.2-0.1-1.8-0.3s-1-0.5-1.5-1L20,277c0.4,0.4,0.7,0.7,1.1,0.9
		c0.4,0.2,0.8,0.3,1.4,0.3s0.9-0.1,1.2-0.2s0.6-0.3,0.8-0.6s0.3-0.5,0.4-0.9c0.1-0.3,0.1-0.7,0.1-1v-0.9h0c-0.3,0.4-0.6,0.7-1,0.9
		c-0.4,0.2-0.9,0.3-1.3,0.3c-0.5,0-1-0.1-1.4-0.2s-0.8-0.4-1.1-0.7c-0.3-0.3-0.5-0.7-0.7-1.1c-0.2-0.4-0.2-0.9-0.2-1.4
		c0-0.5,0.1-1,0.2-1.5s0.4-0.8,0.7-1.1c0.3-0.3,0.7-0.5,1.1-0.7s0.9-0.2,1.5-0.2c0.2,0,0.5,0,0.7,0.1s0.5,0.1,0.7,0.2
		s0.4,0.2,0.6,0.4s0.3,0.4,0.4,0.6h0v-1.1h1.1C26.1,269.1,26.1,275.4,26.1,275.4z M20.3,272.4c0,0.3,0.1,0.6,0.2,0.9
		s0.3,0.5,0.5,0.8s0.5,0.4,0.7,0.5s0.6,0.2,0.9,0.2c0.4,0,0.7-0.1,1-0.2c0.3-0.1,0.5-0.3,0.7-0.5c0.2-0.2,0.4-0.5,0.5-0.8
		c0.1-0.3,0.2-0.6,0.2-0.9c0-0.4-0.1-0.7-0.2-1s-0.3-0.5-0.5-0.8s-0.5-0.4-0.8-0.5s-0.6-0.2-1-0.2s-0.7,0.1-1,0.2
		c-0.3,0.1-0.5,0.3-0.7,0.5c-0.2,0.2-0.4,0.5-0.5,0.8C20.3,271.7,20.3,272,20.3,272.4L20.3,272.4z"/>
	<path d="M28.1,265h1.1v5h0c0.1-0.1,0.2-0.3,0.3-0.4s0.3-0.2,0.5-0.4c0.2-0.1,0.4-0.2,0.6-0.2c0.2-0.1,0.5-0.1,0.7-0.1
		c0.4,0,0.8,0.1,1.1,0.2s0.6,0.3,0.8,0.5s0.4,0.5,0.5,0.9s0.2,0.7,0.2,1.1v4.1h-1.1v-4c0-0.6-0.1-1-0.4-1.3s-0.6-0.5-1.1-0.5
		c-0.4,0-0.7,0.1-0.9,0.2s-0.5,0.3-0.6,0.5c-0.2,0.2-0.3,0.5-0.4,0.8s-0.1,0.7-0.1,1v3.2h-1.1V265L28.1,265z"/>
	<path d="M39.6,270h-2v3.3c0,0.2,0,0.4,0,0.6c0,0.2,0,0.3,0.1,0.5s0.2,0.2,0.3,0.3s0.3,0.1,0.6,0.1c0.2,0,0.3,0,0.5-0.1
		s0.3-0.1,0.5-0.2l0,1c-0.2,0.1-0.4,0.1-0.6,0.2c-0.2,0-0.5,0.1-0.7,0.1c-0.4,0-0.7,0-1-0.2c-0.2-0.1-0.4-0.2-0.5-0.4
		s-0.2-0.4-0.3-0.7c0-0.3-0.1-0.6-0.1-0.9V270h-1.5v-0.9h1.5v-1.9h1.1v1.9h2L39.6,270L39.6,270z"/>
</g>
<g>
	<line class="st1" x1="269.2" y1="517.5" x2="256.4" y2="517.5"/>
	<polygon points="261.1,511.8 262.1,512.8 257,517.5 262.1,522.3 261.1,523.3 254.9,517.5 	"/>
</g>
<g>
	<line class="st1" x1="124.5" y1="517.5" x2="224.7" y2="517.5"/>
	<polygon points="220,523.3 219,522.3 224.1,517.5 219,512.8 220,511.8 226.2,517.5 	"/>
</g>
<g>
	<line class="st1" x1="84.2" y1="548.5" x2="310.8" y2="548.5"/>
	<polygon points="88.9,554.3 89.9,553.2 84.8,548.5 89.9,543.7 88.9,542.7 82.7,548.5 	"/>
	<polygon points="306.1,554.3 305.1,553.2 310.2,548.5 305.1,543.7 306.1,542.7 312.3,548.5 	"/>
</g>
<g>
	<path d="M125.7,510.4c0.2,0.3,0.5,0.5,0.7,0.6s0.6,0.2,1,0.2c0.2,0,0.3,0,0.5-0.1c0.2,0,0.3-0.1,0.5-0.2s0.2-0.2,0.3-0.3
		c0.1-0.1,0.1-0.3,0.1-0.5s0-0.3-0.1-0.4c-0.1-0.1-0.2-0.2-0.3-0.3c-0.1-0.1-0.3-0.1-0.4-0.2s-0.3-0.1-0.5-0.1
		c-0.3-0.1-0.6-0.1-0.9-0.2s-0.5-0.2-0.7-0.3c-0.2-0.1-0.4-0.3-0.5-0.5c-0.1-0.2-0.2-0.5-0.2-0.8c0-0.3,0.1-0.6,0.2-0.9
		s0.3-0.5,0.6-0.6c0.2-0.2,0.5-0.3,0.8-0.4c0.3-0.1,0.6-0.1,0.9-0.1c0.5,0,0.9,0.1,1.3,0.3s0.7,0.5,0.9,0.9l-0.9,0.6
		c-0.1-0.2-0.3-0.4-0.6-0.6s-0.5-0.2-0.8-0.2c-0.2,0-0.3,0-0.5,0.1c-0.2,0-0.3,0.1-0.4,0.2c-0.1,0.1-0.2,0.2-0.3,0.3
		s-0.1,0.2-0.1,0.4c0,0.1,0,0.3,0.1,0.4c0.1,0.1,0.2,0.2,0.4,0.3c0.2,0.1,0.3,0.1,0.5,0.2s0.4,0.1,0.6,0.1c0.3,0.1,0.6,0.1,0.8,0.2
		s0.5,0.2,0.7,0.4s0.4,0.3,0.5,0.6c0.1,0.2,0.2,0.5,0.2,0.8c0,0.4-0.1,0.7-0.2,1c-0.1,0.3-0.4,0.5-0.6,0.6c-0.2,0.2-0.5,0.3-0.9,0.4
		c-0.3,0.1-0.6,0.1-1,0.1c-0.6,0-1.1-0.1-1.5-0.3c-0.4-0.2-0.8-0.5-1.1-1L125.7,510.4L125.7,510.4z"/>
	<path d="M138.2,515.4h-1.1v-4.2h0c-0.3,0.4-0.6,0.6-1.1,0.8c-0.4,0.2-0.8,0.3-1.3,0.3c-0.5,0-1-0.1-1.4-0.3
		c-0.4-0.2-0.8-0.4-1.1-0.7s-0.5-0.7-0.7-1.1c-0.2-0.4-0.2-0.9-0.2-1.4s0.1-1,0.2-1.4c0.2-0.4,0.4-0.8,0.7-1.1
		c0.3-0.3,0.6-0.6,1.1-0.7s0.8-0.3,1.3-0.3c0.6,0,1.1,0.1,1.6,0.4c0.4,0.3,0.8,0.6,1,1h0v-1.2h1.1V515.4L138.2,515.4z M137.1,508.9
		c0-0.4-0.1-0.7-0.2-1s-0.3-0.6-0.5-0.8c-0.2-0.2-0.5-0.4-0.7-0.5c-0.3-0.1-0.6-0.2-1-0.2s-0.7,0.1-1,0.2c-0.3,0.1-0.5,0.3-0.7,0.5
		c-0.2,0.2-0.4,0.5-0.5,0.8s-0.2,0.6-0.2,1s0.1,0.7,0.2,1s0.3,0.6,0.5,0.8c0.2,0.2,0.5,0.4,0.7,0.5c0.3,0.1,0.6,0.2,1,0.2
		s0.7-0.1,1-0.2c0.3-0.1,0.5-0.3,0.7-0.5c0.2-0.2,0.4-0.5,0.5-0.8C137.1,509.5,137.1,509.2,137.1,508.9z"/>
	<path d="M146.1,510.6c0,0.3,0,0.6,0,0.9c0,0.3,0,0.5,0,0.7h-1.1c0-0.2,0-0.4,0-0.5s0-0.4,0-0.5h0c-0.1,0.2-0.2,0.3-0.3,0.5
		s-0.3,0.3-0.5,0.4c-0.2,0.1-0.4,0.2-0.6,0.3s-0.5,0.1-0.8,0.1c-0.4,0-0.8-0.1-1.1-0.2s-0.6-0.3-0.8-0.5s-0.4-0.5-0.5-0.9
		c-0.1-0.3-0.1-0.7-0.1-1.1v-4.1h1.1v4c0,0.6,0.1,1,0.4,1.3s0.6,0.5,1.1,0.5c0.4,0,0.7-0.1,0.9-0.2s0.5-0.3,0.6-0.5
		c0.2-0.2,0.3-0.5,0.4-0.8s0.1-0.7,0.1-1v-3.2h1.1L146.1,510.6L146.1,510.6z"/>
	<path d="M148.1,506.4c0.3-0.4,0.7-0.6,1.2-0.8s0.9-0.2,1.4-0.2c1,0,1.7,0.2,2.1,0.7s0.6,1.2,0.6,2.1v2.9c0,0.2,0,0.4,0,0.6
		s0,0.4,0.1,0.6h-1.1c0-0.2-0.1-0.3-0.1-0.5s0-0.4,0-0.5h0c-0.2,0.3-0.5,0.6-0.9,0.8c-0.4,0.2-0.8,0.3-1.3,0.3c-0.3,0-0.7,0-1-0.1
		s-0.6-0.2-0.8-0.4c-0.2-0.2-0.4-0.4-0.5-0.6s-0.2-0.5-0.2-0.9c0-0.5,0.1-1,0.4-1.3c0.3-0.3,0.6-0.5,1.1-0.7
		c0.4-0.1,0.9-0.2,1.4-0.3s0.9-0.1,1.3-0.1h0.4v-0.2c0-0.5-0.1-0.9-0.4-1.1c-0.3-0.2-0.7-0.4-1.2-0.4c-0.4,0-0.7,0.1-1.1,0.2
		s-0.6,0.3-0.9,0.5L148.1,506.4L148.1,506.4z M151.3,509c-0.7,0-1.3,0.1-1.7,0.3c-0.4,0.2-0.6,0.5-0.6,1c0,0.4,0.1,0.7,0.4,0.9
		c0.3,0.2,0.6,0.3,1,0.3c0.3,0,0.6,0,0.8-0.2c0.2-0.1,0.4-0.2,0.6-0.4s0.3-0.4,0.4-0.6s0.1-0.5,0.1-0.8V509L151.3,509L151.3,509z"/>
	<path d="M155.5,507.1c0-0.3,0-0.6,0-0.9c0-0.3,0-0.5,0-0.7h1.1c0,0.2,0,0.4,0,0.5c0,0.2,0,0.4,0,0.5h0c0.1-0.2,0.2-0.3,0.3-0.5
		c0.1-0.1,0.3-0.3,0.5-0.4c0.2-0.1,0.4-0.2,0.6-0.3s0.5-0.1,0.8-0.1c0.1,0,0.1,0,0.2,0c0.1,0,0.1,0,0.2,0.1l-0.1,1.1
		c-0.2-0.1-0.4-0.1-0.6-0.1c-0.7,0-1.2,0.2-1.5,0.7s-0.5,1-0.5,1.8v3.2h-1.1L155.5,507.1L155.5,507.1z"/>
	<path d="M166.2,511c-0.4,0.5-0.8,0.9-1.3,1.1c-0.5,0.2-1,0.3-1.6,0.3c-0.5,0-1-0.1-1.4-0.3c-0.4-0.2-0.8-0.4-1.1-0.7
		s-0.5-0.7-0.7-1.1c-0.2-0.4-0.2-0.9-0.2-1.4c0-0.5,0.1-1,0.2-1.4s0.4-0.8,0.7-1.1s0.7-0.5,1.1-0.7s0.9-0.2,1.4-0.2
		c0.5,0,0.9,0.1,1.3,0.2c0.4,0.2,0.7,0.4,1,0.7s0.5,0.7,0.6,1.1s0.2,0.9,0.2,1.5v0.4h-5.4c0,0.3,0.1,0.6,0.2,0.8s0.3,0.5,0.5,0.7
		s0.4,0.4,0.7,0.5c0.2,0.1,0.5,0.2,0.8,0.2c0.5,0,0.9-0.1,1.2-0.2s0.6-0.4,0.9-0.8L166.2,511L166.2,511z M165.3,508.3
		c0-0.6-0.2-1-0.6-1.4s-0.8-0.5-1.4-0.5s-1.1,0.2-1.5,0.5s-0.6,0.8-0.7,1.4H165.3z"/>
	<path d="M179.2,512.2h-1.1l-1.9-5.1h0l-1.7,5.1h-1.1l-2.1-6.6h1.2l1.5,5.1h0l1.7-5.1h1.2l1.7,5.1h0l1.5-5.1h1.2L179.2,512.2
		L179.2,512.2z"/>
	<path d="M182.5,502.9c0-0.2,0.1-0.4,0.2-0.6c0.2-0.2,0.4-0.2,0.6-0.2s0.4,0.1,0.6,0.2c0.2,0.2,0.2,0.4,0.2,0.6
		c0,0.2-0.1,0.4-0.2,0.6s-0.4,0.2-0.6,0.2s-0.4-0.1-0.6-0.2C182.6,503.4,182.5,503.2,182.5,502.9L182.5,502.9z M182.8,505.5h1.1v6.6
		h-1.1V505.5L182.8,505.5z"/>
	<path d="M191.6,511L191.6,511c-0.2,0.4-0.6,0.7-1,1c-0.4,0.3-1,0.4-1.6,0.4c-0.5,0-0.9-0.1-1.3-0.3s-0.8-0.4-1.1-0.7
		s-0.5-0.7-0.7-1.1c-0.2-0.4-0.2-0.9-0.2-1.4s0.1-1,0.2-1.4c0.2-0.4,0.4-0.8,0.7-1.1c0.3-0.3,0.7-0.6,1.1-0.7
		c0.4-0.2,0.9-0.3,1.4-0.3c0.5,0,0.9,0.1,1.3,0.3c0.4,0.2,0.8,0.5,1.1,0.8h0v-5h1.1v10.7h-1.1V511L191.6,511z M191.6,508.9
		c0-0.4-0.1-0.7-0.2-1s-0.3-0.6-0.5-0.8c-0.2-0.2-0.5-0.4-0.7-0.5c-0.3-0.1-0.6-0.2-1-0.2s-0.7,0.1-1,0.2c-0.3,0.1-0.5,0.3-0.7,0.5
		c-0.2,0.2-0.4,0.5-0.5,0.8s-0.2,0.6-0.2,1s0.1,0.7,0.2,1s0.3,0.6,0.5,0.8c0.2,0.2,0.5,0.4,0.7,0.5c0.3,0.1,0.6,0.2,1,0.2
		s0.7-0.1,1-0.2c0.3-0.1,0.5-0.3,0.7-0.5c0.2-0.2,0.4-0.5,0.5-0.8C191.5,509.5,191.6,509.2,191.6,508.9z"/>
	<path d="M198.4,506.5h-2v3.3c0,0.2,0,0.4,0,0.6c0,0.2,0.1,0.3,0.1,0.5c0.1,0.1,0.2,0.2,0.3,0.3s0.3,0.1,0.6,0.1
		c0.2,0,0.3,0,0.5-0.1s0.3-0.1,0.5-0.2l0,1c-0.2,0.1-0.4,0.2-0.6,0.2c-0.2,0-0.4,0.1-0.7,0.1c-0.4,0-0.7,0-0.9-0.2
		c-0.2-0.1-0.4-0.2-0.6-0.4s-0.2-0.4-0.3-0.7s-0.1-0.6-0.1-0.9v-3.6h-1.4v-0.9h1.4v-1.9h1.1v1.9h2L198.4,506.5L198.4,506.5z"/>
	<path d="M199.8,501.5h1.1v5h0c0.1-0.1,0.2-0.3,0.3-0.4s0.3-0.2,0.5-0.4c0.2-0.1,0.4-0.2,0.6-0.3s0.5-0.1,0.7-0.1
		c0.4,0,0.8,0.1,1.1,0.2s0.6,0.3,0.8,0.5s0.4,0.5,0.5,0.9s0.1,0.7,0.1,1.1v4.1h-1.1v-4c0-0.6-0.1-1-0.4-1.3s-0.6-0.5-1.1-0.5
		c-0.4,0-0.7,0.1-0.9,0.2s-0.5,0.3-0.6,0.5c-0.2,0.2-0.3,0.5-0.4,0.8s-0.1,0.7-0.1,1v3.2h-1.1L199.8,501.5L199.8,501.5z"/>
</g>
<g>
	<path d="M185.9,565.7h-1.1l-1.9-5.1h0l-1.7,5.1h-1.1l-2.1-6.6h1.2l1.5,5.1h0l1.7-5.1h1.2l1.7,5.1h0l1.5-5.1h1.2L185.9,565.7
		L185.9,565.7z"/>
	<path d="M189.1,556.4c0-0.2,0.1-0.4,0.2-0.6c0.2-0.2,0.4-0.2,0.6-0.2s0.4,0.1,0.6,0.2c0.2,0.2,0.2,0.3,0.2,0.6
		c0,0.2-0.1,0.4-0.2,0.6s-0.4,0.2-0.6,0.2s-0.4-0.1-0.6-0.2C189.2,556.8,189.1,556.7,189.1,556.4L189.1,556.4z M189.4,559h1.1v6.6
		h-1.1V559z"/>
	<path d="M198.2,564.5L198.2,564.5c-0.2,0.4-0.6,0.7-1,1c-0.4,0.3-1,0.4-1.6,0.4c-0.5,0-0.9-0.1-1.3-0.3s-0.8-0.4-1.1-0.7
		c-0.3-0.3-0.5-0.7-0.7-1.1c-0.2-0.4-0.2-0.9-0.2-1.4s0.1-1,0.2-1.4c0.2-0.4,0.4-0.8,0.7-1.1c0.3-0.3,0.7-0.5,1.1-0.7
		c0.4-0.2,0.9-0.3,1.4-0.3c0.5,0,0.9,0.1,1.3,0.3c0.4,0.2,0.8,0.5,1.1,0.8h0v-5h1.1v10.7h-1.1L198.2,564.5L198.2,564.5z
		 M198.2,562.3c0-0.3-0.1-0.7-0.2-1s-0.3-0.6-0.5-0.8c-0.2-0.2-0.5-0.4-0.7-0.5c-0.3-0.1-0.6-0.2-1-0.2s-0.7,0.1-1,0.2
		c-0.3,0.1-0.5,0.3-0.7,0.5c-0.2,0.2-0.4,0.5-0.5,0.8c-0.1,0.3-0.2,0.6-0.2,1s0.1,0.7,0.2,1s0.3,0.6,0.5,0.8
		c0.2,0.2,0.5,0.4,0.7,0.5c0.3,0.1,0.6,0.2,1,0.2s0.7-0.1,1-0.2s0.5-0.3,0.7-0.5s0.4-0.5,0.5-0.8S198.2,562.7,198.2,562.3z"/>
	<path d="M205,560h-2v3.3c0,0.2,0,0.4,0,0.6c0,0.2,0.1,0.3,0.1,0.5s0.2,0.2,0.3,0.3c0.1,0.1,0.3,0.1,0.6,0.1c0.2,0,0.3,0,0.5-0.1
		s0.3-0.1,0.5-0.2l0,1c-0.2,0.1-0.4,0.2-0.6,0.2c-0.2,0-0.4,0.1-0.7,0.1c-0.4,0-0.7,0-0.9-0.2c-0.2-0.1-0.4-0.2-0.6-0.4
		s-0.2-0.4-0.3-0.7s-0.1-0.6-0.1-0.9V560h-1.4V559h1.4v-1.9h1.1v1.9h2V560z"/>
	<path d="M206.4,554.9h1.1v5h0c0.1-0.1,0.2-0.3,0.3-0.4s0.3-0.2,0.5-0.3c0.2-0.1,0.4-0.2,0.6-0.2s0.5-0.1,0.7-0.1
		c0.4,0,0.8,0.1,1.1,0.2s0.6,0.3,0.8,0.5c0.2,0.2,0.4,0.5,0.5,0.9c0.1,0.3,0.1,0.7,0.1,1.1v4.1h-1.1v-4c0-0.6-0.1-1-0.4-1.3
		s-0.6-0.5-1.1-0.5c-0.4,0-0.7,0.1-0.9,0.2s-0.5,0.3-0.6,0.5s-0.3,0.5-0.4,0.8s-0.1,0.7-0.1,1v3.2h-1.1L206.4,554.9L206.4,554.9z"/>
</g>
<line class="st10" x1="222.1" y1="517.5" x2="258.6" y2="517.5"/>
</svg>
