<?xml version="1.0" encoding="UTF-8"?><svg id="Layer_1" xmlns="http://www.w3.org/2000/svg" viewBox="0 0 385.3 566.08"><defs><style>.cls-1,.cls-2,.cls-3,.cls-4,.cls-5,.cls-6,.cls-7,.cls-8,.cls-9,.cls-10{fill:none;}.cls-11{letter-spacing:-.05em;}.cls-12{letter-spacing:-.05em;}.cls-13,.cls-2,.cls-3,.cls-4,.cls-5,.cls-6,.cls-7,.cls-8,.cls-9,.cls-10{stroke:#000;stroke-miterlimit:10;}.cls-13,.cls-2,.cls-3,.cls-4,.cls-6,.cls-7,.cls-8,.cls-9,.cls-10{stroke-width:1.42px;}.cls-2{stroke-linecap:square;}.cls-14{font-family:Futura-Bold, Futura;font-size:20.23px;}.cls-15{letter-spacing:-.04em;}.cls-4{stroke-dasharray:0 0 2.84 2.84;}.cls-16{letter-spacing:-.04em;}.cls-6{stroke-dasharray:0 0 2.83 2.83;}.cls-7{stroke-dasharray:0 0 2.81 2.81;}.cls-8{stroke-dasharray:0 0 2.89 2.89;}.cls-17{letter-spacing:-.02em;}.cls-9{stroke-dasharray:0 0 2.76 2.76;}.cls-10{stroke-dasharray:0 0 2.99 2.99;}</style></defs><g><path class="cls-1" d="M312.29,84.31V481.17H82.69V84.31h15.64c0-25.06,20.32-45.38,45.39-45.38h107.54c25.07,0,45.38,20.32,45.38,45.38h15.65Z"/><path d="M313.54,482.42H81.44V83.06h15.66c.66-25.14,21.32-45.38,46.62-45.38h107.54c25.29,0,45.95,20.24,46.61,45.38h15.67V482.42Zm-229.6-2.5h227.1V85.56h-15.65v-1.25c0-24.33-19.8-44.13-44.13-44.13h-107.54c-24.34,0-44.14,19.8-44.14,44.13v1.25h-15.64V479.92Z"/></g><rect class="cls-3" x="82.69" y="424.43" width="28.7" height="56.74"/><rect class="cls-13" x="111.39" y="424.43" width="28.7" height="56.74"/><rect class="cls-3" x="140.09" y="424.43" width="28.7" height="56.74"/><rect class="cls-3" x="168.79" y="424.43" width="28.7" height="56.74"/><rect class="cls-3" x="197.49" y="424.43" width="28.7" height="56.74"/><rect class="cls-3" x="226.19" y="424.43" width="28.7" height="56.74"/><rect class="cls-3" x="254.89" y="424.43" width="28.7" height="56.74"/><rect class="cls-3" x="283.6" y="424.43" width="28.7" height="56.74"/><rect class="cls-3" x="82.69" y="367.7" width="28.7" height="56.74"/><rect class="cls-3" x="111.39" y="367.7" width="28.7" height="56.74"/><rect class="cls-3" x="140.09" y="367.7" width="28.7" height="56.74"/><rect class="cls-3" x="168.79" y="367.7" width="28.7" height="56.74"/><rect class="cls-3" x="197.49" y="367.7" width="28.7" height="56.74"/><rect class="cls-3" x="226.19" y="367.7" width="28.7" height="56.74"/><rect class="cls-3" x="254.89" y="367.7" width="28.7" height="56.74"/><rect class="cls-3" x="283.6" y="367.7" width="28.7" height="56.74"/><rect class="cls-3" x="82.69" y="310.96" width="28.7" height="56.74"/><rect class="cls-3" x="111.39" y="310.96" width="28.7" height="56.74"/><rect class="cls-3" x="140.09" y="310.96" width="28.7" height="56.74"/><rect class="cls-3" x="168.79" y="310.96" width="28.7" height="56.74"/><rect class="cls-3" x="197.49" y="310.96" width="28.7" height="56.74"/><rect class="cls-3" x="226.19" y="310.96" width="28.7" height="56.74"/><rect class="cls-3" x="254.89" y="310.96" width="28.7" height="56.74"/><rect class="cls-3" x="283.6" y="310.96" width="28.7" height="56.74"/><line class="cls-13" x1="111.39" y1="367.7" x2="140.09" y2="310.96"/><line class="cls-13" x1="140.09" y1="367.7" x2="111.39" y2="310.96"/><path d="M254.17,214.6v-58.18h0c0-31.3-25.38-56.68-56.68-56.68s-56.68,25.38-56.68,56.68h0v58.18h0c0,31.3,25.38,56.68,56.68,56.68s56.68-25.38,56.68-56.68h0Zm-56.68,28.33c-15.62,0-28.33-12.71-28.33-28.33h0v-58.18h0c0-15.62,12.71-28.33,28.33-28.33s28.33,12.71,28.33,28.33h0v58.18h0c0,15.62-12.71,28.33-28.33,28.33Z"/><text class="cls-14" transform="translate(109.67 299)"><tspan class="cls-15" x="0" y="0">N</tspan><tspan class="cls-12" x="17.68" y="0">OL</tspan><tspan class="cls-17" x="45.29" y="0">L</tspan><tspan class="cls-11" x="55.75" y="0">ANS </tspan><tspan class="cls-16" x="106.62" y="0">N</tspan><tspan class="cls-11" x="124.16" y="0">AMN</tspan></text><circle class="cls-5" cx="144.97" cy="85.56" r="2.61"/><circle class="cls-5" cx="250.02" cy="85.56" r="2.61"/><g><line class="cls-3" x1="304.41" y1="214.6" x2="255.71" y2="214.6"/><polygon points="260.41 208.8 261.37 209.84 256.25 214.59 261.37 219.35 260.41 220.39 254.17 214.59 260.41 208.8"/></g><g><line class="cls-3" x1="327.75" y1="18.84" x2="313.83" y2="18.84"/><polygon points="318.53 13.04 319.5 14.08 314.38 18.84 319.5 23.6 318.53 24.64 312.3 18.84 318.53 13.04"/></g><g><line class="cls-3" x1="143.18" y1="83.35" x2="113.83" y2="54"/><polygon points="121.25 53.22 121.2 54.63 114.22 54.38 114.47 61.36 113.06 61.41 112.75 52.91 121.25 53.22"/></g><g><line class="cls-3" x1="211.84" y1="214.6" x2="224.29" y2="214.6"/><polygon points="219.59 220.39 218.63 219.35 223.75 214.6 218.63 209.84 219.59 208.8 225.83 214.6 219.59 220.39"/></g><g><line class="cls-3" x1="211.88" y1="18.84" x2="295.16" y2="18.84"/><polygon points="290.47 24.64 289.5 23.6 294.62 18.84 289.5 14.08 290.47 13.05 296.7 18.84 290.47 24.64"/></g><g><path d="M268.09,191.78c0-.3,0-.59-.03-.85-.02-.26-.03-.5-.03-.72h1.05c0,.18,0,.36,.01,.54,0,.18,.01,.36,.01,.55h.03c.08-.16,.18-.32,.32-.47,.14-.15,.3-.29,.49-.4,.19-.12,.4-.21,.64-.28,.24-.07,.49-.11,.77-.11,.43,0,.81,.07,1.13,.2,.32,.13,.58,.32,.79,.55s.36,.52,.46,.86c.1,.34,.15,.7,.15,1.1v4.1h-1.11v-3.98c0-.56-.12-1-.37-1.32s-.63-.48-1.15-.48c-.36,0-.67,.06-.93,.18-.26,.12-.47,.3-.64,.52-.17,.23-.29,.5-.37,.81-.08,.31-.12,.66-.12,1.03v3.23h-1.11v-5.06Z"/><path d="M275.6,193.52c0-.52,.09-.99,.27-1.42,.18-.43,.42-.79,.74-1.1,.31-.31,.68-.55,1.12-.72s.91-.25,1.42-.25,.98,.08,1.42,.25,.81,.41,1.12,.72c.31,.31,.56,.67,.74,1.1,.18,.42,.27,.9,.27,1.42s-.09,.99-.27,1.42c-.18,.43-.42,.79-.74,1.1-.31,.31-.68,.55-1.12,.72s-.91,.25-1.42,.25-.98-.08-1.42-.25-.81-.41-1.12-.72c-.31-.31-.56-.67-.74-1.1-.18-.42-.27-.9-.27-1.42Zm1.19,0c0,.35,.05,.67,.16,.97,.11,.3,.27,.56,.47,.78,.21,.22,.46,.4,.74,.52,.29,.13,.61,.19,.97,.19s.68-.06,.97-.19c.29-.13,.54-.3,.74-.52,.21-.22,.37-.48,.47-.78,.11-.3,.16-.62,.16-.97s-.05-.67-.16-.97c-.11-.3-.27-.56-.47-.78-.21-.22-.46-.4-.74-.52-.29-.13-.61-.19-.97-.19s-.68,.06-.97,.19c-.29,.13-.54,.3-.74,.52-.21,.22-.37,.48-.47,.78s-.16,.62-.16,.97Z"/><path d="M284.51,186.12h1.11v10.71h-1.11v-10.71Z"/><path d="M287.94,186.12h1.11v10.71h-1.11v-10.71Z"/><path d="M291.17,191.06c.34-.35,.74-.61,1.21-.77s.94-.25,1.42-.25c.98,0,1.69,.23,2.13,.69s.65,1.17,.65,2.11v2.85c0,.19,0,.38,.03,.59s.04,.39,.07,.56h-1.06c-.04-.15-.06-.32-.06-.5s0-.35,0-.49h-.03c-.22,.34-.51,.62-.87,.84-.36,.22-.8,.33-1.31,.33-.34,0-.66-.04-.96-.13s-.56-.21-.78-.38c-.22-.17-.4-.37-.53-.62-.13-.25-.2-.53-.2-.85,0-.55,.14-.98,.43-1.29,.28-.31,.63-.54,1.06-.69,.42-.15,.87-.25,1.36-.28s.93-.06,1.34-.06h.42v-.2c0-.48-.14-.85-.43-1.09-.29-.25-.69-.37-1.21-.37-.36,0-.71,.06-1.06,.18s-.65,.3-.91,.55l-.69-.72Zm3.2,2.59c-.71,0-1.27,.1-1.69,.3-.42,.2-.62,.52-.62,.98,0,.42,.14,.71,.42,.89,.28,.17,.63,.26,1.04,.26,.32,0,.6-.05,.84-.16,.24-.11,.44-.25,.6-.43,.16-.18,.28-.39,.37-.63s.13-.5,.14-.77v-.42h-1.11Z"/><path d="M298.63,191.78c0-.3,0-.59-.03-.85-.02-.26-.03-.5-.03-.72h1.05c0,.18,0,.36,.01,.54,0,.18,.01,.36,.01,.55h.03c.08-.16,.18-.32,.32-.47,.14-.15,.3-.29,.49-.4,.19-.12,.4-.21,.64-.28,.24-.07,.49-.11,.77-.11,.43,0,.81,.07,1.13,.2,.32,.13,.58,.32,.79,.55s.36,.52,.46,.86c.1,.34,.15,.7,.15,1.1v4.1h-1.11v-3.98c0-.56-.12-1-.37-1.32s-.63-.48-1.15-.48c-.36,0-.67,.06-.93,.18-.26,.12-.47,.3-.64,.52-.17,.23-.29,.5-.37,.81-.08,.31-.12,.66-.12,1.03v3.23h-1.11v-5.06Z"/><path d="M278.11,208.18h-1.09l-1.88-5.1h-.03l-1.67,5.1h-1.13l-2.15-6.63h1.22l1.52,5.1h.03l1.71-5.1h1.16l1.74,5.1h.03l1.5-5.1h1.19l-2.14,6.63Z"/><path d="M281.35,198.95c0-.22,.08-.41,.23-.57,.16-.16,.35-.24,.57-.24s.42,.08,.57,.24c.16,.16,.23,.35,.23,.57,0,.24-.08,.43-.23,.58-.15,.15-.35,.23-.58,.23s-.43-.08-.58-.23-.23-.34-.23-.58Zm.26,2.59h1.11v6.63h-1.11v-6.63Z"/><path d="M290.44,207h-.03c-.21,.38-.54,.7-.99,.96-.45,.26-.97,.39-1.57,.39-.46,0-.9-.09-1.3-.26s-.76-.42-1.06-.73-.53-.68-.7-1.11c-.17-.42-.25-.89-.25-1.39s.08-.96,.25-1.39c.17-.42,.41-.79,.71-1.11,.3-.31,.67-.55,1.1-.73,.43-.17,.9-.26,1.42-.26,.48,0,.92,.1,1.33,.3,.4,.2,.75,.48,1.06,.84h.03v-5.04h1.11v10.71h-1.11v-1.18Zm0-2.14c0-.35-.05-.67-.16-.97-.11-.3-.27-.56-.47-.78-.21-.22-.46-.4-.74-.52-.29-.13-.61-.19-.97-.19s-.68,.06-.97,.19c-.29,.13-.54,.3-.74,.52-.21,.22-.37,.48-.47,.78-.11,.3-.16,.62-.16,.97s.05,.67,.16,.97,.27,.56,.47,.78,.46,.4,.74,.52,.61,.19,.97,.19,.68-.06,.97-.19c.29-.13,.54-.3,.74-.52,.21-.22,.37-.48,.47-.78,.11-.3,.16-.62,.16-.97Z"/><path d="M297.24,202.48h-1.96v3.32c0,.22,0,.42,.01,.6,0,.18,.05,.35,.11,.48s.17,.25,.3,.33c.13,.08,.32,.12,.57,.12,.16,0,.33-.02,.5-.06,.17-.04,.33-.09,.48-.17l.04,1.01c-.19,.08-.4,.15-.63,.18-.23,.04-.45,.06-.66,.06-.4,0-.71-.05-.95-.16-.24-.1-.42-.25-.55-.44-.13-.19-.22-.42-.26-.7-.04-.28-.06-.59-.06-.93v-3.64h-1.45v-.94h1.45v-1.88h1.11v1.88h1.96v.94Z"/><path d="M298.63,197.46h1.11v5h.03c.08-.13,.18-.26,.31-.39,.13-.13,.29-.24,.48-.35,.18-.1,.39-.19,.62-.25s.47-.1,.72-.1c.43,0,.81,.07,1.13,.2,.32,.13,.58,.32,.79,.55,.21,.24,.36,.52,.46,.86,.1,.33,.15,.7,.15,1.1v4.1h-1.11v-3.98c0-.56-.12-1-.37-1.32s-.63-.48-1.15-.48c-.36,0-.67,.06-.93,.18s-.47,.3-.64,.52c-.17,.23-.29,.5-.37,.81-.08,.31-.12,.66-.12,1.04v3.23h-1.11v-10.71Z"/></g><g><path d="M216.39,6.76h-1.96v3.32c0,.22,0,.42,.01,.6,0,.18,.05,.35,.11,.48s.17,.25,.3,.33c.13,.08,.32,.12,.57,.12,.16,0,.33-.02,.5-.06,.17-.04,.33-.09,.48-.17l.04,1.01c-.19,.08-.4,.15-.63,.18-.23,.04-.45,.06-.66,.06-.4,0-.71-.05-.95-.16-.24-.1-.42-.25-.55-.44-.13-.19-.22-.42-.26-.7-.04-.28-.06-.59-.06-.93v-3.64h-1.45v-.94h1.45v-1.88h1.11v1.88h1.96v.94Z"/><path d="M217.38,9.14c0-.52,.09-.99,.27-1.42,.18-.42,.42-.79,.74-1.1,.31-.31,.68-.54,1.12-.71,.43-.17,.91-.26,1.42-.26s.98,.08,1.42,.26c.43,.17,.81,.41,1.12,.71,.31,.31,.56,.67,.74,1.1,.18,.43,.27,.9,.27,1.42s-.09,.99-.27,1.42-.42,.79-.74,1.1c-.31,.31-.68,.55-1.12,.72s-.91,.25-1.42,.25-.98-.08-1.42-.25-.81-.41-1.12-.72c-.31-.31-.56-.67-.74-1.1s-.27-.9-.27-1.42Zm1.19,0c0,.35,.05,.67,.16,.97s.27,.56,.47,.78,.46,.4,.74,.52,.61,.19,.97,.19,.68-.06,.97-.19c.29-.13,.54-.3,.74-.52,.21-.22,.37-.48,.47-.78,.11-.3,.16-.62,.16-.97s-.05-.67-.16-.97c-.11-.3-.27-.56-.47-.78-.21-.22-.46-.4-.74-.52-.29-.13-.61-.19-.97-.19s-.68,.06-.97,.19c-.29,.13-.54,.3-.74,.52-.21,.22-.37,.48-.47,.78-.11,.3-.16,.62-.16,.97Z"/><path d="M226.14,5.83h1.11v.96h.03c.3-.36,.65-.64,1.06-.84s.84-.3,1.33-.3c.52,0,.99,.09,1.42,.26,.43,.17,.8,.42,1.1,.73,.3,.31,.54,.68,.71,1.11,.17,.43,.26,.89,.26,1.39s-.09,.96-.26,1.39-.4,.79-.7,1.11-.65,.55-1.06,.73-.84,.26-1.3,.26c-.59,0-1.12-.13-1.57-.39-.45-.26-.78-.58-.99-.96h-.03v4.41h-1.11V5.83Zm1.11,3.32c0,.35,.05,.67,.16,.97s.27,.56,.47,.78,.46,.4,.74,.52,.61,.19,.97,.19,.68-.06,.97-.19,.54-.3,.74-.52,.37-.48,.48-.78c.11-.3,.16-.62,.16-.97s-.05-.67-.16-.97c-.11-.3-.27-.56-.48-.78-.21-.22-.46-.4-.74-.52-.29-.13-.61-.19-.97-.19s-.68,.06-.97,.19c-.29,.13-.54,.3-.74,.52-.21,.22-.37,.48-.47,.78-.11,.3-.16,.62-.16,.97Z"/><path d="M238.44,9.14c0-.52,.09-.99,.27-1.42,.18-.42,.42-.79,.74-1.1,.31-.31,.68-.54,1.12-.71,.43-.17,.91-.26,1.42-.26s.98,.08,1.42,.26c.43,.17,.81,.41,1.12,.71,.31,.31,.56,.67,.74,1.1,.18,.43,.27,.9,.27,1.42s-.09,.99-.27,1.42-.42,.79-.74,1.1c-.31,.31-.68,.55-1.12,.72s-.91,.25-1.42,.25-.98-.08-1.42-.25-.81-.41-1.12-.72c-.31-.31-.56-.67-.74-1.1s-.27-.9-.27-1.42Zm1.19,0c0,.35,.05,.67,.16,.97s.27,.56,.47,.78,.46,.4,.74,.52,.61,.19,.97,.19,.68-.06,.97-.19c.29-.13,.54-.3,.74-.52,.21-.22,.37-.48,.47-.78,.11-.3,.16-.62,.16-.97s-.05-.67-.16-.97c-.11-.3-.27-.56-.47-.78-.21-.22-.46-.4-.74-.52-.29-.13-.61-.19-.97-.19s-.68,.06-.97,.19c-.29,.13-.54,.3-.74,.52-.21,.22-.37,.48-.47,.78-.11,.3-.16,.62-.16,.97Z"/><path d="M247.83,6.76h-1.45v-.94h1.45v-1.49c0-.41,.04-.78,.11-1.11,.08-.33,.21-.63,.39-.87,.18-.25,.43-.44,.73-.57s.68-.21,1.12-.21c.14,0,.29,.01,.45,.04,.16,.03,.29,.07,.4,.13l-.16,.99c-.26-.09-.52-.14-.75-.14-.28,0-.51,.05-.67,.15-.16,.1-.28,.24-.36,.41-.08,.17-.13,.38-.14,.63-.01,.25-.02,.51-.02,.79v1.25h1.62v.94h-1.62v5.7h-1.11V6.76Z"/><path d="M252.05,6.76h-1.45v-.94h1.45v-1.49c0-.41,.04-.78,.11-1.11,.08-.33,.21-.63,.39-.87,.18-.25,.43-.44,.73-.57s.68-.21,1.12-.21c.14,0,.29,.01,.45,.04,.16,.03,.29,.07,.4,.13l-.16,.99c-.26-.09-.52-.14-.75-.14-.28,0-.51,.05-.67,.15-.16,.1-.28,.24-.36,.41-.08,.17-.13,.38-.14,.63-.01,.25-.02,.51-.02,.79v1.25h1.62v.94h-1.62v5.7h-1.11V6.76Z"/><path d="M256.1,10.72c.22,.27,.46,.49,.72,.65,.26,.16,.59,.24,.99,.24,.17,0,.34-.02,.52-.06s.33-.1,.48-.18,.25-.19,.34-.32c.08-.13,.13-.28,.13-.46s-.04-.33-.12-.44-.19-.21-.32-.29c-.13-.08-.28-.14-.45-.19-.17-.05-.34-.09-.52-.13-.31-.07-.61-.14-.89-.23s-.53-.2-.74-.33-.38-.31-.51-.53c-.13-.22-.19-.5-.19-.84,0-.32,.07-.6,.21-.85,.14-.25,.33-.45,.57-.61,.24-.16,.5-.28,.79-.37,.29-.08,.59-.13,.91-.13,.47,0,.91,.09,1.31,.28,.4,.19,.72,.5,.94,.92l-.92,.61c-.14-.24-.33-.43-.56-.57s-.51-.22-.84-.22c-.15,0-.3,.02-.46,.06-.16,.04-.29,.09-.42,.17-.12,.08-.22,.17-.3,.29s-.12,.25-.12,.4c0,.14,.04,.26,.13,.36,.09,.1,.21,.19,.37,.26,.16,.08,.33,.14,.54,.2s.41,.1,.63,.14c.29,.06,.57,.13,.84,.22s.5,.21,.7,.36c.2,.15,.35,.34,.47,.57,.11,.23,.17,.51,.17,.84,0,.38-.08,.7-.23,.96-.15,.26-.35,.48-.6,.65-.25,.17-.53,.29-.85,.36-.32,.08-.64,.11-.97,.11-.57,0-1.06-.09-1.47-.26-.41-.17-.78-.5-1.11-.97l.88-.68Z"/><path d="M267.94,11.25c-.4,.51-.83,.87-1.3,1.07s-1.02,.3-1.64,.3c-.52,0-.99-.09-1.4-.28s-.77-.43-1.06-.74c-.29-.31-.51-.68-.67-1.11-.16-.42-.23-.88-.23-1.36,0-.51,.08-.98,.25-1.41,.17-.43,.41-.8,.71-1.11,.3-.31,.66-.54,1.08-.71,.42-.17,.87-.26,1.36-.26,.46,0,.89,.08,1.28,.23,.39,.16,.72,.38,1,.68,.28,.3,.49,.66,.64,1.09s.23,.92,.23,1.47v.35h-5.36c.02,.28,.09,.55,.21,.81,.12,.26,.27,.49,.46,.68,.19,.19,.41,.35,.67,.46,.25,.11,.53,.17,.84,.17,.48,0,.89-.08,1.22-.25s.63-.42,.89-.75l.84,.65Zm-.95-2.71c-.02-.57-.2-1.02-.55-1.36-.35-.34-.83-.51-1.45-.51s-1.11,.17-1.49,.51c-.38,.34-.6,.79-.68,1.36h4.17Z"/><path d="M273.54,6.76h-1.96v3.32c0,.22,0,.42,.01,.6,0,.18,.05,.35,.11,.48s.17,.25,.3,.33c.13,.08,.32,.12,.57,.12,.16,0,.33-.02,.5-.06,.17-.04,.33-.09,.48-.17l.04,1.01c-.19,.08-.4,.15-.63,.18-.23,.04-.45,.06-.66,.06-.4,0-.71-.05-.95-.16-.24-.1-.42-.25-.55-.44-.13-.19-.22-.42-.26-.7-.04-.28-.06-.59-.06-.93v-3.64h-1.45v-.94h1.45v-1.88h1.11v1.88h1.96v.94Z"/></g><g><path d="M344.37,284.23c0-.3,0-.59-.03-.85-.02-.26-.03-.5-.03-.72h1.05c0,.18,0,.36,.01,.54,0,.18,.01,.36,.01,.55h.03c.08-.16,.18-.32,.32-.47,.14-.15,.3-.29,.49-.4,.19-.12,.4-.21,.64-.28,.24-.07,.49-.11,.77-.11,.43,0,.81,.07,1.13,.2,.32,.13,.58,.32,.79,.55s.36,.52,.46,.86c.1,.34,.15,.7,.15,1.1v4.1h-1.11v-3.98c0-.56-.12-1-.37-1.32s-.63-.48-1.15-.48c-.36,0-.67,.06-.93,.18-.26,.12-.47,.3-.64,.52-.17,.23-.29,.5-.37,.81-.08,.31-.12,.66-.12,1.03v3.23h-1.11v-5.06Z"/><path d="M352.18,283.5c.34-.35,.74-.61,1.21-.77s.94-.25,1.42-.25c.98,0,1.69,.23,2.13,.69s.65,1.17,.65,2.11v2.85c0,.19,0,.38,.03,.59s.04,.39,.07,.56h-1.06c-.04-.15-.06-.32-.06-.5s0-.35,0-.49h-.03c-.22,.34-.51,.62-.87,.84-.36,.22-.8,.33-1.31,.33-.34,0-.66-.04-.96-.13s-.56-.21-.78-.38c-.22-.17-.4-.37-.53-.62-.13-.25-.2-.53-.2-.85,0-.55,.14-.98,.43-1.29,.28-.31,.63-.54,1.06-.69,.42-.15,.87-.25,1.36-.28s.93-.06,1.34-.06h.42v-.2c0-.48-.14-.85-.43-1.09-.29-.25-.69-.37-1.21-.37-.36,0-.71,.06-1.06,.18s-.65,.3-.91,.55l-.69-.72Zm3.2,2.59c-.71,0-1.27,.1-1.69,.3-.42,.2-.62,.52-.62,.98,0,.42,.14,.71,.42,.89,.28,.17,.63,.26,1.04,.26,.32,0,.6-.05,.84-.16,.24-.11,.44-.25,.6-.43,.16-.18,.28-.39,.37-.63s.13-.5,.14-.77v-.42h-1.11Z"/><path d="M359.64,284.23c0-.3,0-.59-.03-.85-.02-.26-.03-.5-.03-.72h1.05c0,.18,0,.36,.01,.54,0,.18,.01,.36,.01,.55h.03c.08-.16,.18-.32,.32-.47,.14-.15,.3-.29,.49-.4,.19-.12,.4-.21,.64-.28,.24-.07,.49-.11,.77-.11,.36,0,.66,.04,.9,.13,.24,.09,.44,.2,.6,.33,.16,.13,.29,.26,.38,.41,.09,.15,.16,.28,.22,.39,.25-.4,.53-.71,.85-.93s.74-.33,1.25-.33c.47,0,.87,.06,1.19,.19,.32,.13,.58,.31,.78,.55,.2,.24,.34,.53,.43,.88s.13,.73,.13,1.15v4.03h-1.11v-3.97c0-.23-.02-.45-.07-.67-.05-.22-.13-.41-.25-.58-.12-.17-.29-.31-.5-.41-.21-.1-.47-.16-.79-.16-.24,0-.46,.05-.67,.14-.21,.09-.39,.23-.55,.4s-.28,.38-.37,.62c-.09,.24-.13,.51-.13,.8v3.83h-1.11v-3.76c0-.74-.1-1.26-.3-1.57-.2-.31-.52-.46-.98-.46-.36,0-.67,.06-.93,.18-.26,.12-.47,.3-.64,.52-.17,.23-.29,.5-.37,.81-.08,.31-.12,.66-.12,1.03v3.23h-1.11v-5.06Z"/><path d="M377.65,288.08c-.4,.51-.83,.87-1.3,1.07s-1.02,.3-1.64,.3c-.52,0-.99-.09-1.4-.28-.42-.18-.77-.43-1.06-.74-.29-.31-.51-.68-.67-1.11-.16-.42-.23-.88-.23-1.36,0-.51,.08-.98,.25-1.41,.17-.43,.41-.8,.71-1.11,.3-.31,.66-.55,1.08-.72s.87-.25,1.36-.25c.46,0,.89,.08,1.28,.23,.39,.16,.72,.38,1,.68,.28,.3,.49,.66,.64,1.09,.15,.43,.23,.92,.23,1.47v.35h-5.36c.02,.28,.09,.56,.21,.82s.27,.49,.46,.68c.19,.19,.41,.35,.67,.46,.25,.11,.53,.17,.84,.17,.48,0,.89-.08,1.22-.25s.63-.42,.89-.75l.84,.65Zm-.95-2.71c-.02-.57-.2-1.02-.55-1.36-.35-.34-.83-.51-1.45-.51s-1.11,.17-1.49,.51c-.38,.34-.6,.79-.68,1.36h4.17Z"/><path d="M344.51,298.88c.22,.27,.46,.49,.72,.65,.26,.16,.59,.24,.99,.24,.17,0,.34-.02,.52-.06s.33-.1,.48-.18,.25-.19,.34-.32c.08-.13,.13-.28,.13-.46s-.04-.33-.12-.44-.19-.21-.32-.29c-.13-.08-.28-.14-.45-.19-.17-.05-.34-.09-.52-.13-.31-.07-.61-.14-.89-.23s-.53-.2-.74-.33-.38-.31-.51-.53c-.13-.22-.19-.5-.19-.84,0-.32,.07-.6,.21-.85,.14-.25,.33-.45,.57-.61,.24-.16,.5-.28,.79-.37,.29-.08,.59-.13,.91-.13,.47,0,.91,.09,1.31,.28,.4,.19,.72,.5,.94,.92l-.92,.61c-.14-.24-.33-.43-.56-.57s-.51-.22-.84-.22c-.15,0-.3,.02-.46,.06-.16,.04-.29,.09-.42,.17-.12,.08-.22,.17-.3,.29s-.12,.25-.12,.4c0,.14,.04,.26,.13,.36,.09,.1,.21,.19,.37,.26,.16,.08,.33,.14,.54,.2s.41,.1,.63,.14c.29,.06,.57,.13,.84,.22s.5,.21,.7,.36c.2,.15,.35,.34,.47,.57,.11,.23,.17,.51,.17,.84,0,.38-.08,.7-.23,.96-.15,.26-.35,.48-.6,.65-.25,.17-.53,.29-.85,.36-.32,.08-.64,.11-.97,.11-.57,0-1.06-.09-1.47-.26-.41-.17-.78-.5-1.11-.97l.88-.68Z"/><path d="M350.37,293.99h1.11v.96h.03c.3-.36,.65-.64,1.06-.84s.84-.3,1.33-.3c.52,0,.99,.09,1.42,.26,.43,.17,.8,.42,1.1,.73,.3,.31,.54,.68,.71,1.11,.17,.43,.26,.89,.26,1.39s-.09,.96-.26,1.39-.4,.79-.7,1.11-.65,.55-1.06,.73-.84,.26-1.3,.26c-.59,0-1.12-.13-1.57-.39-.45-.26-.78-.58-.99-.96h-.03v4.41h-1.11v-9.87Zm1.11,3.32c0,.35,.05,.67,.16,.97s.27,.56,.47,.78,.46,.4,.74,.52,.61,.19,.97,.19,.68-.06,.97-.19,.54-.3,.74-.52,.37-.48,.48-.78c.11-.3,.16-.62,.16-.97s-.05-.67-.16-.97c-.11-.3-.27-.56-.48-.78-.21-.22-.46-.4-.74-.52-.29-.13-.61-.19-.97-.19s-.68,.06-.97,.19c-.29,.13-.54,.3-.74,.52-.21,.22-.37,.48-.47,.78-.11,.3-.16,.62-.16,.97Z"/><path d="M359.01,294.84c.34-.35,.74-.61,1.21-.77,.47-.17,.94-.25,1.42-.25,.98,0,1.69,.23,2.13,.69,.43,.46,.65,1.17,.65,2.11v2.85c0,.19,0,.39,.03,.59,.02,.2,.04,.39,.07,.56h-1.06c-.04-.15-.06-.32-.06-.5,0-.18,0-.35,0-.49h-.03c-.22,.34-.51,.62-.87,.84-.36,.22-.8,.33-1.31,.33-.34,0-.66-.04-.96-.13s-.56-.21-.78-.38c-.22-.17-.4-.37-.53-.62-.13-.25-.2-.53-.2-.85,0-.55,.14-.98,.43-1.29,.28-.31,.63-.54,1.06-.69,.42-.15,.87-.25,1.36-.28,.49-.04,.93-.06,1.34-.06h.42v-.2c0-.48-.14-.85-.43-1.09-.29-.25-.69-.37-1.21-.37-.36,0-.71,.06-1.06,.18s-.65,.3-.91,.54l-.69-.72Zm3.2,2.59c-.71,0-1.27,.1-1.69,.3-.42,.2-.62,.52-.62,.98,0,.42,.14,.71,.42,.89,.28,.17,.63,.26,1.04,.26,.32,0,.6-.05,.84-.16,.24-.11,.44-.25,.6-.43,.16-.18,.28-.39,.37-.63,.08-.24,.13-.5,.14-.77v-.43h-1.11Z"/><path d="M371.19,295.65c-.24-.28-.49-.49-.77-.62-.27-.13-.58-.19-.91-.19-.37,0-.69,.06-.98,.19-.28,.13-.52,.3-.7,.53-.18,.23-.32,.49-.42,.79-.09,.3-.14,.62-.14,.96s.05,.66,.16,.96,.26,.56,.45,.79c.19,.23,.43,.4,.7,.53s.58,.19,.92,.19c.73,0,1.29-.27,1.69-.82l.82,.78c-.32,.37-.7,.64-1.13,.81s-.89,.25-1.38,.25c-.51,0-.98-.08-1.4-.25-.43-.17-.79-.41-1.08-.72-.3-.31-.53-.68-.69-1.11-.17-.42-.25-.89-.25-1.4s.08-.96,.25-1.39c.17-.42,.4-.79,.7-1.11,.3-.31,.66-.55,1.08-.73,.42-.17,.89-.26,1.4-.26s.96,.08,1.4,.26c.44,.17,.82,.43,1.16,.79l-.88,.78Z"/><path d="M379.24,299.42c-.4,.51-.83,.87-1.3,1.07s-1.02,.3-1.64,.3c-.52,0-.99-.09-1.4-.28s-.77-.43-1.06-.74c-.29-.31-.51-.68-.67-1.11-.16-.42-.23-.88-.23-1.36,0-.51,.08-.98,.25-1.41,.17-.43,.41-.8,.71-1.11,.3-.31,.66-.54,1.08-.71,.42-.17,.87-.26,1.36-.26,.46,0,.89,.08,1.28,.23,.39,.16,.72,.38,1,.68,.28,.3,.49,.66,.64,1.09s.23,.92,.23,1.47v.35h-5.36c.02,.28,.09,.55,.21,.81,.12,.26,.27,.49,.46,.68,.19,.19,.41,.35,.67,.46,.25,.11,.53,.17,.84,.17,.48,0,.89-.08,1.22-.25s.63-.42,.89-.75l.84,.65Zm-.95-2.71c-.02-.57-.2-1.02-.55-1.36-.35-.34-.83-.51-1.45-.51s-1.11,.17-1.49,.51c-.38,.34-.6,.79-.68,1.36h4.17Z"/></g><g><path d="M179.33,158.04c0-.3,0-.59-.03-.85-.02-.26-.03-.5-.03-.72h1.05c0,.18,0,.36,.01,.54,0,.18,.01,.36,.01,.55h.03c.08-.16,.18-.32,.32-.47,.14-.15,.3-.29,.49-.4,.19-.12,.4-.21,.64-.28,.24-.07,.49-.11,.77-.11,.43,0,.81,.07,1.13,.2,.32,.13,.58,.32,.79,.55s.36,.52,.46,.86c.1,.34,.15,.7,.15,1.1v4.1h-1.11v-3.98c0-.56-.12-1-.37-1.32s-.63-.48-1.15-.48c-.36,0-.67,.06-.93,.18-.26,.12-.47,.3-.64,.52-.17,.23-.29,.5-.37,.81-.08,.31-.12,.66-.12,1.03v3.23h-1.11v-5.06Z"/><path d="M186.84,159.78c0-.52,.09-.99,.27-1.42,.18-.43,.42-.79,.74-1.1,.31-.31,.68-.55,1.12-.72s.91-.25,1.42-.25,.98,.08,1.42,.25,.81,.41,1.12,.72c.31,.31,.56,.67,.74,1.1,.18,.42,.27,.9,.27,1.42s-.09,.99-.27,1.42c-.18,.43-.42,.79-.74,1.1-.31,.31-.68,.55-1.12,.72s-.91,.25-1.42,.25-.98-.08-1.42-.25-.81-.41-1.12-.72c-.31-.31-.56-.67-.74-1.1-.18-.42-.27-.9-.27-1.42Zm1.19,0c0,.35,.05,.67,.16,.97,.11,.3,.27,.56,.47,.78,.21,.22,.46,.4,.74,.52,.29,.13,.61,.19,.97,.19s.68-.06,.97-.19c.29-.13,.54-.3,.74-.52,.21-.22,.37-.48,.47-.78,.11-.3,.16-.62,.16-.97s-.05-.67-.16-.97c-.11-.3-.27-.56-.47-.78-.21-.22-.46-.4-.74-.52-.29-.13-.61-.19-.97-.19s-.68,.06-.97,.19c-.29,.13-.54,.3-.74,.52-.21,.22-.37,.48-.47,.78s-.16,.62-.16,.97Z"/><path d="M195.76,152.38h1.11v10.71h-1.11v-10.71Z"/><path d="M199.19,152.38h1.11v10.71h-1.11v-10.71Z"/><path d="M202.42,157.31c.34-.35,.74-.61,1.21-.77s.94-.25,1.42-.25c.98,0,1.69,.23,2.13,.69s.65,1.17,.65,2.11v2.85c0,.19,0,.38,.03,.59s.04,.39,.07,.56h-1.06c-.04-.15-.06-.32-.06-.5s0-.35,0-.49h-.03c-.22,.34-.51,.62-.87,.84-.36,.22-.8,.33-1.31,.33-.34,0-.66-.04-.96-.13s-.56-.21-.78-.38c-.22-.17-.4-.37-.53-.62-.13-.25-.2-.53-.2-.85,0-.55,.14-.98,.43-1.29,.28-.31,.63-.54,1.06-.69,.42-.15,.87-.25,1.36-.28s.93-.06,1.34-.06h.42v-.2c0-.48-.14-.85-.43-1.09-.29-.25-.69-.37-1.21-.37-.36,0-.71,.06-1.06,.18s-.65,.3-.91,.55l-.69-.72Zm3.2,2.59c-.71,0-1.27,.1-1.69,.3-.42,.2-.62,.52-.62,.98,0,.42,.14,.71,.42,.89,.28,.17,.63,.26,1.04,.26,.32,0,.6-.05,.84-.16,.24-.11,.44-.25,.6-.43,.16-.18,.28-.39,.37-.63s.13-.5,.14-.77v-.42h-1.11Z"/><path d="M209.87,158.04c0-.3,0-.59-.03-.85-.02-.26-.03-.5-.03-.72h1.05c0,.18,0,.36,.01,.54,0,.18,.01,.36,.01,.55h.03c.08-.16,.18-.32,.32-.47,.14-.15,.3-.29,.49-.4,.19-.12,.4-.21,.64-.28,.24-.07,.49-.11,.77-.11,.43,0,.81,.07,1.13,.2,.32,.13,.58,.32,.79,.55s.36,.52,.46,.86c.1,.34,.15,.7,.15,1.1v4.1h-1.11v-3.98c0-.56-.12-1-.37-1.32s-.63-.48-1.15-.48c-.36,0-.67,.06-.93,.18-.26,.12-.47,.3-.64,.52-.17,.23-.29,.5-.37,.81-.08,.31-.12,.66-.12,1.03v3.23h-1.11v-5.06Z"/><path d="M179.72,165.21c0-.22,.08-.41,.23-.57,.16-.16,.35-.24,.57-.24s.42,.08,.57,.24c.16,.16,.23,.35,.23,.57,0,.24-.08,.43-.23,.58-.15,.15-.35,.23-.58,.23s-.43-.08-.58-.23-.23-.34-.23-.58Zm.26,2.59h1.11v6.63h-1.11v-6.63Z"/><path d="M183.29,169.37c0-.3,0-.58-.03-.85-.02-.26-.03-.51-.03-.72h1.05c0,.18,0,.36,.01,.54,0,.18,.01,.36,.01,.55h.03c.08-.16,.18-.32,.32-.47,.14-.15,.3-.29,.49-.4,.19-.12,.4-.21,.64-.28,.24-.07,.49-.11,.77-.11,.43,0,.81,.07,1.13,.2,.32,.13,.58,.32,.79,.55,.21,.24,.36,.52,.46,.86,.1,.33,.15,.7,.15,1.1v4.1h-1.11v-3.98c0-.56-.12-1-.37-1.32s-.63-.48-1.15-.48c-.36,0-.67,.06-.93,.18s-.47,.3-.64,.52c-.17,.23-.29,.5-.37,.81-.08,.31-.12,.66-.12,1.04v3.23h-1.11v-5.06Z"/><path d="M191.33,172.69c.22,.27,.46,.49,.72,.65,.26,.16,.59,.24,.99,.24,.17,0,.34-.02,.52-.06s.33-.1,.48-.18,.25-.19,.34-.32c.08-.13,.13-.28,.13-.46s-.04-.33-.12-.44-.19-.21-.32-.29c-.13-.08-.28-.14-.45-.19-.17-.05-.34-.09-.52-.13-.31-.07-.61-.14-.89-.23s-.53-.2-.74-.33-.38-.31-.51-.53c-.13-.22-.19-.5-.19-.84,0-.32,.07-.6,.21-.85,.14-.25,.33-.45,.57-.61,.24-.16,.5-.28,.79-.37,.29-.08,.59-.13,.91-.13,.47,0,.91,.09,1.31,.28,.4,.19,.72,.5,.94,.92l-.92,.61c-.14-.24-.33-.43-.56-.57s-.51-.22-.84-.22c-.15,0-.3,.02-.46,.06-.16,.04-.29,.09-.42,.17-.12,.08-.22,.17-.3,.29s-.12,.25-.12,.4c0,.14,.04,.26,.13,.36,.09,.1,.21,.19,.37,.26,.16,.08,.33,.14,.54,.2s.41,.1,.63,.14c.29,.06,.57,.13,.84,.22s.5,.21,.7,.36c.2,.15,.35,.34,.47,.57,.11,.23,.17,.51,.17,.84,0,.38-.08,.7-.23,.96-.15,.26-.35,.48-.6,.65-.25,.17-.53,.29-.85,.36-.32,.08-.64,.11-.97,.11-.57,0-1.06-.09-1.47-.26-.41-.17-.78-.5-1.11-.97l.88-.68Z"/><path d="M197.08,165.21c0-.22,.08-.41,.23-.57,.16-.16,.35-.24,.57-.24s.42,.08,.57,.24c.16,.16,.23,.35,.23,.57,0,.24-.08,.43-.23,.58-.15,.15-.35,.23-.58,.23s-.43-.08-.58-.23-.23-.34-.23-.58Zm.26,2.59h1.11v6.63h-1.11v-6.63Z"/><path d="M206.17,173.26h-.03c-.21,.38-.54,.7-.99,.96-.45,.26-.97,.39-1.57,.39-.46,0-.9-.09-1.3-.26s-.76-.42-1.06-.73-.53-.68-.7-1.11c-.17-.42-.25-.89-.25-1.39s.08-.96,.25-1.39c.17-.42,.41-.79,.71-1.11,.3-.31,.67-.55,1.1-.73,.43-.17,.9-.26,1.42-.26,.48,0,.92,.1,1.33,.3,.4,.2,.75,.48,1.06,.84h.03v-5.04h1.11v10.71h-1.11v-1.18Zm0-2.14c0-.35-.05-.67-.16-.97-.11-.3-.27-.56-.47-.78-.21-.22-.46-.4-.74-.52-.29-.13-.61-.19-.97-.19s-.68,.06-.97,.19c-.29,.13-.54,.3-.74,.52-.21,.22-.37,.48-.47,.78-.11,.3-.16,.62-.16,.97s.05,.67,.16,.97,.27,.56,.47,.78,.46,.4,.74,.52,.61,.19,.97,.19,.68-.06,.97-.19c.29-.13,.54-.3,.74-.52,.21-.22,.37-.48,.47-.78,.11-.3,.16-.62,.16-.97Z"/><path d="M215.25,173.23c-.4,.51-.83,.87-1.3,1.07s-1.02,.3-1.64,.3c-.52,0-.99-.09-1.4-.28s-.77-.43-1.06-.74c-.29-.31-.51-.68-.67-1.11-.16-.42-.23-.88-.23-1.36,0-.51,.08-.98,.25-1.41,.17-.43,.41-.8,.71-1.11,.3-.31,.66-.54,1.08-.71,.42-.17,.87-.26,1.36-.26,.46,0,.89,.08,1.28,.23,.39,.16,.72,.38,1,.68,.28,.3,.49,.66,.64,1.09s.23,.92,.23,1.47v.35h-5.36c.02,.28,.09,.55,.21,.81,.12,.26,.27,.49,.46,.68,.19,.19,.41,.35,.67,.46,.25,.11,.53,.17,.84,.17,.48,0,.89-.08,1.22-.25s.63-.42,.89-.75l.84,.65Zm-.95-2.71c-.02-.57-.2-1.02-.55-1.36-.35-.34-.83-.51-1.45-.51s-1.11,.17-1.49,.51c-.38,.34-.6,.79-.68,1.36h4.17Z"/></g><g><path d="M211.16,55.45h-1.96v3.32c0,.22,0,.42,.01,.6,0,.18,.05,.34,.11,.48,.07,.14,.17,.25,.3,.33,.13,.08,.32,.12,.57,.12,.16,0,.33-.02,.5-.06,.17-.04,.33-.09,.48-.17l.04,1.01c-.19,.08-.4,.15-.63,.18-.23,.04-.45,.06-.66,.06-.4,0-.71-.05-.95-.16-.24-.1-.42-.25-.55-.44-.13-.19-.22-.42-.26-.7-.04-.28-.06-.59-.06-.93v-3.64h-1.45v-.94h1.45v-1.88h1.11v1.88h1.96v.94Z"/><path d="M212.15,57.83c0-.52,.09-.99,.27-1.42,.18-.43,.42-.79,.74-1.1,.31-.31,.68-.55,1.12-.72s.91-.25,1.42-.25,.98,.08,1.42,.25,.81,.41,1.12,.72c.31,.31,.56,.67,.74,1.1,.18,.42,.27,.9,.27,1.42s-.09,.99-.27,1.42c-.18,.43-.42,.79-.74,1.1-.31,.31-.68,.55-1.12,.72s-.91,.25-1.42,.25-.98-.08-1.42-.25-.81-.41-1.12-.72c-.31-.31-.56-.67-.74-1.1-.18-.42-.27-.9-.27-1.42Zm1.19,0c0,.35,.05,.67,.16,.97,.11,.3,.27,.56,.47,.78,.21,.22,.46,.4,.74,.52,.29,.13,.61,.19,.97,.19s.68-.06,.97-.19c.29-.13,.54-.3,.74-.52,.21-.22,.37-.48,.47-.78,.11-.3,.16-.62,.16-.97s-.05-.67-.16-.97c-.11-.3-.27-.56-.47-.78-.21-.22-.46-.4-.74-.52-.29-.13-.61-.19-.97-.19s-.68,.06-.97,.19c-.29,.13-.54,.3-.74,.52-.21,.22-.37,.48-.47,.78s-.16,.62-.16,.97Z"/><path d="M220.91,54.52h1.11v.96h.03c.3-.36,.65-.64,1.06-.84,.4-.2,.84-.3,1.33-.3,.52,0,.99,.09,1.42,.26,.43,.17,.8,.42,1.1,.73,.3,.31,.54,.68,.71,1.11,.17,.42,.26,.89,.26,1.39s-.09,.96-.26,1.39c-.17,.43-.4,.79-.7,1.11-.3,.31-.65,.56-1.06,.73s-.84,.26-1.3,.26c-.59,0-1.12-.13-1.57-.39-.45-.26-.78-.58-.99-.96h-.03v4.41h-1.11v-9.86Zm1.11,3.32c0,.35,.05,.67,.16,.97,.11,.3,.27,.56,.47,.78,.21,.22,.46,.4,.74,.52,.29,.13,.61,.19,.97,.19s.68-.06,.97-.19c.29-.13,.54-.3,.74-.52,.21-.22,.37-.48,.48-.78,.11-.3,.16-.62,.16-.97s-.05-.67-.16-.97c-.11-.3-.27-.56-.48-.78-.21-.22-.46-.4-.74-.52-.29-.13-.61-.19-.97-.19s-.68,.06-.97,.19c-.29,.13-.54,.3-.74,.52-.21,.22-.37,.48-.47,.78s-.16,.62-.16,.97Z"/><path d="M207.53,67.43c0-.3,0-.58-.03-.85-.02-.26-.03-.51-.03-.72h1.05c0,.18,0,.36,.01,.54,0,.18,.01,.36,.01,.55h.03c.08-.16,.18-.32,.32-.47,.14-.15,.3-.29,.49-.4,.19-.12,.4-.21,.64-.28,.24-.07,.49-.11,.77-.11,.36,0,.66,.04,.9,.13,.24,.09,.44,.2,.6,.33,.16,.13,.29,.26,.38,.41s.16,.28,.22,.39c.25-.4,.53-.71,.85-.93,.32-.22,.74-.33,1.25-.33,.47,0,.87,.06,1.19,.19,.32,.13,.58,.31,.78,.55,.2,.24,.34,.53,.43,.88s.13,.73,.13,1.16v4.03h-1.11v-3.97c0-.23-.02-.45-.07-.67-.05-.22-.13-.41-.25-.58-.12-.17-.29-.31-.5-.41-.21-.1-.47-.16-.79-.16-.24,0-.46,.05-.67,.14-.21,.09-.39,.23-.55,.4s-.28,.38-.37,.62c-.09,.24-.13,.51-.13,.8v3.83h-1.11v-3.76c0-.74-.1-1.26-.3-1.57-.2-.31-.52-.46-.98-.46-.36,0-.67,.06-.93,.18s-.47,.3-.64,.52c-.17,.23-.29,.5-.37,.81-.08,.31-.12,.66-.12,1.04v3.23h-1.11v-5.06Z"/><path d="M219.54,66.71c.34-.35,.74-.61,1.21-.77,.47-.17,.94-.25,1.42-.25,.98,0,1.69,.23,2.13,.69,.43,.46,.65,1.17,.65,2.11v2.85c0,.19,0,.39,.03,.59,.02,.2,.04,.39,.07,.56h-1.06c-.04-.15-.06-.32-.06-.5,0-.18,0-.35,0-.49h-.03c-.22,.34-.51,.62-.87,.84-.36,.22-.8,.33-1.31,.33-.34,0-.66-.04-.96-.13s-.56-.21-.78-.38c-.22-.17-.4-.37-.53-.62-.13-.25-.2-.53-.2-.85,0-.55,.14-.98,.43-1.29,.28-.31,.63-.54,1.06-.69,.42-.15,.87-.25,1.36-.28,.49-.04,.93-.06,1.34-.06h.42v-.2c0-.48-.14-.85-.43-1.09-.29-.25-.69-.37-1.21-.37-.36,0-.71,.06-1.06,.18s-.65,.3-.91,.54l-.69-.72Zm3.2,2.59c-.71,0-1.27,.1-1.69,.3-.42,.2-.62,.52-.62,.98,0,.42,.14,.71,.42,.89,.28,.17,.63,.26,1.04,.26,.32,0,.6-.05,.84-.16,.24-.11,.44-.25,.6-.43,.16-.18,.28-.39,.37-.63,.08-.24,.13-.5,.14-.77v-.43h-1.11Z"/><path d="M226.99,67.43c0-.3,0-.58-.03-.85-.02-.26-.03-.51-.03-.72h1.05c0,.18,0,.36,.01,.54,0,.18,.01,.36,.01,.55h.03c.08-.16,.18-.32,.32-.47,.14-.15,.3-.29,.49-.4,.19-.12,.4-.21,.64-.28,.24-.07,.49-.11,.77-.11,.08,0,.15,0,.23,.01,.08,0,.15,.03,.23,.06l-.07,1.12c-.19-.06-.39-.08-.6-.08-.68,0-1.17,.22-1.48,.66-.31,.44-.46,1.04-.46,1.81v3.23h-1.11v-5.06Z"/><path d="M238.36,72.19c0,1.21-.31,2.13-.93,2.76-.62,.63-1.51,.94-2.69,.94-.65,0-1.24-.09-1.76-.28-.52-.19-1.02-.52-1.5-.98l.79-.91c.35,.38,.72,.66,1.11,.86,.39,.19,.84,.29,1.35,.29s.9-.07,1.23-.22,.58-.34,.77-.6c.19-.25,.32-.54,.4-.86,.08-.32,.11-.66,.11-1.01v-.85h-.03c-.26,.43-.61,.74-1.04,.94-.42,.2-.86,.3-1.3,.3-.52,0-1-.08-1.43-.25-.43-.17-.81-.41-1.12-.71-.31-.3-.55-.66-.72-1.08-.17-.42-.25-.87-.25-1.36,0-.54,.08-1.03,.25-1.46,.17-.43,.41-.8,.72-1.1,.31-.3,.68-.53,1.11-.69,.43-.16,.92-.24,1.45-.24,.23,0,.45,.03,.68,.08,.23,.05,.45,.13,.66,.24,.21,.11,.4,.25,.57,.41s.31,.36,.43,.57h.03v-1.13h1.11v6.34Zm-5.81-3.02c0,.34,.06,.65,.18,.94s.29,.54,.5,.75,.46,.38,.74,.5c.28,.12,.59,.18,.91,.18,.38,0,.71-.07,1.01-.2,.29-.13,.54-.31,.74-.53,.2-.22,.36-.48,.46-.76,.1-.29,.16-.59,.16-.91,0-.36-.06-.69-.17-.99-.11-.3-.27-.55-.48-.77s-.46-.38-.75-.5-.61-.18-.96-.18-.67,.06-.96,.19c-.29,.13-.53,.3-.74,.52-.2,.22-.36,.48-.48,.78-.11,.3-.17,.62-.17,.97Z"/><path d="M240.26,63.26c0-.22,.08-.41,.23-.57,.16-.16,.35-.24,.57-.24s.42,.08,.57,.24c.16,.16,.23,.35,.23,.57,0,.24-.08,.43-.23,.58-.15,.15-.35,.23-.58,.23s-.43-.08-.58-.23-.23-.34-.23-.58Zm.26,2.59h1.11v6.63h-1.11v-6.63Z"/><path d="M243.83,67.43c0-.3,0-.58-.03-.85-.02-.26-.03-.51-.03-.72h1.05c0,.18,0,.36,.01,.54,0,.18,.01,.36,.01,.55h.03c.08-.16,.18-.32,.32-.47,.14-.15,.3-.29,.49-.4,.19-.12,.4-.21,.64-.28,.24-.07,.49-.11,.77-.11,.43,0,.81,.07,1.13,.2,.32,.13,.58,.32,.79,.55,.21,.24,.36,.52,.46,.86,.1,.33,.15,.7,.15,1.1v4.1h-1.11v-3.98c0-.56-.12-1-.37-1.32s-.63-.48-1.15-.48c-.36,0-.67,.06-.93,.18s-.47,.3-.64,.52c-.17,.23-.29,.5-.37,.81-.08,.31-.12,.66-.12,1.04v3.23h-1.11v-5.06Z"/></g><g><path d="M142.82,56.18c-.24-.28-.49-.49-.77-.62-.27-.13-.58-.19-.91-.19-.37,0-.69,.06-.98,.19-.28,.13-.52,.3-.7,.53-.18,.23-.32,.49-.42,.79-.09,.3-.14,.62-.14,.96s.05,.66,.16,.96,.26,.56,.45,.79c.19,.23,.43,.4,.7,.53,.27,.13,.58,.19,.92,.19,.73,0,1.29-.27,1.69-.82l.82,.78c-.32,.37-.7,.64-1.13,.81s-.89,.25-1.38,.25c-.51,0-.98-.08-1.4-.25-.43-.17-.79-.41-1.08-.72s-.53-.68-.69-1.11-.25-.89-.25-1.4,.08-.96,.25-1.39c.17-.43,.4-.79,.7-1.11,.3-.31,.66-.56,1.08-.73,.42-.17,.89-.26,1.4-.26s.96,.08,1.4,.25,.82,.43,1.16,.79l-.88,.78Z"/><path d="M144.56,57.83c0-.52,.09-.99,.27-1.42,.18-.43,.42-.79,.74-1.1,.31-.31,.68-.55,1.12-.72s.91-.25,1.42-.25,.98,.08,1.42,.25,.81,.41,1.12,.72c.31,.31,.56,.67,.74,1.1,.18,.42,.27,.9,.27,1.42s-.09,.99-.27,1.42c-.18,.43-.42,.79-.74,1.1-.31,.31-.68,.55-1.12,.72s-.91,.25-1.42,.25-.98-.08-1.42-.25-.81-.41-1.12-.72c-.31-.31-.56-.67-.74-1.1-.18-.42-.27-.9-.27-1.42Zm1.19,0c0,.35,.05,.67,.16,.97,.11,.3,.27,.56,.47,.78,.21,.22,.46,.4,.74,.52,.29,.13,.61,.19,.97,.19s.68-.06,.97-.19c.29-.13,.54-.3,.74-.52,.21-.22,.37-.48,.47-.78,.11-.3,.16-.62,.16-.97s-.05-.67-.16-.97c-.11-.3-.27-.56-.47-.78-.21-.22-.46-.4-.74-.52-.29-.13-.61-.19-.97-.19s-.68,.06-.97,.19c-.29,.13-.54,.3-.74,.52-.21,.22-.37,.48-.47,.78s-.16,.62-.16,.97Z"/><path d="M153.38,56.09c0-.3,0-.59-.03-.85-.02-.26-.03-.5-.03-.72h1.05c0,.18,0,.36,.01,.54,0,.18,.01,.36,.01,.55h.03c.08-.16,.18-.32,.32-.47,.14-.15,.3-.29,.49-.4,.19-.12,.4-.21,.64-.28,.24-.07,.49-.11,.77-.11,.08,0,.15,0,.23,.01,.08,0,.15,.03,.23,.06l-.07,1.12c-.19-.06-.39-.08-.6-.08-.68,0-1.17,.22-1.48,.66-.31,.44-.46,1.04-.46,1.81v3.23h-1.11v-5.06Z"/><path d="M158.38,56.09c0-.3,0-.59-.03-.85-.02-.26-.03-.5-.03-.72h1.05c0,.18,0,.36,.01,.54,0,.18,.01,.36,.01,.55h.03c.08-.16,.18-.32,.32-.47,.14-.15,.3-.29,.49-.4,.19-.12,.4-.21,.64-.28,.24-.07,.49-.11,.77-.11,.43,0,.81,.07,1.13,.2,.32,.13,.58,.32,.79,.55s.36,.52,.46,.86c.1,.34,.15,.7,.15,1.1v4.1h-1.11v-3.98c0-.56-.12-1-.37-1.32s-.63-.48-1.15-.48c-.36,0-.67,.06-.93,.18-.26,.12-.47,.3-.64,.52-.17,.23-.29,.5-.37,.81-.08,.31-.12,.66-.12,1.03v3.23h-1.11v-5.06Z"/><path d="M172.2,59.95c-.4,.51-.83,.87-1.3,1.07s-1.02,.3-1.64,.3c-.52,0-.99-.09-1.4-.28-.42-.18-.77-.43-1.06-.74-.29-.31-.51-.68-.67-1.11-.16-.42-.23-.88-.23-1.36,0-.51,.08-.98,.25-1.41,.17-.43,.41-.8,.71-1.11,.3-.31,.66-.55,1.08-.72s.87-.25,1.36-.25c.46,0,.89,.08,1.28,.23,.39,.16,.72,.38,1,.68,.28,.3,.49,.66,.64,1.09,.15,.43,.23,.92,.23,1.47v.35h-5.36c.02,.28,.09,.56,.21,.82s.27,.49,.46,.68c.19,.19,.41,.35,.67,.46,.25,.11,.53,.17,.84,.17,.48,0,.89-.08,1.22-.25s.63-.42,.89-.75l.84,.65Zm-.95-2.71c-.02-.57-.2-1.02-.55-1.36-.35-.34-.83-.51-1.45-.51s-1.11,.17-1.49,.51c-.38,.34-.6,.79-.68,1.36h4.17Z"/><path d="M174.17,56.09c0-.3,0-.59-.03-.85-.02-.26-.03-.5-.03-.72h1.05c0,.18,0,.36,.01,.54,0,.18,.01,.36,.01,.55h.03c.08-.16,.18-.32,.32-.47,.14-.15,.3-.29,.49-.4,.19-.12,.4-.21,.64-.28,.24-.07,.49-.11,.77-.11,.08,0,.15,0,.23,.01,.08,0,.15,.03,.23,.06l-.07,1.12c-.19-.06-.39-.08-.6-.08-.68,0-1.17,.22-1.48,.66-.31,.44-.46,1.04-.46,1.81v3.23h-1.11v-5.06Z"/><path d="M138.1,67.43c0-.3,0-.58-.03-.85-.02-.26-.03-.51-.03-.72h1.05c0,.18,0,.36,.01,.54,0,.18,.01,.36,.01,.55h.03c.08-.16,.18-.32,.32-.47,.14-.15,.3-.29,.49-.4,.19-.12,.4-.21,.64-.28,.24-.07,.49-.11,.77-.11,.08,0,.15,0,.23,.01,.08,0,.15,.03,.23,.06l-.07,1.12c-.19-.06-.39-.08-.6-.08-.68,0-1.17,.22-1.48,.66-.31,.44-.46,1.04-.46,1.81v3.23h-1.11v-5.06Z"/><path d="M143.02,66.71c.34-.35,.74-.61,1.21-.77,.47-.17,.94-.25,1.42-.25,.98,0,1.69,.23,2.13,.69,.43,.46,.65,1.17,.65,2.11v2.85c0,.19,0,.39,.03,.59,.02,.2,.04,.39,.07,.56h-1.06c-.04-.15-.06-.32-.06-.5,0-.18,0-.35,0-.49h-.03c-.22,.34-.51,.62-.87,.84-.36,.22-.8,.33-1.31,.33-.34,0-.66-.04-.96-.13s-.56-.21-.78-.38c-.22-.17-.4-.37-.53-.62-.13-.25-.2-.53-.2-.85,0-.55,.14-.98,.43-1.29,.28-.31,.63-.54,1.06-.69,.42-.15,.87-.25,1.36-.28,.49-.04,.93-.06,1.34-.06h.42v-.2c0-.48-.14-.85-.43-1.09-.29-.25-.69-.37-1.21-.37-.36,0-.71,.06-1.06,.18s-.65,.3-.91,.54l-.69-.72Zm3.2,2.59c-.71,0-1.27,.1-1.69,.3-.42,.2-.62,.52-.62,.98,0,.42,.14,.71,.42,.89,.28,.17,.63,.26,1.04,.26,.32,0,.6-.05,.84-.16,.24-.11,.44-.25,.6-.43,.16-.18,.28-.39,.37-.63,.08-.24,.13-.5,.14-.77v-.43h-1.11Z"/><path d="M155.98,71.31h-.03c-.21,.38-.54,.7-.99,.96-.45,.26-.97,.39-1.57,.39-.46,0-.9-.09-1.3-.26s-.76-.42-1.06-.73-.53-.68-.7-1.11c-.17-.42-.25-.89-.25-1.39s.08-.96,.25-1.39c.17-.42,.41-.79,.71-1.11,.3-.31,.67-.55,1.1-.73,.43-.17,.9-.26,1.42-.26,.48,0,.92,.1,1.33,.3,.4,.2,.75,.48,1.06,.84h.03v-5.04h1.11v10.71h-1.11v-1.18Zm0-2.14c0-.35-.05-.67-.16-.97-.11-.3-.27-.56-.47-.78-.21-.22-.46-.4-.74-.52-.29-.13-.61-.19-.97-.19s-.68,.06-.97,.19c-.29,.13-.54,.3-.74,.52-.21,.22-.37,.48-.47,.78-.11,.3-.16,.62-.16,.97s.05,.67,.16,.97,.27,.56,.47,.78,.46,.4,.74,.52,.61,.19,.97,.19,.68-.06,.97-.19c.29-.13,.54-.3,.74-.52,.21-.22,.37-.48,.47-.78,.11-.3,.16-.62,.16-.97Z"/><path d="M159,63.26c0-.22,.08-.41,.23-.57,.16-.16,.35-.24,.57-.24s.42,.08,.57,.24c.16,.16,.23,.35,.23,.57,0,.24-.08,.43-.23,.58-.15,.15-.35,.23-.58,.23s-.43-.08-.58-.23-.23-.34-.23-.58Zm.26,2.59h1.11v6.63h-1.11v-6.63Z"/><path d="M168.36,70.92c0,.3,0,.59,.03,.85,.02,.26,.03,.5,.03,.72h-1.05c0-.18,0-.36-.01-.54,0-.18-.01-.36-.01-.55h-.03c-.08,.16-.18,.32-.32,.47-.14,.15-.3,.29-.49,.4-.19,.12-.4,.21-.64,.28s-.49,.11-.77,.11c-.43,0-.81-.07-1.13-.2-.32-.13-.58-.32-.79-.55s-.36-.52-.46-.86c-.1-.34-.15-.7-.15-1.1v-4.1h1.11v3.98c0,.56,.12,1,.37,1.32,.25,.32,.63,.48,1.15,.48,.36,0,.67-.06,.93-.18,.26-.12,.47-.3,.64-.52,.17-.23,.29-.5,.37-.81s.12-.66,.12-1.03v-3.23h1.11v5.06Z"/><path d="M170.61,70.75c.22,.27,.46,.49,.72,.65,.26,.16,.59,.24,.99,.24,.17,0,.34-.02,.52-.06s.33-.1,.48-.18,.25-.19,.34-.32c.08-.13,.13-.28,.13-.46s-.04-.33-.12-.44-.19-.21-.32-.29c-.13-.08-.28-.14-.45-.19-.17-.05-.34-.09-.52-.13-.31-.07-.61-.14-.89-.23s-.53-.2-.74-.33-.38-.31-.51-.53c-.13-.22-.19-.5-.19-.84,0-.32,.07-.6,.21-.85,.14-.25,.33-.45,.57-.61,.24-.16,.5-.28,.79-.37,.29-.08,.59-.13,.91-.13,.47,0,.91,.09,1.31,.28,.4,.19,.72,.5,.94,.92l-.92,.61c-.14-.24-.33-.43-.56-.57s-.51-.22-.84-.22c-.15,0-.3,.02-.46,.06-.16,.04-.29,.09-.42,.17-.12,.08-.22,.17-.3,.29s-.12,.25-.12,.4c0,.14,.04,.26,.13,.36,.09,.1,.21,.19,.37,.26,.16,.08,.33,.14,.54,.2s.41,.1,.63,.14c.29,.06,.57,.13,.84,.22s.5,.21,.7,.36c.2,.15,.35,.34,.47,.57,.11,.23,.17,.51,.17,.84,0,.38-.08,.7-.23,.96-.15,.26-.35,.48-.6,.65-.25,.17-.53,.29-.85,.36-.32,.08-.64,.11-.97,.11-.57,0-1.06-.09-1.47-.26-.41-.17-.78-.5-1.11-.97l.88-.68Z"/></g><g><line class="cls-3" x1="170.7" y1="181.91" x2="224.29" y2="181.91"/><polygon points="175.39 187.71 176.36 186.67 171.24 181.92 176.36 177.16 175.39 176.12 169.16 181.92 175.39 187.71"/><polygon points="219.59 187.71 218.63 186.67 223.74 181.92 218.63 177.16 219.59 176.12 225.83 181.92 219.59 187.71"/></g><g><line class="cls-3" x1="197.49" y1="98.2" x2="197.49" y2="41.72"/><polygon points="203.29 93.51 202.25 92.54 197.49 97.66 192.74 92.54 191.7 93.51 197.49 99.74 203.29 93.51"/><polygon points="203.29 46.42 202.25 47.38 197.49 42.26 192.74 47.38 191.7 46.42 197.49 40.18 203.29 46.42"/></g><g><line class="cls-3" x1="334.51" y1="309.42" x2="334.51" y2="272.81"/><polygon points="340.31 304.73 339.27 303.76 334.51 308.88 329.75 303.76 328.72 304.73 334.51 310.96 340.31 304.73"/><polygon points="340.31 277.51 339.27 278.47 334.51 273.36 329.75 278.47 328.72 277.51 334.51 271.27 340.31 277.51"/></g><g><path d="M344.2,394.29c.22,.27,.46,.49,.72,.65,.26,.16,.59,.24,.99,.24,.17,0,.34-.02,.52-.06,.17-.04,.33-.1,.48-.18s.25-.19,.34-.32c.08-.13,.13-.28,.13-.46s-.04-.33-.12-.44c-.08-.11-.19-.21-.32-.29-.13-.08-.28-.14-.45-.19-.17-.05-.34-.09-.52-.13-.31-.07-.61-.14-.89-.23s-.53-.2-.74-.33c-.21-.14-.38-.31-.51-.53-.13-.22-.19-.5-.19-.84,0-.32,.07-.6,.21-.85s.33-.45,.57-.61c.24-.16,.5-.28,.79-.37,.29-.08,.59-.13,.91-.13,.47,0,.91,.09,1.31,.28,.4,.19,.72,.5,.94,.92l-.92,.61c-.14-.24-.33-.43-.56-.57s-.51-.22-.84-.22c-.15,0-.3,.02-.46,.06-.16,.04-.29,.09-.42,.17-.12,.08-.22,.17-.3,.29s-.12,.25-.12,.4c0,.14,.04,.26,.13,.36,.09,.1,.21,.19,.37,.26,.16,.08,.33,.14,.54,.2s.41,.1,.63,.14c.29,.06,.57,.13,.84,.22s.5,.21,.7,.36c.2,.15,.35,.34,.47,.57,.11,.23,.17,.5,.17,.84,0,.38-.08,.7-.23,.96-.15,.26-.35,.48-.6,.64-.25,.17-.53,.29-.85,.36-.32,.08-.64,.11-.97,.11-.57,0-1.06-.09-1.47-.26-.41-.17-.78-.5-1.11-.97l.88-.68Z"/><path d="M356.73,399.27h-1.11v-4.2h-.03c-.3,.36-.65,.64-1.06,.84-.4,.2-.84,.3-1.33,.3-.52,0-.99-.09-1.42-.26-.43-.17-.8-.42-1.1-.73-.3-.31-.54-.68-.71-1.11-.17-.42-.25-.89-.25-1.39s.08-.95,.25-1.38c.17-.42,.4-.79,.7-1.11,.3-.31,.65-.56,1.06-.74,.41-.18,.84-.27,1.3-.27,.6,0,1.12,.13,1.57,.39,.45,.26,.78,.58,.99,.96h.03v-1.18h1.11v9.86Zm-1.11-6.55c0-.35-.05-.67-.16-.97-.11-.3-.27-.56-.47-.78-.21-.22-.46-.4-.74-.52-.29-.13-.61-.19-.97-.19s-.68,.06-.97,.19c-.29,.13-.54,.3-.74,.52-.21,.22-.37,.48-.47,.78s-.16,.62-.16,.97,.05,.67,.16,.97c.11,.3,.27,.56,.47,.78,.21,.22,.46,.4,.74,.52,.29,.13,.61,.19,.97,.19s.68-.06,.97-.19c.29-.13,.54-.3,.74-.52,.21-.22,.37-.48,.47-.78,.11-.3,.16-.62,.16-.97Z"/><path d="M364.57,394.46c0,.3,0,.59,.03,.85,.02,.26,.03,.51,.03,.72h-1.05c0-.18,0-.36-.01-.54s-.01-.36-.01-.55h-.03c-.08,.16-.18,.32-.32,.47s-.3,.29-.49,.4c-.19,.12-.4,.21-.64,.28-.24,.07-.49,.11-.77,.11-.43,0-.81-.07-1.13-.2-.32-.13-.58-.32-.79-.55s-.36-.52-.46-.86c-.1-.33-.15-.7-.15-1.1v-4.1h1.11v3.98c0,.56,.12,1,.37,1.32,.25,.32,.63,.48,1.15,.48,.36,0,.67-.06,.93-.18,.26-.12,.47-.3,.64-.52,.17-.23,.29-.5,.37-.81,.08-.31,.12-.66,.12-1.04v-3.23h1.11v5.06Z"/><path d="M366.6,390.25c.34-.35,.74-.61,1.21-.77s.94-.25,1.42-.25c.98,0,1.69,.23,2.13,.69s.65,1.17,.65,2.11v2.85c0,.19,0,.38,.03,.59s.04,.39,.07,.56h-1.06c-.04-.15-.06-.32-.06-.5s0-.35,0-.49h-.03c-.22,.34-.51,.62-.87,.84-.36,.22-.8,.33-1.31,.33-.34,0-.66-.04-.96-.13s-.56-.21-.78-.38c-.22-.17-.4-.37-.53-.62-.13-.25-.2-.53-.2-.85,0-.55,.14-.98,.43-1.29,.28-.31,.63-.54,1.06-.69,.42-.15,.87-.25,1.36-.28s.93-.06,1.34-.06h.42v-.2c0-.48-.14-.85-.43-1.09-.29-.25-.69-.37-1.21-.37-.36,0-.71,.06-1.06,.18s-.65,.3-.91,.55l-.69-.72Zm3.2,2.59c-.71,0-1.27,.1-1.69,.3-.42,.2-.62,.52-.62,.98,0,.42,.14,.71,.42,.89,.28,.17,.63,.26,1.04,.26,.32,0,.6-.05,.84-.16,.24-.11,.44-.25,.6-.43,.16-.18,.28-.39,.37-.63s.13-.5,.14-.77v-.42h-1.11Z"/><path d="M374.05,390.98c0-.3,0-.59-.03-.85-.02-.26-.03-.5-.03-.72h1.05c0,.18,0,.36,.01,.54,0,.18,.01,.36,.01,.55h.03c.08-.16,.18-.32,.32-.47,.14-.15,.3-.29,.49-.4,.19-.12,.4-.21,.64-.28,.24-.07,.49-.11,.77-.11,.08,0,.15,0,.23,.01,.08,0,.15,.03,.23,.06l-.07,1.12c-.19-.06-.39-.08-.6-.08-.68,0-1.17,.22-1.48,.66-.31,.44-.46,1.04-.46,1.81v3.23h-1.11v-5.06Z"/><path d="M384.72,394.83c-.4,.51-.83,.87-1.3,1.07s-1.02,.3-1.64,.3c-.52,0-.99-.09-1.4-.28-.42-.18-.77-.43-1.06-.74-.29-.31-.51-.68-.67-1.11-.16-.42-.23-.88-.23-1.36,0-.51,.08-.98,.25-1.41,.17-.43,.41-.8,.71-1.11,.3-.31,.66-.55,1.08-.72s.87-.25,1.36-.25c.46,0,.89,.08,1.28,.23,.39,.16,.72,.38,1,.68,.28,.3,.49,.66,.64,1.09,.15,.43,.23,.92,.23,1.47v.35h-5.36c.02,.28,.09,.56,.21,.82s.27,.49,.46,.68c.19,.19,.41,.35,.67,.46,.25,.11,.53,.17,.84,.17,.48,0,.89-.08,1.22-.25s.63-.42,.89-.75l.84,.65Zm-.95-2.71c-.02-.57-.2-1.02-.55-1.36-.35-.34-.83-.51-1.45-.51s-1.11,.17-1.49,.51c-.38,.34-.6,.79-.68,1.36h4.17Z"/><path d="M344.06,396.66h1.11v5h.03c.08-.13,.18-.26,.31-.39,.13-.13,.29-.24,.48-.35,.18-.1,.39-.19,.62-.25s.47-.1,.72-.1c.43,0,.81,.07,1.13,.2,.32,.13,.58,.32,.79,.55,.21,.24,.36,.52,.46,.86,.1,.33,.15,.7,.15,1.1v4.1h-1.11v-3.98c0-.56-.12-1-.37-1.32s-.63-.48-1.15-.48c-.36,0-.67,.06-.93,.18s-.47,.3-.64,.52c-.17,.23-.29,.5-.37,.81-.08,.31-.12,.66-.12,1.04v3.23h-1.11v-10.71Z"/><path d="M357.88,406.17c-.4,.51-.83,.87-1.3,1.07s-1.02,.3-1.64,.3c-.52,0-.99-.09-1.4-.28s-.77-.43-1.06-.74c-.29-.31-.51-.68-.67-1.11-.16-.42-.23-.88-.23-1.36,0-.51,.08-.98,.25-1.41,.17-.43,.41-.8,.71-1.11,.3-.31,.66-.54,1.08-.71,.42-.17,.87-.26,1.36-.26,.46,0,.89,.08,1.28,.23,.39,.16,.72,.38,1,.68,.28,.3,.49,.66,.64,1.09s.23,.92,.23,1.47v.35h-5.36c.02,.28,.09,.55,.21,.81,.12,.26,.27,.49,.46,.68,.19,.19,.41,.35,.67,.46,.25,.11,.53,.17,.84,.17,.48,0,.89-.08,1.22-.25s.63-.42,.89-.75l.84,.65Zm-.95-2.71c-.02-.57-.2-1.02-.55-1.36-.35-.34-.83-.51-1.45-.51s-1.11,.17-1.49,.51c-.38,.34-.6,.79-.68,1.36h4.17Z"/><path d="M359.69,398.15c0-.22,.08-.41,.23-.57,.16-.16,.35-.24,.57-.24s.42,.08,.57,.24c.16,.16,.23,.35,.23,.57,0,.24-.08,.43-.23,.58-.15,.15-.35,.23-.58,.23s-.43-.08-.58-.23-.23-.34-.23-.58Zm.26,2.59h1.11v6.63h-1.11v-6.63Z"/><path d="M369.88,407.08c0,1.21-.31,2.13-.93,2.76-.62,.63-1.51,.94-2.69,.94-.65,0-1.24-.09-1.76-.28-.52-.19-1.02-.52-1.5-.98l.79-.91c.35,.38,.72,.66,1.11,.86,.39,.19,.84,.29,1.35,.29s.9-.07,1.23-.22,.58-.34,.77-.6c.19-.25,.32-.54,.4-.86,.08-.32,.11-.66,.11-1.01v-.85h-.03c-.26,.43-.61,.74-1.04,.94-.42,.2-.86,.3-1.3,.3-.52,0-1-.08-1.43-.25-.43-.17-.81-.41-1.12-.71-.31-.3-.55-.66-.72-1.08-.17-.42-.25-.87-.25-1.36,0-.54,.08-1.03,.25-1.46,.17-.43,.41-.8,.72-1.1,.31-.3,.68-.53,1.11-.69,.43-.16,.92-.24,1.45-.24,.23,0,.45,.03,.68,.08,.23,.05,.45,.13,.66,.24,.21,.11,.4,.25,.57,.41s.31,.36,.43,.57h.03v-1.13h1.11v6.34Zm-5.81-3.02c0,.34,.06,.65,.18,.94s.29,.54,.5,.75,.46,.38,.74,.5c.28,.12,.59,.18,.91,.18,.38,0,.71-.07,1.01-.2,.29-.13,.54-.31,.74-.53,.2-.22,.36-.48,.46-.76,.1-.29,.16-.59,.16-.91,0-.36-.06-.69-.17-.99-.11-.3-.27-.55-.48-.77s-.46-.38-.75-.5-.61-.18-.96-.18-.67,.06-.96,.19c-.29,.13-.53,.3-.74,.52-.2,.22-.36,.48-.48,.78-.11,.3-.17,.62-.17,.97Z"/><path d="M371.94,396.66h1.11v5h.03c.08-.13,.18-.26,.31-.39,.13-.13,.29-.24,.48-.35,.18-.1,.39-.19,.62-.25s.47-.1,.72-.1c.43,0,.81,.07,1.13,.2,.32,.13,.58,.32,.79,.55,.21,.24,.36,.52,.46,.86,.1,.33,.15,.7,.15,1.1v4.1h-1.11v-3.98c0-.56-.12-1-.37-1.32s-.63-.48-1.15-.48c-.36,0-.67,.06-.93,.18s-.47,.3-.64,.52c-.17,.23-.29,.5-.37,.81-.08,.31-.12,.66-.12,1.04v3.23h-1.11v-10.71Z"/><path d="M383.46,401.68h-1.96v3.32c0,.22,0,.42,.01,.6,0,.18,.05,.35,.11,.48s.17,.25,.3,.33c.13,.08,.32,.12,.57,.12,.16,0,.33-.02,.5-.06,.17-.04,.33-.09,.48-.17l.04,1.01c-.19,.08-.4,.15-.63,.18-.23,.04-.45,.06-.66,.06-.4,0-.71-.05-.95-.16-.24-.1-.42-.25-.55-.44-.13-.19-.22-.42-.26-.7-.04-.28-.06-.59-.06-.93v-3.64h-1.45v-.94h1.45v-1.88h1.11v1.88h1.96v.94Z"/></g><g><line class="cls-3" x1="334.51" y1="422.9" x2="334.51" y2="369.18"/><polygon points="340.31 418.2 339.27 417.23 334.51 422.35 329.75 417.23 328.72 418.2 334.51 424.43 340.31 418.2"/><polygon points="340.31 373.87 339.27 374.84 334.51 369.72 329.75 374.84 328.72 373.87 334.51 367.64 340.31 373.87"/></g><g><line class="cls-3" x1="197.49" y1="271.27" x2="198.91" y2="271.27"/><line class="cls-4" x1="201.75" y1="271.27" x2="359.2" y2="271.27"/><line class="cls-3" x1="360.62" y1="271.27" x2="362.04" y2="271.27"/></g><g><line class="cls-3" x1="312.3" y1="310.96" x2="313.71" y2="310.96"/><line class="cls-9" x1="316.47" y1="310.96" x2="359.24" y2="310.96"/><line class="cls-3" x1="360.62" y1="310.96" x2="362.04" y2="310.96"/></g><g><line class="cls-3" x1="312.29" y1="84.31" x2="312.29" y2="82.9"/><line class="cls-7" x1="312.29" y1="80.09" x2="312.29" y2="2.82"/><line class="cls-3" x1="312.29" y1="1.42" x2="312.29"/></g><g><line class="cls-3" x1="296.7" y1="84.31" x2="296.7" y2="82.9"/><line class="cls-7" x1="296.7" y1="80.09" x2="296.7" y2="2.82"/><line class="cls-3" x1="296.7" y1="1.42" x2="296.7"/></g><g><line class="cls-3" x1="312.3" y1="367.64" x2="313.71" y2="367.64"/><line class="cls-9" x1="316.47" y1="367.64" x2="359.24" y2="367.64"/><line class="cls-3" x1="360.62" y1="367.64" x2="362.04" y2="367.64"/></g><g><line class="cls-3" x1="312.3" y1="424.43" x2="313.71" y2="424.43"/><line class="cls-9" x1="316.47" y1="424.43" x2="359.24" y2="424.43"/><line class="cls-3" x1="360.62" y1="424.43" x2="362.04" y2="424.43"/></g><line class="cls-2" x1="295.16" y1="18.84" x2="313.77" y2="18.84"/><g><line class="cls-3" x1="47.53" y1="479.63" x2="47.53" y2="85.85"/><polygon points="53.33 474.94 52.29 473.97 47.53 479.09 42.78 473.97 41.74 474.94 47.53 481.17 53.33 474.94"/><polygon points="53.33 90.55 52.29 91.51 47.53 86.39 42.78 91.51 41.74 90.55 47.53 84.31 53.33 90.55"/></g><g><line class="cls-3" x1="29.07" y1="84.31" x2="30.49" y2="84.31"/><line class="cls-10" x1="33.48" y1="84.31" x2="79.78" y2="84.31"/><line class="cls-3" x1="81.28" y1="84.31" x2="82.69" y2="84.31"/></g><g><line class="cls-3" x1="29.07" y1="481.17" x2="30.49" y2="481.17"/><line class="cls-10" x1="33.47" y1="481.17" x2="79.78" y2="481.17"/><line class="cls-3" x1="81.27" y1="481.17" x2="82.69" y2="481.17"/></g><g><line class="cls-3" x1="226.19" y1="533.11" x2="226.19" y2="531.69"/><line class="cls-8" x1="226.19" y1="528.81" x2="226.19" y2="484.03"/><line class="cls-3" x1="226.19" y1="482.59" x2="226.19" y2="481.17"/></g><g><line class="cls-3" x1="82.69" y1="566.08" x2="82.69" y2="564.66"/><line class="cls-6" x1="82.69" y1="561.83" x2="82.69" y2="484"/><line class="cls-3" x1="82.69" y1="482.59" x2="82.69" y2="481.17"/></g><g><line class="cls-3" x1="312.29" y1="566.08" x2="312.29" y2="564.66"/><line class="cls-6" x1="312.29" y1="561.83" x2="312.29" y2="484"/><line class="cls-3" x1="312.29" y1="482.59" x2="312.29" y2="481.17"/></g><g><line class="cls-3" x1="254.89" y1="533.11" x2="254.89" y2="531.69"/><line class="cls-8" x1="254.89" y1="528.81" x2="254.89" y2="484.03"/><line class="cls-3" x1="254.89" y1="482.59" x2="254.89" y2="481.17"/></g><g><path d="M.24,265.01H1.35v5h.03c.08-.13,.18-.26,.31-.39,.13-.13,.29-.24,.48-.35,.18-.1,.39-.19,.62-.25,.23-.07,.47-.1,.72-.1,.43,0,.81,.07,1.13,.2,.32,.13,.58,.32,.79,.55s.36,.52,.46,.86,.15,.7,.15,1.1v4.1h-1.11v-3.98c0-.56-.12-1-.37-1.32s-.63-.48-1.15-.48c-.36,0-.67,.06-.93,.18-.26,.12-.47,.3-.64,.52-.17,.23-.29,.5-.37,.81-.08,.31-.12,.66-.12,1.04v3.23H.24v-10.71Z"/><path d="M14.06,274.51c-.4,.51-.83,.87-1.3,1.07s-1.02,.3-1.64,.3c-.52,0-.99-.09-1.4-.28s-.77-.43-1.06-.74c-.29-.31-.51-.68-.67-1.11-.16-.42-.23-.88-.23-1.36,0-.51,.08-.98,.25-1.41,.17-.43,.41-.8,.71-1.11,.3-.31,.66-.55,1.08-.72s.87-.25,1.36-.25c.46,0,.89,.08,1.28,.23,.39,.16,.72,.38,1,.68,.28,.3,.49,.66,.64,1.09,.15,.43,.23,.92,.23,1.47v.35h-5.36c.02,.28,.09,.56,.21,.82s.27,.49,.46,.68c.19,.19,.41,.35,.67,.46,.25,.11,.53,.17,.84,.17,.48,0,.89-.08,1.22-.25s.63-.42,.89-.75l.84,.65Zm-.95-2.71c-.02-.57-.2-1.02-.55-1.36s-.83-.51-1.45-.51-1.11,.17-1.49,.51-.6,.79-.68,1.36h4.17Z"/><path d="M15.88,266.49c0-.22,.08-.41,.23-.57,.16-.16,.35-.24,.57-.24s.42,.08,.57,.24c.16,.16,.23,.35,.23,.57,0,.24-.08,.43-.23,.58-.15,.15-.35,.23-.58,.23s-.43-.08-.58-.23c-.15-.15-.23-.34-.23-.58Zm.26,2.59h1.11v6.63h-1.11v-6.63Z"/><path d="M26.07,275.42c0,1.21-.31,2.13-.93,2.76-.62,.63-1.51,.94-2.69,.94-.65,0-1.24-.09-1.76-.28-.52-.19-1.02-.52-1.5-.98l.79-.91c.35,.38,.72,.66,1.11,.86,.39,.19,.84,.29,1.35,.29s.9-.07,1.23-.22,.58-.34,.77-.59c.19-.25,.32-.54,.4-.86,.08-.32,.11-.66,.11-1.01v-.85h-.03c-.26,.43-.61,.74-1.04,.94-.42,.2-.86,.3-1.3,.3-.52,0-1-.08-1.43-.25s-.81-.41-1.12-.71c-.31-.3-.55-.66-.72-1.08-.17-.42-.25-.87-.25-1.36,0-.54,.08-1.03,.25-1.46,.17-.43,.41-.8,.72-1.1,.31-.3,.68-.53,1.11-.69,.43-.16,.92-.24,1.45-.24,.23,0,.45,.03,.68,.08,.23,.05,.45,.13,.66,.24,.21,.11,.4,.25,.57,.41s.31,.36,.43,.57h.03v-1.13h1.11v6.33Zm-5.81-3.02c0,.34,.06,.65,.18,.94s.29,.54,.5,.75c.21,.21,.46,.38,.74,.5,.28,.12,.59,.18,.91,.18,.38,0,.71-.07,1.01-.2,.29-.13,.54-.31,.74-.53,.2-.22,.36-.48,.46-.77,.1-.29,.16-.59,.16-.91,0-.36-.06-.69-.17-.99-.11-.3-.27-.55-.48-.77-.21-.22-.46-.38-.75-.5s-.61-.18-.96-.18-.67,.06-.96,.19c-.29,.13-.53,.3-.74,.52-.2,.22-.36,.48-.48,.78-.11,.3-.17,.62-.17,.97Z"/><path d="M28.12,265.01h1.11v5h.03c.08-.13,.18-.26,.31-.39,.13-.13,.29-.24,.48-.35,.18-.1,.39-.19,.62-.25,.23-.07,.47-.1,.72-.1,.43,0,.81,.07,1.13,.2,.32,.13,.58,.32,.79,.55s.36,.52,.46,.86,.15,.7,.15,1.1v4.1h-1.11v-3.98c0-.56-.12-1-.37-1.32s-.63-.48-1.15-.48c-.36,0-.67,.06-.93,.18-.26,.12-.47,.3-.64,.52-.17,.23-.29,.5-.37,.81-.08,.31-.12,.66-.12,1.04v3.23h-1.11v-10.71Z"/><path d="M39.64,270.02h-1.96v3.32c0,.22,0,.42,.01,.6,0,.18,.05,.34,.11,.48s.17,.25,.3,.33c.13,.08,.32,.12,.57,.12,.16,0,.33-.02,.5-.06,.17-.04,.33-.09,.48-.17l.04,1.01c-.19,.09-.4,.15-.63,.18-.23,.04-.45,.06-.66,.06-.4,0-.71-.05-.95-.16-.24-.1-.42-.25-.55-.44-.13-.19-.22-.42-.26-.7-.04-.28-.06-.59-.06-.93v-3.64h-1.45v-.94h1.45v-1.89h1.11v1.89h1.96v.94Z"/></g><g><line class="cls-3" x1="269.25" y1="517.55" x2="256.43" y2="517.55"/><polygon points="261.13 511.76 262.09 512.79 256.98 517.55 262.09 522.31 261.13 523.35 254.89 517.55 261.13 511.76"/></g><g><line class="cls-3" x1="124.5" y1="517.55" x2="224.66" y2="517.55"/><polygon points="219.96 523.35 218.99 522.31 224.11 517.55 218.99 512.8 219.96 511.76 226.19 517.55 219.96 523.35"/></g><g><line class="cls-3" x1="84.23" y1="548.47" x2="310.76" y2="548.47"/><polygon points="88.92 554.27 89.89 553.23 84.77 548.47 89.89 543.71 88.92 542.68 82.69 548.47 88.92 554.27"/><polygon points="306.06 554.27 305.1 553.23 310.22 548.47 305.1 543.71 306.06 542.68 312.3 548.47 306.06 554.27"/></g><g><path d="M125.69,510.43c.22,.27,.46,.49,.72,.65,.26,.16,.59,.24,.99,.24,.17,0,.34-.02,.52-.06,.17-.04,.33-.1,.48-.18s.25-.19,.34-.32c.08-.13,.13-.28,.13-.46s-.04-.33-.12-.44c-.08-.11-.19-.21-.32-.29-.13-.08-.28-.14-.45-.19-.17-.05-.34-.09-.52-.13-.31-.07-.61-.14-.89-.23s-.53-.2-.74-.33c-.21-.14-.38-.31-.51-.53-.13-.22-.19-.5-.19-.84,0-.32,.07-.6,.21-.85s.33-.45,.57-.61c.24-.16,.5-.28,.79-.37,.29-.08,.59-.13,.91-.13,.47,0,.91,.09,1.31,.28,.4,.19,.72,.5,.94,.92l-.92,.61c-.14-.24-.33-.43-.56-.57s-.51-.22-.84-.22c-.15,0-.3,.02-.46,.06-.16,.04-.29,.09-.42,.17-.12,.08-.22,.17-.3,.29s-.12,.25-.12,.4c0,.14,.04,.26,.13,.36,.09,.1,.21,.19,.37,.26,.16,.08,.33,.14,.54,.2s.41,.1,.63,.14c.29,.06,.57,.13,.84,.22s.5,.21,.7,.36c.2,.15,.35,.34,.47,.57,.11,.23,.17,.5,.17,.84,0,.38-.08,.7-.23,.96-.15,.26-.35,.48-.6,.64-.25,.17-.53,.29-.85,.36-.32,.08-.64,.11-.97,.11-.57,0-1.06-.09-1.47-.26-.41-.17-.78-.5-1.11-.97l.88-.68Z"/><path d="M138.22,515.4h-1.11v-4.2h-.03c-.3,.36-.65,.64-1.06,.84-.4,.2-.84,.3-1.33,.3-.52,0-.99-.09-1.42-.26-.43-.17-.8-.42-1.1-.73-.3-.31-.54-.68-.71-1.11-.17-.42-.25-.89-.25-1.39s.08-.95,.25-1.38c.17-.42,.4-.79,.7-1.11,.3-.31,.65-.56,1.06-.74,.41-.18,.84-.27,1.3-.27,.6,0,1.12,.13,1.57,.39,.45,.26,.78,.58,.99,.96h.03v-1.18h1.11v9.86Zm-1.11-6.55c0-.35-.05-.67-.16-.97-.11-.3-.27-.56-.47-.78-.21-.22-.46-.4-.74-.52-.29-.13-.61-.19-.97-.19s-.68,.06-.97,.19c-.29,.13-.54,.3-.74,.52-.21,.22-.37,.48-.47,.78s-.16,.62-.16,.97,.05,.67,.16,.97c.11,.3,.27,.56,.47,.78,.21,.22,.46,.4,.74,.52,.29,.13,.61,.19,.97,.19s.68-.06,.97-.19c.29-.13,.54-.3,.74-.52,.21-.22,.37-.48,.47-.78,.11-.3,.16-.62,.16-.97Z"/><path d="M146.06,510.6c0,.3,0,.59,.03,.85,.02,.26,.03,.51,.03,.72h-1.05c0-.18,0-.36-.01-.54s-.01-.36-.01-.55h-.03c-.08,.16-.18,.32-.32,.47s-.3,.29-.49,.4c-.19,.12-.4,.21-.64,.28-.24,.07-.49,.11-.77,.11-.43,0-.81-.07-1.13-.2-.32-.13-.58-.32-.79-.55s-.36-.52-.46-.86c-.1-.33-.15-.7-.15-1.1v-4.1h1.11v3.98c0,.56,.12,1,.37,1.32,.25,.32,.63,.48,1.15,.48,.36,0,.67-.06,.93-.18,.26-.12,.47-.3,.64-.52,.17-.23,.29-.5,.37-.81,.08-.31,.12-.66,.12-1.04v-3.23h1.11v5.06Z"/><path d="M148.08,506.39c.34-.35,.74-.61,1.21-.77s.94-.25,1.42-.25c.98,0,1.69,.23,2.13,.69s.65,1.17,.65,2.11v2.85c0,.19,0,.38,.03,.59s.04,.39,.07,.56h-1.06c-.04-.15-.06-.32-.06-.5s0-.35,0-.49h-.03c-.22,.34-.51,.62-.87,.84-.36,.22-.8,.33-1.31,.33-.34,0-.66-.04-.96-.13s-.56-.21-.78-.38c-.22-.17-.4-.37-.53-.62-.13-.25-.2-.53-.2-.85,0-.55,.14-.98,.43-1.29,.28-.31,.63-.54,1.06-.69,.42-.15,.87-.25,1.36-.28s.93-.06,1.34-.06h.42v-.2c0-.48-.14-.85-.43-1.09-.29-.25-.69-.37-1.21-.37-.36,0-.71,.06-1.06,.18s-.65,.3-.91,.55l-.69-.72Zm3.2,2.59c-.71,0-1.27,.1-1.69,.3-.42,.2-.62,.52-.62,.98,0,.42,.14,.71,.42,.89,.28,.17,.63,.26,1.04,.26,.32,0,.6-.05,.84-.16,.24-.11,.44-.25,.6-.43,.16-.18,.28-.39,.37-.63s.13-.5,.14-.77v-.42h-1.11Z"/><path d="M155.54,507.11c0-.3,0-.59-.03-.85-.02-.26-.03-.5-.03-.72h1.05c0,.18,0,.36,.01,.54,0,.18,.01,.36,.01,.55h.03c.08-.16,.18-.32,.32-.47,.14-.15,.3-.29,.49-.4,.19-.12,.4-.21,.64-.28,.24-.07,.49-.11,.77-.11,.08,0,.15,0,.23,.01,.08,0,.15,.03,.23,.06l-.07,1.12c-.19-.06-.39-.08-.6-.08-.68,0-1.17,.22-1.48,.66-.31,.44-.46,1.04-.46,1.81v3.23h-1.11v-5.06Z"/><path d="M166.21,510.97c-.4,.51-.83,.87-1.3,1.07s-1.02,.3-1.64,.3c-.52,0-.99-.09-1.4-.28-.42-.18-.77-.43-1.06-.74-.29-.31-.51-.68-.67-1.11-.16-.42-.23-.88-.23-1.36,0-.51,.08-.98,.25-1.41,.17-.43,.41-.8,.71-1.11,.3-.31,.66-.55,1.08-.72s.87-.25,1.36-.25c.46,0,.89,.08,1.28,.23,.39,.16,.72,.38,1,.68,.28,.3,.49,.66,.64,1.09,.15,.43,.23,.92,.23,1.47v.35h-5.36c.02,.28,.09,.56,.21,.82s.27,.49,.46,.68c.19,.19,.41,.35,.67,.46,.25,.11,.53,.17,.84,.17,.48,0,.89-.08,1.22-.25s.63-.42,.89-.75l.84,.65Zm-.95-2.71c-.02-.57-.2-1.02-.55-1.36-.35-.34-.83-.51-1.45-.51s-1.11,.17-1.49,.51c-.38,.34-.6,.79-.68,1.36h4.17Z"/><path d="M179.25,512.17h-1.09l-1.88-5.1h-.03l-1.67,5.1h-1.13l-2.15-6.63h1.22l1.52,5.1h.03l1.71-5.1h1.16l1.74,5.1h.03l1.5-5.1h1.19l-2.14,6.63Z"/><path d="M182.5,502.94c0-.22,.08-.41,.23-.57,.16-.16,.35-.24,.57-.24s.42,.08,.57,.24c.16,.16,.23,.35,.23,.57,0,.24-.08,.43-.23,.58-.15,.15-.35,.23-.58,.23s-.43-.08-.58-.23c-.15-.15-.23-.34-.23-.58Zm.26,2.59h1.11v6.63h-1.11v-6.63Z"/><path d="M191.58,511h-.03c-.21,.38-.54,.7-.99,.96-.45,.26-.97,.39-1.57,.39-.46,0-.9-.09-1.3-.26s-.76-.42-1.06-.73c-.3-.31-.53-.68-.7-1.11-.17-.42-.25-.89-.25-1.39s.08-.96,.25-1.39c.17-.43,.41-.79,.71-1.11,.3-.31,.67-.56,1.1-.73,.43-.17,.9-.26,1.42-.26,.48,0,.92,.1,1.33,.3,.4,.2,.75,.48,1.06,.84h.03v-5.05h1.11v10.71h-1.11v-1.18Zm0-2.14c0-.35-.05-.67-.16-.97-.11-.3-.27-.56-.47-.78-.21-.22-.46-.4-.74-.52-.29-.13-.61-.19-.97-.19s-.68,.06-.97,.19c-.29,.13-.54,.3-.74,.52-.21,.22-.37,.48-.47,.78s-.16,.62-.16,.97,.05,.67,.16,.97c.11,.3,.27,.56,.47,.78,.21,.22,.46,.4,.74,.52,.29,.13,.61,.19,.97,.19s.68-.06,.97-.19c.29-.13,.54-.3,.74-.52,.21-.22,.37-.48,.47-.78,.11-.3,.16-.62,.16-.97Z"/><path d="M198.38,506.47h-1.96v3.32c0,.22,0,.42,.01,.6,0,.18,.05,.34,.11,.48,.07,.14,.17,.25,.3,.33,.13,.08,.32,.12,.57,.12,.16,0,.33-.02,.5-.06,.17-.04,.33-.09,.48-.17l.04,1.01c-.19,.08-.4,.15-.63,.18-.23,.04-.45,.06-.66,.06-.4,0-.71-.05-.95-.16-.24-.1-.42-.25-.55-.44-.13-.19-.22-.42-.26-.7-.04-.28-.06-.59-.06-.93v-3.64h-1.45v-.94h1.45v-1.88h1.11v1.88h1.96v.94Z"/><path d="M199.77,501.46h1.11v5h.03c.08-.13,.18-.26,.31-.39,.13-.13,.29-.24,.48-.35,.18-.1,.39-.19,.62-.26,.23-.07,.47-.1,.72-.1,.43,0,.81,.07,1.13,.2,.32,.13,.58,.32,.79,.55s.36,.52,.46,.86c.1,.34,.15,.7,.15,1.1v4.1h-1.11v-3.98c0-.56-.12-1-.37-1.32s-.63-.48-1.15-.48c-.36,0-.67,.06-.93,.18-.26,.12-.47,.3-.64,.52-.17,.23-.29,.5-.37,.81-.08,.31-.12,.66-.12,1.03v3.23h-1.11v-10.71Z"/></g><g><path d="M185.85,565.65h-1.09l-1.88-5.1h-.03l-1.67,5.1h-1.13l-2.15-6.63h1.22l1.52,5.1h.03l1.71-5.1h1.16l1.74,5.1h.03l1.5-5.1h1.19l-2.14,6.63Z"/><path d="M189.1,556.42c0-.22,.08-.41,.23-.57,.16-.16,.35-.24,.57-.24s.42,.08,.57,.24c.16,.16,.23,.35,.23,.57,0,.24-.08,.43-.23,.58-.15,.15-.35,.23-.58,.23s-.43-.08-.58-.23c-.15-.15-.23-.34-.23-.58Zm.26,2.59h1.11v6.63h-1.11v-6.63Z"/><path d="M198.18,564.47h-.03c-.21,.38-.54,.7-.98,.96-.45,.26-.97,.39-1.57,.39-.46,0-.9-.09-1.3-.26s-.76-.42-1.05-.73c-.3-.31-.53-.68-.7-1.11-.17-.42-.25-.89-.25-1.39s.08-.96,.25-1.39c.17-.42,.41-.79,.71-1.11,.3-.31,.67-.55,1.1-.73,.43-.17,.9-.26,1.42-.26,.48,0,.92,.1,1.32,.3,.4,.2,.75,.48,1.06,.84h.03v-5.04h1.11v10.71h-1.11v-1.18Zm0-2.14c0-.35-.05-.67-.16-.97-.11-.3-.27-.56-.47-.78-.21-.22-.46-.4-.74-.52-.29-.13-.61-.19-.97-.19s-.68,.06-.97,.19c-.29,.13-.54,.3-.74,.52-.21,.22-.37,.48-.47,.78-.11,.3-.16,.62-.16,.97s.05,.67,.16,.97c.11,.3,.27,.56,.47,.78,.21,.22,.46,.4,.74,.52,.29,.13,.61,.19,.97,.19s.68-.06,.97-.19,.54-.3,.74-.52,.37-.48,.47-.78,.16-.62,.16-.97Z"/><path d="M204.99,559.95h-1.96v3.32c0,.22,0,.42,.01,.6,0,.18,.05,.35,.11,.48s.16,.25,.3,.33c.13,.08,.32,.12,.57,.12,.16,0,.32-.02,.49-.06,.17-.04,.33-.09,.48-.17l.04,1.01c-.19,.08-.4,.15-.63,.18-.23,.04-.45,.06-.66,.06-.4,0-.71-.05-.95-.16-.24-.1-.42-.25-.55-.44-.13-.19-.22-.42-.26-.7s-.06-.59-.06-.93v-3.64h-1.45v-.94h1.45v-1.88h1.11v1.88h1.96v.94Z"/><path d="M206.38,554.94h1.11v5h.03c.08-.13,.18-.26,.31-.39,.13-.13,.29-.24,.47-.35,.18-.1,.39-.19,.62-.25s.47-.1,.72-.1c.43,0,.81,.07,1.13,.2,.32,.13,.58,.32,.79,.55,.21,.24,.36,.52,.46,.86,.1,.33,.15,.7,.15,1.1v4.1h-1.11v-3.98c0-.56-.12-1-.37-1.32s-.63-.48-1.15-.48c-.36,0-.67,.06-.93,.18s-.47,.3-.64,.52-.29,.5-.37,.81c-.08,.31-.12,.66-.12,1.04v3.23h-1.11v-10.71Z"/></g><line class="cls-2" x1="222.12" y1="517.55" x2="258.65" y2="517.55"/></svg>